<svg xmlns="http://www.w3.org/2000/svg" xmlns:xlink="http://www.w3.org/1999/xlink" version="1.1" width="614.1" height="834.1" viewBox="0 3.9 614.1 834.1"><g><g transform="translate(38,87)"><g><g>
<g stroke="#000000" stroke-dasharray="5,5" fill="#FFFFFF">
    <path d="M71.7,38.2H95.5L47.8,0L0,38.2h23.9v229.5H0L47.8,306L95.5,267.8h-23.9V38.2z"/>
</g>
<rect x="10.1" y="10.8" fill="none" width="75.3" height="284.4"/>
<circle fill="none" cx="48.1" cy="0.3" r="0.1"/>
<circle fill="none" cx="95.4" cy="37.9" r="0.1"/>
<circle fill="none" cx="71.6" cy="72.4" r="0.1"/>
<circle fill="none" cx="71.6" cy="147.1" r="0.1"/>
<circle fill="none" cx="71.6" cy="219.2" r="0.1"/>
<circle fill="none" cx="96" cy="268.1" r="0.1"/>
<circle fill="none" cx="47.1" cy="305.2" r="0.1"/>
<circle fill="none" cx="0.2" cy="267.6" r="0.1"/>
<circle fill="none" cx="23.6" cy="220.2" r="0.1"/>
<circle fill="none" cx="23.6" cy="150.2" r="0.1"/>
<circle fill="none" cx="23.6" cy="76.5" r="0.1"/>
<circle fill="none" cx="0.2" cy="37.3" r="0.1"/>
</g></g><rect stroke="none" stroke-width="0" fill="#FFFFFF" x="0" y="0" width="0" height="0" transform="translate(71.5,147)"/><path stroke="#000000" fill="none" d=""/><text font-family="OpenSansCondensedLight" font-size="14pt" fill="black" transform="translate(71.5,147)"/><rect stroke-width="0" fill="none" width="288.3" transform="translate(-96.1,316)"/><text font-family="OpenSansCondensedLight" font-size="14pt" fill="black" transform="translate(-96.1,316)" text-anchor="middle"><tspan x="144.1" y="16.8"> </tspan></text><path stroke="#000000" fill="none" transform="translate(-96.1,316)" d="M 0 0"/></g><g transform="translate(127,44)"><g><g>
<path d="M487,0H0v790h487V0L487,0z" stroke="#000000" stroke-dasharray="none" fill="#FFFFFF"/>
<rect x="21.3" y="36" width="444.4" height="717.9" fill="none"/>
<circle fill="none" cx="243.5" cy="0" r="0.1"/>
<circle fill="none" cx="364.2" cy="0" r="0.1"/>
<circle fill="none" cx="487" cy="199.2" r="0.1"/>
<circle fill="none" cx="487" cy="395" r="0.1"/>
<circle fill="none" cx="487" cy="590.8" r="0.1"/>
<circle fill="none" cx="364.2" cy="790" r="0.1"/>
<circle fill="none" cx="243.5" cy="790" r="0.1"/>
<circle fill="none" cx="122.9" cy="790" r="0.1"/>
<circle fill="none" cx="0" cy="590.8" r="0.1"/>
<circle fill="none" cx="0" cy="395" r="0.1"/>
<circle fill="none" cx="0" cy="199.2" r="0.1"/>
<circle fill="none" cx="122.9" cy="0" r="0.1"/>
</g></g><rect stroke="none" stroke-width="0" fill="#FFFFFF" x="0" y="0" width="0" height="0" transform="translate(486.9,394.9)"/><path stroke="#000000" fill="none" d=""/><text font-family="OpenSansCondensedLight" font-size="14pt" fill="black" transform="translate(486.9,394.9)"/><rect stroke-width="0" fill="none" width="1461.6" transform="translate(-487.3,-10.1)"/><text font-family="OpenSansCondensedLight" font-size="14pt" fill="black" transform="translate(-487.3,-10.1)" text-anchor="middle"><tspan x="730.8" y="-4.2">PPU 202</tspan></text><path stroke="#000000" fill="none" transform="translate(-487.3,-10.1)" d="M 728 -2 756 -2"/></g><g transform="translate(28,77)"><g><g>
<g stroke="#000000" stroke-dasharray="5,5" fill="#FFFFFF">
    <path d="M71.7,38.2H95.5L47.8,0L0,38.2h23.9v229.5H0L47.8,306L95.5,267.8h-23.9V38.2z"/>
</g>
<rect x="10.1" y="10.8" fill="none" width="75.3" height="284.4"/>
<circle fill="none" cx="48.1" cy="0.3" r="0.1"/>
<circle fill="none" cx="95.4" cy="37.9" r="0.1"/>
<circle fill="none" cx="71.6" cy="72.4" r="0.1"/>
<circle fill="none" cx="71.6" cy="147.1" r="0.1"/>
<circle fill="none" cx="71.6" cy="219.2" r="0.1"/>
<circle fill="none" cx="96" cy="268.1" r="0.1"/>
<circle fill="none" cx="47.1" cy="305.2" r="0.1"/>
<circle fill="none" cx="0.2" cy="267.6" r="0.1"/>
<circle fill="none" cx="23.6" cy="220.2" r="0.1"/>
<circle fill="none" cx="23.6" cy="150.2" r="0.1"/>
<circle fill="none" cx="23.6" cy="76.5" r="0.1"/>
<circle fill="none" cx="0.2" cy="37.3" r="0.1"/>
</g></g><rect stroke="none" stroke-width="0" fill="#FFFFFF" x="0" y="0" width="0" height="0" transform="translate(71.5,147)"/><path stroke="#000000" fill="none" d=""/><text font-family="OpenSansCondensedLight" font-size="14pt" fill="black" transform="translate(71.5,147)"/><rect stroke-width="0" fill="none" width="288.3" transform="translate(-96.1,316)"/><text font-family="OpenSansCondensedLight" font-size="14pt" fill="black" transform="translate(-96.1,316)" text-anchor="middle"><tspan x="144.1" y="16.8"> </tspan></text><path stroke="#000000" fill="none" transform="translate(-96.1,316)" d="M 0 0"/></g><g><path stroke="black" stroke-dasharray="none" d="M 350 585 350 554" fill="none"/><path fill="black" stroke="black" d="M 8 0 L 0 4 L 8 8 z" transform="translate(346,593) scale(1,1) rotate(-90)"/><path fill="black" stroke="black" d="M 8 0 L 0 4 L 8 8 z" transform="translate(354,546) scale(1,1) rotate(-270)"/><g><g label-idx="0" cursor="move" transform="translate(350, 569.5)"><rect fill="white" rx="3" ry="3" x="0" y="0" width="0" height="0"/><text text-anchor="middle" font-size="14pt" font-family="OpenSansCondensedLight" y="0.8em" display="none" xml:space="preserve" transform="translate(0,0)"/></g></g></g><g><path stroke="black" stroke-dasharray="none" d="M 314 583 314 560" fill="none"/><path fill="black" stroke="black" d="M 8 0 L 0 4 L 8 8 z" transform="translate(310,591) scale(1,1) rotate(-90)"/><path fill="black" stroke="black" d="M 8 0 L 0 4 L 8 8 z" transform="translate(318,552) scale(1,1) rotate(-270)"/><g><g label-idx="0" cursor="move" transform="translate(314, 571.5)"><rect fill="white" rx="3" ry="3" x="0" y="0" width="0" height="0"/><text text-anchor="middle" font-size="14pt" font-family="OpenSansCondensedLight" y="0.8em" display="none" xml:space="preserve" transform="translate(0,0)"/></g></g></g><g transform="translate(16,74)"><g><g>
<g stroke="#000000" stroke-dasharray="none" fill="#FFFFFF">
    <path d="M71.7,38.2H95.5L47.8,0L0,38.2h23.9v229.5H0L47.8,306L95.5,267.8h-23.9V38.2z"/>
</g>
<rect x="10.1" y="10.8" fill="none" width="75.3" height="284.4"/>
<circle fill="none" cx="48.1" cy="0.3" r="0.1"/>
<circle fill="none" cx="95.4" cy="37.9" r="0.1"/>
<circle fill="none" cx="71.6" cy="72.4" r="0.1"/>
<circle fill="none" cx="71.6" cy="147.1" r="0.1"/>
<circle fill="none" cx="71.6" cy="219.2" r="0.1"/>
<circle fill="none" cx="96" cy="268.1" r="0.1"/>
<circle fill="none" cx="47.1" cy="305.2" r="0.1"/>
<circle fill="none" cx="0.2" cy="267.6" r="0.1"/>
<circle fill="none" cx="23.6" cy="220.2" r="0.1"/>
<circle fill="none" cx="23.6" cy="150.2" r="0.1"/>
<circle fill="none" cx="23.6" cy="76.5" r="0.1"/>
<circle fill="none" cx="0.2" cy="37.3" r="0.1"/>
</g></g><rect stroke="none" stroke-width="0" fill="#FFFFFF" x="0" y="0" width="0" height="0" transform="translate(71.5,147)"/><path stroke="#000000" fill="none" d=""/><text font-family="OpenSansCondensedLight" font-size="14pt" fill="black" transform="translate(71.5,147)"/><rect stroke-width="0" fill="none" width="288.3" transform="translate(-96.1,316)"/><text font-family="OpenSansCondensedLight" font-size="14pt" fill="black" transform="translate(-96.1,316)" text-anchor="middle"><tspan x="144.1" y="16.8">NVLINKS 206</tspan></text><path stroke="#000000" fill="none" transform="translate(-96.1,316)" d="M 155.3 19 183.3 19"/></g><g transform="translate(184,91)"><g><g>
<path d="M96,0H0v39h96V0L96,0z" stroke="#000000" stroke-dasharray="none" fill="#FFFFFF"/>
<rect x="4.2" y="1.8" width="87.6" height="35.4" fill="none"/>
<circle fill="none" cx="48" cy="0" r="0.1"/>
<circle fill="none" cx="71.8" cy="0" r="0.1"/>
<circle fill="none" cx="96" cy="9.8" r="0.1"/>
<circle fill="none" cx="96" cy="19.5" r="0.1"/>
<circle fill="none" cx="96" cy="29.2" r="0.1"/>
<circle fill="none" cx="71.8" cy="39" r="0.1"/>
<circle fill="none" cx="48" cy="39" r="0.1"/>
<circle fill="none" cx="24.2" cy="39" r="0.1"/>
<circle fill="none" cx="0" cy="29.2" r="0.1"/>
<circle fill="none" cx="0" cy="19.5" r="0.1"/>
<circle fill="none" cx="0" cy="9.8" r="0.1"/>
<circle fill="none" cx="24.2" cy="0" r="0.1"/>
</g></g><rect stroke="none" stroke-width="0" fill="#FFFFFF" x="0" y="0" width="0" height="0" transform="translate(95.9,19.4)"/><path stroke="#000000" fill="none" d=""/><text font-family="OpenSansCondensedLight" font-size="14pt" fill="black" transform="translate(95.9,19.4)"/><rect stroke-width="0" fill="none" width="87.6" height="35.4" transform="translate(4.2,1.8)"/><text font-family="OpenSansCondensedLight" font-size="14pt" fill="black" transform="translate(4.2,1.8)" text-anchor="middle"><tspan x="43.8" y="13.5">I/O UNIT</tspan><tspan x="43.8" y="34.5">208</tspan></text><path stroke="#000000" fill="none" transform="translate(4.2,1.8)" d="M 29.8 37 57.8 37"/></g><g transform="translate(188,266)"><g><g>
<path d="M96,0H0v47h96V0L96,0z" stroke="#000000" stroke-dasharray="none" fill="#FFFFFF"/>
<rect x="4.2" y="2.1" width="87.6" height="42.7" fill="none"/>
<circle fill="none" cx="48" cy="0" r="0.1"/>
<circle fill="none" cx="71.8" cy="0" r="0.1"/>
<circle fill="none" cx="96" cy="11.9" r="0.1"/>
<circle fill="none" cx="96" cy="23.5" r="0.1"/>
<circle fill="none" cx="96" cy="35.1" r="0.1"/>
<circle fill="none" cx="71.8" cy="47" r="0.1"/>
<circle fill="none" cx="48" cy="47" r="0.1"/>
<circle fill="none" cx="24.2" cy="47" r="0.1"/>
<circle fill="none" cx="0" cy="35.1" r="0.1"/>
<circle fill="none" cx="0" cy="23.5" r="0.1"/>
<circle fill="none" cx="0" cy="11.9" r="0.1"/>
<circle fill="none" cx="24.2" cy="0" r="0.1"/>
</g></g><rect stroke="none" stroke-width="0" fill="#FFFFFF" x="0" y="0" width="0" height="0" transform="translate(95.9,23.4)"/><path stroke="#000000" fill="none" d=""/><text font-family="OpenSansCondensedLight" font-size="14pt" fill="black" transform="translate(95.9,23.4)"/><rect stroke-width="0" fill="none" width="87.6" height="42.7" transform="translate(4.2,2.1)"/><text font-family="OpenSansCondensedLight" font-size="14pt" fill="black" transform="translate(4.2,2.1)" text-anchor="middle"><tspan x="43.8" y="27.7">HUB 210</tspan></text><path stroke="#000000" fill="none" transform="translate(4.2,2.1)" d="M 51.8 30 79.8 30"/></g><g transform="translate(443,62)"><g><g>
<g stroke="#000000" stroke-dasharray="none" fill="#FFFFFF">
    <path d="M107.9,71.9H5.4C2.5,71.9,0,69.2,0,65.8V6.1C0,2.8,2.5,0,5.4,0h102.5c3,0,5.4,2.8,5.4,6.1v59.6C113.4,69.2,110.9,71.9,107.9,71.9z"/>
</g>
<rect x="5" y="2.5" width="104" height="65.4" fill="none"/>
<circle cx="57" cy="0.1" r="0.1"/>
<circle cx="90.7" cy="0" r="0.1"/>
<circle cx="113.4" cy="8.7" r="0.1"/>
<circle cx="113.4" cy="35.1" r="0.1"/>
<circle cx="113.4" cy="58.7" r="0.1"/>
<circle cx="90.6" cy="72" r="0.1"/>
<circle cx="57" cy="71.8" r="0.1"/>
<circle cx="19.1" cy="71.9" r="0.1"/>
<circle cx="0" cy="58.8" r="0.1"/>
<circle cx="0" cy="36" r="0.1"/>
<circle cx="0" cy="15.4" r="0.1"/>
<circle cx="19.2" cy="0.1" r="0.1"/>
</g></g><rect stroke="none" stroke-width="0" fill="#FFFFFF" x="0" y="0" width="0" height="0" transform="translate(113.3,35)"/><path stroke="#000000" fill="none" d=""/><text font-family="OpenSansCondensedLight" font-size="14pt" fill="black" transform="translate(113.3,35)"/><rect stroke-width="0" fill="none" width="104" height="65.4" transform="translate(5,2.5)"/><text font-family="OpenSansCondensedLight" font-size="14pt" fill="black" transform="translate(5,2.5)" text-anchor="middle"><tspan x="52" y="18">FRONT</tspan><tspan x="52" y="39">END UNIT </tspan><tspan x="52" y="60">212</tspan></text><path stroke="#000000" fill="none" transform="translate(5,2.5)" d="M 38 62 66 62"/></g><g transform="translate(444,171)"><g><g>
<g stroke="#000000" stroke-dasharray="none" fill="#FFFFFF">
    <path d="M107.6,72.2H5.4C2.4,72.2,0,69.4,0,66V6.2C0,2.8,2.4,0,5.4,0h102.1c3,0,5.4,2.8,5.4,6.2v59.8C113,69.4,110.6,72.2,107.6,72.2z"/>
</g>
<rect x="5" y="2.5" width="103.6" height="65.6" fill="none"/>
<circle cx="56.8" cy="0.1" r="0.1"/>
<circle cx="90.4" cy="0" r="0.1"/>
<circle cx="113" cy="8.7" r="0.1"/>
<circle cx="113" cy="35.3" r="0.1"/>
<circle cx="113" cy="58.9" r="0.1"/>
<circle cx="90.3" cy="72.2" r="0.1"/>
<circle cx="56.8" cy="72.1" r="0.1"/>
<circle cx="19.1" cy="72.2" r="0.1"/>
<circle cx="0" cy="59" r="0.1"/>
<circle cx="0" cy="36.1" r="0.1"/>
<circle cx="0" cy="15.5" r="0.1"/>
<circle cx="19.1" cy="0.1" r="0.1"/>
</g></g><rect stroke="none" stroke-width="0" fill="#FFFFFF" x="0" y="0" width="0" height="0" transform="translate(112.9,35.2)"/><path stroke="#000000" fill="none" d=""/><text font-family="OpenSansCondensedLight" font-size="14pt" fill="black" transform="translate(112.9,35.2)"/><rect stroke-width="0" fill="none" width="103.6" height="65.6" transform="translate(5,2.5)"/><text font-family="OpenSansCondensedLight" font-size="14pt" fill="black" transform="translate(5,2.5)" text-anchor="middle"><tspan x="51.8" y="28.6">SCHEDULER</tspan><tspan x="51.8" y="49.6">UNITS 214</tspan></text><path stroke="#000000" fill="none" transform="translate(5,2.5)" d="M 67.6 52 95.6 52"/></g><g transform="translate(444,284)"><g><g>
<g stroke="#000000" stroke-dasharray="none" fill="#FFFFFF">
    <path d="M107.6,72.2H5.4C2.4,72.2,0,69.4,0,66V6.2C0,2.8,2.4,0,5.4,0h102.1c3,0,5.4,2.8,5.4,6.2v59.8C113,69.4,110.6,72.2,107.6,72.2z"/>
</g>
<rect x="5" y="2.5" width="103.6" height="65.6" fill="none"/>
<circle cx="56.8" cy="0.1" r="0.1"/>
<circle cx="90.4" cy="0" r="0.1"/>
<circle cx="113" cy="8.7" r="0.1"/>
<circle cx="113" cy="35.3" r="0.1"/>
<circle cx="113" cy="58.9" r="0.1"/>
<circle cx="90.3" cy="72.2" r="0.1"/>
<circle cx="56.8" cy="72.1" r="0.1"/>
<circle cx="19.1" cy="72.2" r="0.1"/>
<circle cx="0" cy="59" r="0.1"/>
<circle cx="0" cy="36.1" r="0.1"/>
<circle cx="0" cy="15.5" r="0.1"/>
<circle cx="19.1" cy="0.1" r="0.1"/>
</g></g><rect stroke="none" stroke-width="0" fill="#FFFFFF" x="0" y="0" width="0" height="0" transform="translate(112.9,35.2)"/><path stroke="#000000" fill="none" d=""/><text font-family="OpenSansCondensedLight" font-size="14pt" fill="black" transform="translate(112.9,35.2)"/><rect stroke-width="0" fill="none" width="103.6" height="65.6" transform="translate(5,2.5)"/><text font-family="OpenSansCondensedLight" font-size="14pt" fill="black" transform="translate(5,2.5)" text-anchor="middle"><tspan x="51.8" y="18.1">WORK</tspan><tspan x="51.8" y="39.1">DISTRIBUTION</tspan><tspan x="51.8" y="60.1">UNIT 216</tspan></text><path stroke="#000000" fill="none" transform="translate(5,2.5)" d="M 62.4 62 90.4 62"/></g><g transform="translate(165,403)"><g><g>
<path d="M375,0H0v29h375V0L375,0z" stroke="#000000" stroke-dasharray="none" fill="#FFFFFF"/>
<rect x="16.4" y="1.3" width="342.2" height="26.4" fill="none"/>
<circle fill="none" cx="187.5" cy="0" r="0.1"/>
<circle fill="none" cx="280.4" cy="0" r="0.1"/>
<circle fill="none" cx="375" cy="7.3" r="0.1"/>
<circle fill="none" cx="375" cy="14.5" r="0.1"/>
<circle fill="none" cx="375" cy="21.7" r="0.1"/>
<circle fill="none" cx="280.4" cy="29" r="0.1"/>
<circle fill="none" cx="187.5" cy="29" r="0.1"/>
<circle fill="none" cx="94.6" cy="29" r="0.1"/>
<circle fill="none" cx="0" cy="21.7" r="0.1"/>
<circle fill="none" cx="0" cy="14.5" r="0.1"/>
<circle fill="none" cx="0" cy="7.3" r="0.1"/>
<circle fill="none" cx="94.6" cy="0" r="0.1"/>
</g></g><rect stroke="none" stroke-width="0" fill="#FFFFFF" x="0" y="0" width="0" height="0" transform="translate(374.9,14.4)"/><path stroke="#000000" fill="none" d=""/><text font-family="OpenSansCondensedLight" font-size="14pt" fill="black" transform="translate(374.9,14.4)"/><rect stroke-width="0" fill="none" width="342.2" height="26.4" transform="translate(16.4,1.3)"/><text font-family="OpenSansCondensedLight" font-size="14pt" fill="black" transform="translate(16.4,1.3)" text-anchor="middle"><tspan x="171.1" y="19.5"> </tspan></text><path stroke="#000000" fill="none" transform="translate(16.4,1.3)" d="M 0 0"/></g><g transform="translate(165,593)"><g><g>
<path d="M375,0H0v29h375V0L375,0z" stroke="#000000" stroke-dasharray="none" fill="#FFFFFF"/>
<rect x="16.4" y="1.3" width="342.2" height="26.4" fill="none"/>
<circle fill="none" cx="187.5" cy="0" r="0.1"/>
<circle fill="none" cx="280.4" cy="0" r="0.1"/>
<circle fill="none" cx="375" cy="7.3" r="0.1"/>
<circle fill="none" cx="375" cy="14.5" r="0.1"/>
<circle fill="none" cx="375" cy="21.7" r="0.1"/>
<circle fill="none" cx="280.4" cy="29" r="0.1"/>
<circle fill="none" cx="187.5" cy="29" r="0.1"/>
<circle fill="none" cx="94.6" cy="29" r="0.1"/>
<circle fill="none" cx="0" cy="21.7" r="0.1"/>
<circle fill="none" cx="0" cy="14.5" r="0.1"/>
<circle fill="none" cx="0" cy="7.3" r="0.1"/>
<circle fill="none" cx="94.6" cy="0" r="0.1"/>
</g></g><rect stroke="none" stroke-width="0" fill="#FFFFFF" x="0" y="0" width="0" height="0" transform="translate(374.9,14.4)"/><path stroke="#000000" fill="none" d=""/><text font-family="OpenSansCondensedLight" font-size="14pt" fill="black" transform="translate(374.9,14.4)"/><rect stroke-width="0" fill="none" width="342.2" height="26.4" transform="translate(16.4,1.3)"/><text font-family="OpenSansCondensedLight" font-size="14pt" fill="black" transform="translate(16.4,1.3)" text-anchor="middle"><tspan x="171.1" y="19.5">XBAR 218</tspan></text><path stroke="#000000" fill="none" transform="translate(16.4,1.3)" d="M 185.4 22 213.4 22"/></g><g transform="translate(511,403)"><g><g>
<path d="M30,0H0v219h30V0L30,0z" stroke="#000000" stroke-dasharray="none" fill="#FFFFFF"/>
<rect x="1.3" y="10" width="27.4" height="199" fill="none"/>
<circle fill="none" cx="15" cy="0" r="0.1"/>
<circle fill="none" cx="22.4" cy="0" r="0.1"/>
<circle fill="none" cx="30" cy="55.2" r="0.1"/>
<circle fill="none" cx="30" cy="109.5" r="0.1"/>
<circle fill="none" cx="30" cy="163.8" r="0.1"/>
<circle fill="none" cx="22.4" cy="219" r="0.1"/>
<circle fill="none" cx="15" cy="219" r="0.1"/>
<circle fill="none" cx="7.6" cy="219" r="0.1"/>
<circle fill="none" cx="0" cy="163.8" r="0.1"/>
<circle fill="none" cx="0" cy="109.5" r="0.1"/>
<circle fill="none" cx="0" cy="55.2" r="0.1"/>
<circle fill="none" cx="7.6" cy="0" r="0.1"/>
</g></g><rect stroke="none" stroke-width="0" fill="#FFFFFF" x="0" y="0" width="0" height="0" transform="translate(29.9,109.4)"/><path stroke="#000000" fill="none" d=""/><text font-family="OpenSansCondensedLight" font-size="14pt" fill="black" transform="translate(29.9,109.4)"/><rect stroke-width="0" fill="none" width="27.4" height="199" transform="translate(1.3,10)"/><text font-family="OpenSansCondensedLight" font-size="14pt" fill="black" transform="translate(1.3,10)" text-anchor="middle"><tspan x="13.7" y="105.8"> </tspan></text><path stroke="#000000" fill="none" transform="translate(1.3,10)" d="M 0 0"/></g><g transform="translate(237,456)"><g><g>
<g fill="#FFFFFF">
    <path d="M190.2,94.7h-9.5c0.2,-0.2,-0.1,7.1,-0.1,7.1H0.1V14c0,0,9.7,-0.2,9.5,-0.1V6.9h9V0h180.5v87.8h-9"/>
</g>
<g stroke="#000000" stroke-dasharray="5,5">
    <path fill="none" d="M18.6,6.9V0h180.5v87.8h-9"/>
    <path fill="none" d="M9.7,13.9V6.9h180.5v87.8h-9.5"/>
    <path fill="none" d="M0.1,14h180.5v87.8H0.1V14z"/>
</g>
<rect x="6" y="18.4" fill="none" width="169.1" height="78.7"/>
<circle fill="none" cx="102.6" cy="0.1" r="0.1"/>
<circle fill="none" cx="163.6" cy="0.1" r="0.1"/>
<circle fill="none" cx="199.1" cy="8.2" r="0.1"/>
<circle fill="none" cx="199.1" cy="39.4" r="0.1"/>
<circle fill="none" cx="199.1" cy="82.1" r="0.1"/>
<circle fill="none" cx="156.5" cy="102" r="0.1"/>
<circle fill="none" cx="84.8" cy="101.7" r="0.1"/>
<circle fill="none" cx="21.7" cy="101.7" r="0.1"/>
<circle fill="none" cx="0.4" cy="88.9" r="0.1"/>
<circle fill="none" cx="0.4" cy="55.5" r="0.1"/>
<circle fill="none" cx="0.1" cy="28.9" r="0.1"/>
<circle fill="none" cx="42.4" cy="0.1" r="0.1"/>
</g></g><rect stroke="none" stroke-width="0" fill="#FFFFFF" x="0" y="0" width="0" height="0" transform="translate(199,39.3)"/><path stroke="#000000" fill="none" d=""/><text font-family="OpenSansCondensedLight" font-size="14pt" fill="black" transform="translate(199,39.3)"/><rect stroke-width="0" fill="none" width="169.1" height="78.7" transform="translate(6,18.4)"/><text font-family="OpenSansCondensedLight" font-size="14pt" fill="black" transform="translate(6,18.4)" text-anchor="middle"><tspan x="84.5" y="45.6"> </tspan></text><path stroke="#000000" fill="none" transform="translate(6,18.4)" d="M 0 0"/></g><g transform="translate(235,469.5)"><g><g>
<path d="M185,0H0v90h185V0L185,0z" stroke="#000000" stroke-dasharray="none" fill="#FFFFFF"/>
<rect x="8.1" y="4.1" width="168.8" height="81.8" fill="none"/>
<circle fill="none" cx="92.5" cy="0" r="0.1"/>
<circle fill="none" cx="138.3" cy="0" r="0.1"/>
<circle fill="none" cx="185" cy="22.7" r="0.1"/>
<circle fill="none" cx="185" cy="45" r="0.1"/>
<circle fill="none" cx="185" cy="67.3" r="0.1"/>
<circle fill="none" cx="138.3" cy="90" r="0.1"/>
<circle fill="none" cx="92.5" cy="90" r="0.1"/>
<circle fill="none" cx="46.7" cy="90" r="0.1"/>
<circle fill="none" cx="0" cy="67.3" r="0.1"/>
<circle fill="none" cx="0" cy="45" r="0.1"/>
<circle fill="none" cx="0" cy="22.7" r="0.1"/>
<circle fill="none" cx="46.7" cy="0" r="0.1"/>
</g></g><rect stroke="none" stroke-width="0" fill="#FFFFFF" x="0" y="0" width="0" height="0" transform="translate(184.9,44.9)"/><path stroke="#000000" fill="none" d=""/><text font-family="OpenSansCondensedLight" font-size="14pt" fill="black" transform="translate(184.9,44.9)"/><rect stroke-width="0" fill="none" width="168.8" height="81.8" transform="translate(8.1,4.1)"/><text font-family="OpenSansCondensedLight" font-size="14pt" fill="black" transform="translate(8.1,4.1)" text-anchor="middle"><tspan x="84.4" y="47.2">GPCS 204</tspan></text><path stroke="#000000" fill="none" transform="translate(8.1,4.1)" d="M 96.1 49 124.1 49"/></g><g transform="translate(227,674)"><g><g>
<path d="M311,0H0v102h311V0L311,0z" stroke="#000000" stroke-dasharray="none" fill="#FFFFFF"/>
<rect x="13.6" y="4.7" width="283.8" height="92.7" fill="none"/>
<circle fill="none" cx="155.5" cy="0" r="0.1"/>
<circle fill="none" cx="232.6" cy="0" r="0.1"/>
<circle fill="none" cx="311" cy="25.7" r="0.1"/>
<circle fill="none" cx="311" cy="51" r="0.1"/>
<circle fill="none" cx="311" cy="76.3" r="0.1"/>
<circle fill="none" cx="232.6" cy="102" r="0.1"/>
<circle fill="none" cx="155.5" cy="102" r="0.1"/>
<circle fill="none" cx="78.5" cy="102" r="0.1"/>
<circle fill="none" cx="0" cy="76.3" r="0.1"/>
<circle fill="none" cx="0" cy="51" r="0.1"/>
<circle fill="none" cx="0" cy="25.7" r="0.1"/>
<circle fill="none" cx="78.5" cy="0" r="0.1"/>
</g></g><rect stroke="none" stroke-width="0" fill="#FFFFFF" x="0" y="0" width="0" height="0" transform="translate(310.9,50.9)"/><path stroke="#000000" fill="none" d=""/><text font-family="OpenSansCondensedLight" font-size="14pt" fill="black" transform="translate(310.9,50.9)"/><rect stroke-width="0" fill="none" width="283.8" height="92.7" transform="translate(13.6,4.7)"/><text font-family="OpenSansCondensedLight" font-size="14pt" fill="black" transform="translate(13.6,4.7)" text-anchor="middle"><tspan x="141.9" y="52.6">MEMORY PARTITION UNIT 220</tspan></text><path stroke="#000000" fill="none" transform="translate(13.6,4.7)" d="M 246.5 55 274.5 55"/></g><g transform="translate(21,681)"><g transform="rotate(90,57.5,37.5)"><g>
<g fill="#FFFFFF">
    <path d="M109.9,69.6h-5.5c0.1,-0.1,-0,5.2,-0,5.2H0.1V10.3c0,0,5.6,-0.2,5.5,-0.1V5.1h5.2V0h104.3v64.6h-5.2"/>
</g>
<g stroke="#000000" stroke-dasharray="5,5">
    <path fill="none" d="M10.8,5.1V0h104.3v64.6h-5.2"/>
    <path fill="none" d="M5.6,10.3V5.1h104.3v64.6h-5.5"/>
    <path fill="none" d="M0.1,10.3h104.3v64.6H0.1V10.3z"/>
</g>
<rect x="3.4" y="13.6" fill="none" width="97.7" height="57.9"/>
<circle fill="none" cx="59.3" cy="0.1" r="0.1"/>
<circle fill="none" cx="94.6" cy="0.1" r="0.1"/>
<circle fill="none" cx="115" cy="6.1" r="0.1"/>
<circle fill="none" cx="115" cy="29" r="0.1"/>
<circle fill="none" cx="115" cy="60.3" r="0.1"/>
<circle fill="none" cx="90.5" cy="75" r="0.1"/>
<circle fill="none" cx="49" cy="74.8" r="0.1"/>
<circle fill="none" cx="12.5" cy="74.8" r="0.1"/>
<circle fill="none" cx="0.3" cy="65.4" r="0.1"/>
<circle fill="none" cx="0.3" cy="40.8" r="0.1"/>
<circle fill="none" cx="0.1" cy="21.2" r="0.1"/>
<circle fill="none" cx="24.5" cy="0.1" r="0.1"/>
</g></g><rect stroke="none" stroke-width="0" fill="#FFFFFF" x="0" y="0" width="0" height="0" transform="translate(94.8,39.2)"/><path stroke="#000000" fill="none" d=""/><text font-family="OpenSansCondensedLight" font-size="14pt" fill="black" transform="translate(94.8,39.2)"/><rect stroke-width="0" fill="none" width="57.9" height="97.7" transform="translate(23.6,-16.6)"/><text font-family="OpenSansCondensedLight" font-size="14pt" fill="black" transform="translate(23.6,-16.6)" text-anchor="middle"><tspan x="28.9" y="55.2"> </tspan></text><path stroke="#000000" fill="none" transform="translate(23.6,-16.6)" d="M 0 0"/></g><g transform="translate(40,658)"><g><g>
<path d="M63,0H0v118h63V0L63,0z" stroke="#000000" stroke-dasharray="none" fill="#FFFFFF"/>
<rect x="2.8" y="5.4" width="57.5" height="107.2" fill="none"/>
<circle fill="none" cx="31.5" cy="0" r="0.1"/>
<circle fill="none" cx="47.1" cy="0" r="0.1"/>
<circle fill="none" cx="63" cy="29.8" r="0.1"/>
<circle fill="none" cx="63" cy="59" r="0.1"/>
<circle fill="none" cx="63" cy="88.2" r="0.1"/>
<circle fill="none" cx="47.1" cy="118" r="0.1"/>
<circle fill="none" cx="31.5" cy="118" r="0.1"/>
<circle fill="none" cx="15.9" cy="118" r="0.1"/>
<circle fill="none" cx="0" cy="88.2" r="0.1"/>
<circle fill="none" cx="0" cy="59" r="0.1"/>
<circle fill="none" cx="0" cy="29.8" r="0.1"/>
<circle fill="none" cx="15.9" cy="0" r="0.1"/>
</g></g><rect stroke="none" stroke-width="0" fill="#FFFFFF" x="0" y="0" width="0" height="0" transform="translate(62.9,58.9)"/><path stroke="#000000" fill="none" d=""/><text font-family="OpenSansCondensedLight" font-size="14pt" fill="black" transform="translate(62.9,58.9)"/><rect stroke-width="0" fill="none" width="57.5" height="107.2" transform="translate(2.8,5.4)"/><text font-family="OpenSansCondensedLight" font-size="14pt" fill="black" transform="translate(2.8,5.4)" text-anchor="middle"><tspan x="28.7" y="38.9">MEMORY</tspan><tspan x="28.7" y="59.9">DEVICES</tspan><tspan x="28.7" y="80.9">222</tspan></text><path stroke="#000000" fill="none" transform="translate(2.8,5.4)" d="M 14.8 83 42.7 83"/></g><g transform="translate(34,4)"><g><g>
<rect y="0" fill="#FFFFFF" width="30.2" height="30.2" stroke="none" stroke-dasharray="none"/>
<rect x="2.1" y="2.3" fill="none" width="26" height="25.7"/>
<circle fill="none" cx="15.1" cy="0" r="0.1"/>
<circle fill="none" cx="23.5" cy="0" r="0.1"/>
<circle fill="none" cx="30.2" cy="7.3" r="0.1"/>
<circle fill="none" cx="30.2" cy="14.7" r="0.1"/>
<circle fill="none" cx="30.2" cy="23" r="0.1"/>
<circle fill="none" cx="23.5" cy="30.2" r="0.1"/>
<circle fill="none" cx="15.1" cy="30.2" r="0.1"/>
<circle fill="none" cx="7.6" cy="30.2" r="0.1"/>
<circle fill="none" cx="0" cy="23" r="0.1"/>
<circle fill="none" cx="0" cy="14.7" r="0.1"/>
<circle fill="none" cx="0" cy="7.3" r="0.1"/>
<circle fill="none" cx="7.7" cy="0" r="0.1"/>
</g></g><rect stroke="none" stroke-width="0" fill="#FFFFFF" x="0" y="0" width="0" height="0" transform="translate(30.1,14.6)"/><path stroke="#000000" fill="none" d=""/><text font-family="OpenSansCondensedLight" font-size="14pt" fill="black" transform="translate(30.1,14.6)"/><rect stroke-width="0" fill="none" width="26" height="25.7" transform="translate(2.1,2.3)"/><text font-family="OpenSansCondensedLight" font-size="14pt" fill="black" text-decoration="none" transform="translate(2.1,2.3)" text-anchor="middle"><tspan x="13" y="19.2">224</tspan></text><path stroke="#000000" fill="none" transform="translate(2.1,2.3)"/></g><g><path stroke="black" stroke-dasharray="none" d="M 233 83 233 18 72 18" fill="none"/><path fill="black" stroke="black" d="M 8 0 L 0 4 L 8 8 z" transform="translate(229,91) scale(1,1) rotate(-90)"/><path fill="black" stroke="black" d="M 8 0 L 0 4 L 8 8 z" transform="translate(64,14) scale(1,1) rotate(0)"/><g><g label-idx="0" cursor="move" transform="translate(185, 18)"><rect fill="white" rx="3" ry="3" x="0" y="0" width="0" height="0"/><text text-anchor="middle" font-size="14pt" font-family="OpenSansCondensedLight" y="0.8em" display="none" xml:space="preserve" transform="translate(0,0)"/></g></g></g><g><path stroke="black" stroke-dasharray="none" d="M 236 138 236 258" fill="none"/><path fill="black" stroke="black" d="M 8 0 L 0 4 L 8 8 z" transform="translate(240,130) scale(1,1) rotate(-270)"/><path fill="black" stroke="black" d="M 8 0 L 0 4 L 8 8 z" transform="translate(232,266) scale(1,1) rotate(-90)"/><g><g label-idx="0" cursor="move" transform="translate(236, 198)"><rect fill="white" rx="3" ry="3" x="0" y="0" width="0" height="0"/><text text-anchor="middle" font-size="14pt" font-family="OpenSansCondensedLight" y="0.8em" display="none" xml:space="preserve" transform="translate(0,0)"/></g></g></g><g><path stroke="black" stroke-dasharray="none" d="M 236 321 236 389" fill="none"/><path fill="black" stroke="black" d="M 8 0 L 0 4 L 8 8 z" transform="translate(240,313) scale(1,1) rotate(-270)"/><path fill="black" stroke="black" d="M 8 0 L 0 4 L 8 8 z" transform="translate(232,397) scale(1,1) rotate(-90)"/><g><g label-idx="0" cursor="move" transform="translate(236, 355)"><rect fill="white" rx="3" ry="3" x="0" y="0" width="0" height="0"/><text text-anchor="middle" font-size="14pt" font-family="OpenSansCondensedLight" y="0.8em" display="none" xml:space="preserve" transform="translate(0,0)"/></g></g></g><g><path stroke="black" stroke-dasharray="none" d="M 180 294 104 294" fill="none"/><path fill="black" stroke="black" d="M 8 0 L 0 4 L 8 8 z" transform="translate(188,298) scale(1,1) rotate(-180)"/><path fill="black" stroke="black" d="M 8 0 L 0 4 L 8 8 z" transform="translate(96,290) scale(1,1) rotate(0)"/><g><g label-idx="0" cursor="move" transform="translate(142, 294)"><rect fill="white" rx="3" ry="3" x="0" y="0" width="0" height="0"/><text text-anchor="middle" font-size="14pt" font-family="OpenSansCondensedLight" y="0.8em" display="none" xml:space="preserve" transform="translate(0,0)"/></g></g></g><g><path stroke="black" stroke-dasharray="none" d="M 288 106 430 106" fill="none"/><path fill="black" stroke="black" d="M 8 0 L 0 4 L 8 8 z" transform="translate(280,102) scale(1,1) rotate(0)"/><path fill="black" stroke="black" d="M 8 0 L 0 4 L 8 8 z" transform="translate(438,110) scale(1,1) rotate(-180)"/><g><g label-idx="0" cursor="move" transform="translate(359, 106)"><rect fill="white" rx="3" ry="3" x="0" y="0" width="0" height="0"/><text text-anchor="middle" font-size="14pt" font-family="OpenSansCondensedLight" y="0.8em" display="none" xml:space="preserve" transform="translate(0,0)"/></g></g></g><g><path stroke="black" stroke-dasharray="none" d="M 501 142 501 163" fill="none"/><path fill="black" stroke="black" d="M 8 0 L 0 4 L 8 8 z" transform="translate(505,134) scale(1,1) rotate(-270)"/><path fill="black" stroke="black" d="M 8 0 L 0 4 L 8 8 z" transform="translate(497,171) scale(1,1) rotate(-90)"/><g><g label-idx="0" cursor="move" transform="translate(501, 152.5)"><rect fill="white" rx="3" ry="3" x="0" y="0" width="0" height="0"/><text text-anchor="middle" font-size="14pt" font-family="OpenSansCondensedLight" y="0.8em" display="none" xml:space="preserve" transform="translate(0,0)"/></g></g></g><g><path stroke="black" stroke-dasharray="none" d="M 501 251 501 276" fill="none"/><path fill="black" stroke="black" d="M 8 0 L 0 4 L 8 8 z" transform="translate(505,243) scale(1,1) rotate(-270)"/><path fill="black" stroke="black" d="M 8 0 L 0 4 L 8 8 z" transform="translate(497,284) scale(1,1) rotate(-90)"/><g><g label-idx="0" cursor="move" transform="translate(501, 263.5)"><rect fill="white" rx="3" ry="3" x="0" y="0" width="0" height="0"/><text text-anchor="middle" font-size="14pt" font-family="OpenSansCondensedLight" y="0.8em" display="none" xml:space="preserve" transform="translate(0,0)"/></g></g></g><g><path stroke="black" stroke-dasharray="none" d="M 501 364 501 394" fill="none"/><path fill="black" stroke="black" d="M 8 0 L 0 4 L 8 8 z" transform="translate(505,356) scale(1,1) rotate(-270)"/><path fill="black" stroke="black" d="M 8 0 L 0 4 L 8 8 z" transform="translate(497,402) scale(1,1) rotate(-90)"/><g><g label-idx="0" cursor="move" transform="translate(501, 379)"><rect fill="white" rx="3" ry="3" x="0" y="0" width="0" height="0"/><text text-anchor="middle" font-size="14pt" font-family="OpenSansCondensedLight" y="0.8em" display="none" xml:space="preserve" transform="translate(0,0)"/></g></g></g><g><path stroke="black" stroke-dasharray="none" d="M 263 440 263 461" fill="none"/><path fill="black" stroke="black" d="M 8 0 L 0 4 L 8 8 z" transform="translate(267,432) scale(1,1) rotate(-270)"/><path fill="black" stroke="black" d="M 8 0 L 0 4 L 8 8 z" transform="translate(259,469) scale(1,1) rotate(-90)"/><g><g label-idx="0" cursor="move" transform="translate(263, 450.5)"><rect fill="white" rx="3" ry="3" x="0" y="0" width="0" height="0"/><text text-anchor="middle" font-size="14pt" font-family="OpenSansCondensedLight" y="0.8em" display="none" xml:space="preserve" transform="translate(0,0)"/></g></g></g><g><path stroke="black" stroke-dasharray="none" d="M 312 440 312 455" fill="none"/><path fill="black" stroke="black" d="M 8 0 L 0 4 L 8 8 z" transform="translate(316,432) scale(1,1) rotate(-270)"/><path fill="black" stroke="black" d="M 8 0 L 0 4 L 8 8 z" transform="translate(308,463) scale(1,1) rotate(-90)"/><g><g label-idx="0" cursor="move" transform="translate(312, 447.5)"><rect fill="white" rx="3" ry="3" x="0" y="0" width="0" height="0"/><text text-anchor="middle" font-size="14pt" font-family="OpenSansCondensedLight" y="0.8em" display="none" xml:space="preserve" transform="translate(0,0)"/></g></g></g><g><path stroke="black" stroke-dasharray="none" d="M 350 440 350 451" fill="none"/><path fill="black" stroke="black" d="M 8 0 L 0 4 L 8 8 z" transform="translate(354,432) scale(1,1) rotate(-270)"/><path fill="black" stroke="black" d="M 8 0 L 0 4 L 8 8 z" transform="translate(346,459) scale(1,1) rotate(-90)"/><g><g label-idx="0" cursor="move" transform="translate(350, 445.5)"><rect fill="white" rx="3" ry="3" x="0" y="0" width="0" height="0"/><text text-anchor="middle" font-size="14pt" font-family="OpenSansCondensedLight" y="0.8em" display="none" xml:space="preserve" transform="translate(0,0)"/></g></g></g><g><path stroke="black" stroke-dasharray="none" d="M 263 583 263 568" fill="none"/><path fill="black" stroke="black" d="M 8 0 L 0 4 L 8 8 z" transform="translate(259,591) scale(1,1) rotate(-90)"/><path fill="black" stroke="black" d="M 8 0 L 0 4 L 8 8 z" transform="translate(267,560) scale(1,1) rotate(-270)"/><g><g label-idx="0" cursor="move" transform="translate(263, 575.5)"><rect fill="white" rx="3" ry="3" x="0" y="0" width="0" height="0"/><text text-anchor="middle" font-size="14pt" font-family="OpenSansCondensedLight" y="0.8em" display="none" xml:space="preserve" transform="translate(0,0)"/></g></g></g><g><path stroke="black" stroke-dasharray="none" d="M 458 666 458 634" fill="none"/><path fill="black" stroke="black" d="M 8 0 L 0 4 L 8 8 z" transform="translate(454,674) scale(1,1) rotate(-90)"/><path fill="black" stroke="black" d="M 8 0 L 0 4 L 8 8 z" transform="translate(462,626) scale(1,1) rotate(-270)"/><g><g label-idx="0" cursor="move" transform="translate(458, 650)"><rect fill="white" rx="3" ry="3" x="0" y="0" width="0" height="0"/><text text-anchor="middle" font-size="14pt" font-family="OpenSansCondensedLight" y="0.8em" display="none" xml:space="preserve" transform="translate(0,0)"/></g></g></g><g><path stroke="black" stroke-dasharray="none" d="M 384 666 384 635" fill="none"/><path fill="black" stroke="black" d="M 8 0 L 0 4 L 8 8 z" transform="translate(380,674) scale(1,1) rotate(-90)"/><path fill="black" stroke="black" d="M 8 0 L 0 4 L 8 8 z" transform="translate(388,627) scale(1,1) rotate(-270)"/><g><g label-idx="0" cursor="move" transform="translate(384, 650.5)"><rect fill="white" rx="3" ry="3" x="0" y="0" width="0" height="0"/><text text-anchor="middle" font-size="14pt" font-family="OpenSansCondensedLight" y="0.8em" display="none" xml:space="preserve" transform="translate(0,0)"/></g></g></g><g><path stroke="black" stroke-dasharray="none" d="M 303 666 303 633" fill="none"/><path fill="black" stroke="black" d="M 8 0 L 0 4 L 8 8 z" transform="translate(299,674) scale(1,1) rotate(-90)"/><path fill="black" stroke="black" d="M 8 0 L 0 4 L 8 8 z" transform="translate(307,625) scale(1,1) rotate(-270)"/><g><g label-idx="0" cursor="move" transform="translate(303, 649.5)"><rect fill="white" rx="3" ry="3" x="0" y="0" width="0" height="0"/><text text-anchor="middle" font-size="14pt" font-family="OpenSansCondensedLight" y="0.8em" display="none" xml:space="preserve" transform="translate(0,0)"/></g></g></g><g><path stroke="black" stroke-dasharray="none" d="M 119 699 211 699" fill="none"/><path fill="black" stroke="black" d="M 8 0 L 0 4 L 8 8 z" transform="translate(111,695) scale(1,1) rotate(0)"/><path fill="black" stroke="black" d="M 8 0 L 0 4 L 8 8 z" transform="translate(219,703) scale(1,1) rotate(-180)"/><g><g label-idx="0" cursor="move" transform="translate(165, 699)"><rect fill="white" rx="3" ry="3" x="0" y="0" width="0" height="0"/><text text-anchor="middle" font-size="14pt" font-family="OpenSansCondensedLight" y="0.8em" display="none" xml:space="preserve" transform="translate(0,0)"/></g></g></g><g><path stroke="black" stroke-dasharray="none" d="M 123 723 212 723" fill="none"/><path fill="black" stroke="black" d="M 8 0 L 0 4 L 8 8 z" transform="translate(115,719) scale(1,1) rotate(0)"/><path fill="black" stroke="black" d="M 8 0 L 0 4 L 8 8 z" transform="translate(220,727) scale(1,1) rotate(-180)"/><g><g label-idx="0" cursor="move" transform="translate(167.5, 723)"><rect fill="white" rx="3" ry="3" x="0" y="0" width="0" height="0"/><text text-anchor="middle" font-size="14pt" font-family="OpenSansCondensedLight" y="0.8em" display="none" xml:space="preserve" transform="translate(0,0)"/></g></g></g><g><path stroke="black" stroke-dasharray="none" d="M 126 751 212 751" fill="none"/><path fill="black" stroke="black" d="M 8 0 L 0 4 L 8 8 z" transform="translate(118,747) scale(1,1) rotate(0)"/><path fill="black" stroke="black" d="M 8 0 L 0 4 L 8 8 z" transform="translate(220,755) scale(1,1) rotate(-180)"/><g><g label-idx="0" cursor="move" transform="translate(169, 751)"><rect fill="white" rx="3" ry="3" x="0" y="0" width="0" height="0"/><text text-anchor="middle" font-size="14pt" font-family="OpenSansCondensedLight" y="0.8em" display="none" xml:space="preserve" transform="translate(0,0)"/></g></g></g></g><defs/></svg>