<svg xmlns="http://www.w3.org/2000/svg" xmlns:xlink="http://www.w3.org/1999/xlink" version="1.1" width="655.1" height="860.1" viewBox="5.9 11.9 655.1 860.1"><g><g transform="translate(6,84)"><g><g>
<path d="M649,0H0v701h649V0L649,0z" stroke="#000000" stroke-dasharray="none" fill="#FFFFFF"/>
<rect x="28.4" y="32" width="592.3" height="637.1" fill="none"/>
<circle fill="none" cx="324.5" cy="0" r="0.1"/>
<circle fill="none" cx="485.3" cy="0" r="0.1"/>
<circle fill="none" cx="649" cy="176.8" r="0.1"/>
<circle fill="none" cx="649" cy="350.5" r="0.1"/>
<circle fill="none" cx="649" cy="524.2" r="0.1"/>
<circle fill="none" cx="485.3" cy="701" r="0.1"/>
<circle fill="none" cx="324.5" cy="701" r="0.1"/>
<circle fill="none" cx="163.7" cy="701" r="0.1"/>
<circle fill="none" cx="0" cy="524.2" r="0.1"/>
<circle fill="none" cx="0" cy="350.5" r="0.1"/>
<circle fill="none" cx="0" cy="176.8" r="0.1"/>
<circle fill="none" cx="163.7" cy="0" r="0.1"/>
</g></g><rect stroke="none" stroke-width="0" fill="#FFFFFF" x="0" y="0" width="0" height="0" transform="translate(648.9,350.4)"/><path stroke="#000000" fill="none" d=""/><text font-family="OpenSansCondensedLight" font-size="14pt" fill="black" transform="translate(648.9,350.4)"/><rect stroke-width="0" fill="none" width="592.3" height="637.1" transform="translate(28.4,32)"/><text font-family="OpenSansCondensedLight" font-size="14pt" fill="black" transform="translate(28.4,32)" text-anchor="middle"><tspan x="296.1" y="16.8">GPCS 204</tspan></text><path stroke="#000000" fill="none" transform="translate(28.4,32)" d="M 307.8 19 335.8 19"/></g><g transform="translate(18,135)"><g><g>
<path d="M266,0H0v45h266V0L266,0z" stroke="#000000" stroke-dasharray="none" fill="#FFFFFF"/>
<rect x="11.6" y="2.1" width="242.8" height="40.9" fill="none"/>
<circle fill="none" cx="133" cy="0" r="0.1"/>
<circle fill="none" cx="198.9" cy="0" r="0.1"/>
<circle fill="none" cx="266" cy="11.3" r="0.1"/>
<circle fill="none" cx="266" cy="22.5" r="0.1"/>
<circle fill="none" cx="266" cy="33.7" r="0.1"/>
<circle fill="none" cx="198.9" cy="45" r="0.1"/>
<circle fill="none" cx="133" cy="45" r="0.1"/>
<circle fill="none" cx="67.1" cy="45" r="0.1"/>
<circle fill="none" cx="0" cy="33.7" r="0.1"/>
<circle fill="none" cx="0" cy="22.5" r="0.1"/>
<circle fill="none" cx="0" cy="11.3" r="0.1"/>
<circle fill="none" cx="67.1" cy="0" r="0.1"/>
</g></g><rect stroke="none" stroke-width="0" fill="#FFFFFF" x="0" y="0" width="0" height="0" transform="translate(265.9,22.4)"/><path stroke="#000000" fill="none" d=""/><text font-family="OpenSansCondensedLight" font-size="14pt" fill="black" transform="translate(265.9,22.4)"/><rect stroke-width="0" fill="none" width="242.8" height="40.9" transform="translate(11.6,2.1)"/><text font-family="OpenSansCondensedLight" font-size="14pt" fill="black" transform="translate(11.6,2.1)" text-anchor="middle"><tspan x="121.4" y="26.7">PIPELINE MANAGER 302</tspan></text><path stroke="#000000" fill="none" transform="translate(11.6,2.1)" d="M 199.6 29 227.6 29"/></g><g transform="translate(91,187)"><g transform="rotate(90,161,198)"><g>
<g fill="#FFFFFF">
    <path d="M307.8,367.7h-15.4c0.4,-0.7,-0.1,27.7,-0.1,27.7H0.2V54.5c0,0,15.7,-0.9,15.4,-0.4V26.8h14.5V0h292.1v340.9h-14.6"/>
</g>
<g stroke="#000000" stroke-dasharray="5,5">
    <path fill="none" d="M30.2,26.8V0h292.1v340.9h-14.6"/>
    <path fill="none" d="M15.7,54.1V26.8h292.1v340.9h-15.4"/>
    <path fill="none" d="M0.2,54.5h292.1v340.9H0.2V54.5z"/>
</g>
<rect x="9.7" y="71.6" fill="none" width="273.6" height="305.5"/>
<circle fill="none" cx="166.1" cy="0.4" r="0.1"/>
<circle fill="none" cx="264.8" cy="0.4" r="0.1"/>
<circle fill="none" cx="322.1" cy="32" r="0.1"/>
<circle fill="none" cx="322.1" cy="153.1" r="0.1"/>
<circle fill="none" cx="322.1" cy="318.6" r="0.1"/>
<circle fill="none" cx="253.3" cy="396" r="0.1"/>
<circle fill="none" cx="137.3" cy="394.9" r="0.1"/>
<circle fill="none" cx="35" cy="394.9" r="0.1"/>
<circle fill="none" cx="0.7" cy="345.1" r="0.1"/>
<circle fill="none" cx="0.7" cy="215.6" r="0.1"/>
<circle fill="none" cx="0.2" cy="112" r="0.1"/>
<circle fill="none" cx="68.6" cy="0.4" r="0.1"/>
</g></g><rect stroke="none" stroke-width="0" fill="#FFFFFF" x="0" y="0" width="0" height="0" transform="translate(358.5,203)"/><path stroke="#000000" fill="none" d=""/><text font-family="OpenSansCondensedLight" font-size="14pt" fill="black" transform="translate(358.5,203)"/><rect stroke-width="0" fill="none" width="305.5" height="273.6" transform="translate(-18,46.7)"/><text font-family="OpenSansCondensedLight" font-size="14pt" fill="black" transform="translate(-18,46.7)" text-anchor="middle"><tspan x="152.7" y="16.8"> </tspan></text><path stroke="#000000" fill="none" transform="translate(-18,46.7)" d="M 0 0"/></g><g transform="translate(48,219)"><g><g>
<path d="M358,0H0v304h358V0L358,0z" stroke="#000000" stroke-dasharray="none" fill="#FFFFFF"/>
<rect x="15.7" y="13.9" width="326.7" height="276.3" fill="none"/>
<circle fill="none" cx="179" cy="0" r="0.1"/>
<circle fill="none" cx="267.7" cy="0" r="0.1"/>
<circle fill="none" cx="358" cy="76.7" r="0.1"/>
<circle fill="none" cx="358" cy="152" r="0.1"/>
<circle fill="none" cx="358" cy="227.3" r="0.1"/>
<circle fill="none" cx="267.7" cy="304" r="0.1"/>
<circle fill="none" cx="179" cy="304" r="0.1"/>
<circle fill="none" cx="90.3" cy="304" r="0.1"/>
<circle fill="none" cx="0" cy="227.3" r="0.1"/>
<circle fill="none" cx="0" cy="152" r="0.1"/>
<circle fill="none" cx="0" cy="76.7" r="0.1"/>
<circle fill="none" cx="90.3" cy="0" r="0.1"/>
</g></g><rect stroke="none" stroke-width="0" fill="#FFFFFF" x="0" y="0" width="0" height="0" transform="translate(357.9,151.9)"/><path stroke="#000000" fill="none" d=""/><text font-family="OpenSansCondensedLight" font-size="14pt" fill="black" transform="translate(357.9,151.9)"/><rect stroke-width="0" fill="none" width="326.7" height="276.3" transform="translate(15.7,13.9)"/><text font-family="OpenSansCondensedLight" font-size="14pt" fill="black" transform="translate(15.7,13.9)" text-anchor="middle"><tspan x="163.4" y="272.1">DPCS 318</tspan></text><path stroke="#000000" fill="none" transform="translate(15.7,13.9)" d="M 175 274 203 274"/></g><g><path stroke="black" stroke-dasharray="none" d="M 204 398 294 398" fill="none"/><path fill="black" stroke="black" d="M 8 0 L 0 4 L 8 8 z" transform="translate(196,394) scale(1,1) rotate(0)"/><path fill="black" stroke="black" d="M 8 0 L 0 4 L 8 8 z" transform="translate(302,402) scale(1,1) rotate(-180)"/><g><g label-idx="0" cursor="move" transform="translate(249, 398)"><rect fill="white" rx="3" ry="3" x="0" y="0" width="0" height="0"/><text text-anchor="middle" font-size="14pt" font-family="OpenSansCondensedLight" y="0.8em" display="none" xml:space="preserve" transform="translate(0,0)"/></g></g></g><g><path stroke="black" stroke-dasharray="none" d="M 204 429 317 429" fill="none"/><path fill="black" stroke="black" d="M 8 0 L 0 4 L 8 8 z" transform="translate(196,425) scale(1,1) rotate(0)"/><path fill="black" stroke="black" d="M 8 0 L 0 4 L 8 8 z" transform="translate(325,433) scale(1,1) rotate(-180)"/><g><g label-idx="0" cursor="move" transform="translate(260.5, 429)"><rect fill="white" rx="3" ry="3" x="0" y="0" width="0" height="0"/><text text-anchor="middle" font-size="14pt" font-family="OpenSansCondensedLight" y="0.8em" display="none" xml:space="preserve" transform="translate(0,0)"/></g></g></g><g transform="translate(82,271)"><g><g>
<path d="M115,0H0v186h115V0L115,0z" stroke="#000000" stroke-dasharray="none" fill="#FFFFFF"/>
<rect x="5" y="8.5" width="104.9" height="169" fill="none"/>
<circle fill="none" cx="57.5" cy="0" r="0.1"/>
<circle fill="none" cx="86" cy="0" r="0.1"/>
<circle fill="none" cx="115" cy="46.9" r="0.1"/>
<circle fill="none" cx="115" cy="93" r="0.1"/>
<circle fill="none" cx="115" cy="139.1" r="0.1"/>
<circle fill="none" cx="86" cy="186" r="0.1"/>
<circle fill="none" cx="57.5" cy="186" r="0.1"/>
<circle fill="none" cx="29" cy="186" r="0.1"/>
<circle fill="none" cx="0" cy="139.1" r="0.1"/>
<circle fill="none" cx="0" cy="93" r="0.1"/>
<circle fill="none" cx="0" cy="46.9" r="0.1"/>
<circle fill="none" cx="29" cy="0" r="0.1"/>
</g></g><rect stroke="none" stroke-width="0" fill="#FFFFFF" x="0" y="0" width="0" height="0" transform="translate(114.9,92.9)"/><path stroke="#000000" fill="none" d=""/><text font-family="OpenSansCondensedLight" font-size="14pt" fill="black" transform="translate(114.9,92.9)"/><rect stroke-width="0" fill="none" width="104.9" height="169" transform="translate(5,8.5)"/><text font-family="OpenSansCondensedLight" font-size="14pt" fill="black" transform="translate(5,8.5)" text-anchor="middle"><tspan x="52.5" y="69.8">PRIMITIVE</tspan><tspan x="52.5" y="90.8">ENGINE</tspan><tspan x="52.5" y="111.8">304</tspan></text><path stroke="#000000" fill="none" transform="translate(5,8.5)" d="M 38.5 114 66.5 114"/></g><g transform="translate(261,372)"><g transform="rotate(90,81,48)"><g>
<g fill="#FFFFFF">
    <path d="M154.8,89.1h-7.7c0.2,-0.2,-0,6.7,-0,6.7H0.1V13.2c0,0,7.9,-0.2,7.8,-0.1V6.5h7.3V0h146.9v82.6h-7.3"/>
</g>
<g stroke="#000000" stroke-dasharray="5,5">
    <path fill="none" d="M15.2,6.5V0h146.9v82.6h-7.3"/>
    <path fill="none" d="M7.9,13.1V6.5h146.9v82.6h-7.7"/>
    <path fill="none" d="M0.1,13.2h146.9v82.6H0.1V13.2z"/>
</g>
<rect x="4.9" y="17.3" fill="none" width="137.6" height="74.1"/>
<circle fill="none" cx="83.5" cy="0.1" r="0.1"/>
<circle fill="none" cx="133.2" cy="0.1" r="0.1"/>
<circle fill="none" cx="162.1" cy="7.8" r="0.1"/>
<circle fill="none" cx="162.1" cy="37.1" r="0.1"/>
<circle fill="none" cx="162.1" cy="77.2" r="0.1"/>
<circle fill="none" cx="127.4" cy="96" r="0.1"/>
<circle fill="none" cx="69.1" cy="95.7" r="0.1"/>
<circle fill="none" cx="17.6" cy="95.7" r="0.1"/>
<circle fill="none" cx="0.4" cy="83.7" r="0.1"/>
<circle fill="none" cx="0.4" cy="52.3" r="0.1"/>
<circle fill="none" cx="0.1" cy="27.2" r="0.1"/>
<circle fill="none" cx="34.5" cy="0.1" r="0.1"/>
</g></g><rect stroke="none" stroke-width="0" fill="#FFFFFF" x="0" y="0" width="0" height="0" transform="translate(128.8,50.4)"/><path stroke="#000000" fill="none" d=""/><text font-family="OpenSansCondensedLight" font-size="14pt" fill="black" transform="translate(128.8,50.4)"/><rect stroke-width="0" fill="none" width="74.1" height="137.6" transform="translate(37.6,-28.1)"/><text font-family="OpenSansCondensedLight" font-size="14pt" fill="black" transform="translate(37.6,-28.1)" text-anchor="middle"><tspan x="37" y="133.4"> </tspan></text><path stroke="#000000" fill="none" transform="translate(37.6,-28.1)" d="M 0 0"/></g><g transform="translate(284,338)"><g><g>
<path d="M93,0H0v152h93V0L93,0z" stroke="#000000" stroke-dasharray="none" fill="#FFFFFF"/>
<rect x="4.1" y="6.9" width="84.9" height="138.1" fill="none"/>
<circle fill="none" cx="46.5" cy="0" r="0.1"/>
<circle fill="none" cx="69.5" cy="0" r="0.1"/>
<circle fill="none" cx="93" cy="38.3" r="0.1"/>
<circle fill="none" cx="93" cy="76" r="0.1"/>
<circle fill="none" cx="93" cy="113.7" r="0.1"/>
<circle fill="none" cx="69.5" cy="152" r="0.1"/>
<circle fill="none" cx="46.5" cy="152" r="0.1"/>
<circle fill="none" cx="23.5" cy="152" r="0.1"/>
<circle fill="none" cx="0" cy="113.7" r="0.1"/>
<circle fill="none" cx="0" cy="76" r="0.1"/>
<circle fill="none" cx="0" cy="38.3" r="0.1"/>
<circle fill="none" cx="23.5" cy="0" r="0.1"/>
</g></g><rect stroke="none" stroke-width="0" fill="#FFFFFF" x="0" y="0" width="0" height="0" transform="translate(92.9,75.9)"/><path stroke="#000000" fill="none" d=""/><text font-family="OpenSansCondensedLight" font-size="14pt" fill="black" transform="translate(92.9,75.9)"/><rect stroke-width="0" fill="none" width="84.9" height="138.1" transform="translate(4.1,6.9)"/><text font-family="OpenSansCondensedLight" font-size="14pt" fill="black" transform="translate(4.1,6.9)" text-anchor="middle"><tspan x="42.4" y="75.4">SM   306</tspan></text><path stroke="#000000" fill="none" transform="translate(4.1,6.9)" d="M 44.3 77 72.2 77"/></g><g transform="translate(283,269)"><g><g>
<path d="M94,0H0v29h94V0L94,0z" stroke="#000000" stroke-dasharray="none" fill="#FFFFFF"/>
<rect x="4.1" y="1.3" width="85.8" height="26.4" fill="none"/>
<circle fill="none" cx="47" cy="0" r="0.1"/>
<circle fill="none" cx="70.3" cy="0" r="0.1"/>
<circle fill="none" cx="94" cy="7.3" r="0.1"/>
<circle fill="none" cx="94" cy="14.5" r="0.1"/>
<circle fill="none" cx="94" cy="21.7" r="0.1"/>
<circle fill="none" cx="70.3" cy="29" r="0.1"/>
<circle fill="none" cx="47" cy="29" r="0.1"/>
<circle fill="none" cx="23.7" cy="29" r="0.1"/>
<circle fill="none" cx="0" cy="21.7" r="0.1"/>
<circle fill="none" cx="0" cy="14.5" r="0.1"/>
<circle fill="none" cx="0" cy="7.3" r="0.1"/>
<circle fill="none" cx="23.7" cy="0" r="0.1"/>
</g></g><rect stroke="none" stroke-width="0" fill="#FFFFFF" x="0" y="0" width="0" height="0" transform="translate(93.9,14.4)"/><path stroke="#000000" fill="none" d=""/><text font-family="OpenSansCondensedLight" font-size="14pt" fill="black" transform="translate(93.9,14.4)"/><rect stroke-width="0" fill="none" width="85.8" height="26.4" transform="translate(4.1,1.3)"/><text font-family="OpenSansCondensedLight" font-size="14pt" fill="black" transform="translate(4.1,1.3)" text-anchor="middle"><tspan x="42.9" y="22.2">MPC 308</tspan></text><path stroke="#000000" fill="none" transform="translate(4.1,1.3)" d="M 50.9 24 78.9 24"/></g><g transform="translate(484,149)"><g><g>
<path d="M125,0H0v54h125V0L125,0z" stroke="#000000" stroke-dasharray="none" fill="#FFFFFF"/>
<rect x="5.5" y="2.5" width="114.1" height="49.1" fill="none"/>
<circle fill="none" cx="62.5" cy="0" r="0.1"/>
<circle fill="none" cx="93.5" cy="0" r="0.1"/>
<circle fill="none" cx="125" cy="13.6" r="0.1"/>
<circle fill="none" cx="125" cy="27" r="0.1"/>
<circle fill="none" cx="125" cy="40.4" r="0.1"/>
<circle fill="none" cx="93.5" cy="54" r="0.1"/>
<circle fill="none" cx="62.5" cy="54" r="0.1"/>
<circle fill="none" cx="31.5" cy="54" r="0.1"/>
<circle fill="none" cx="0" cy="40.4" r="0.1"/>
<circle fill="none" cx="0" cy="27" r="0.1"/>
<circle fill="none" cx="0" cy="13.6" r="0.1"/>
<circle fill="none" cx="31.5" cy="0" r="0.1"/>
</g></g><rect stroke="none" stroke-width="0" fill="#FFFFFF" x="0" y="0" width="0" height="0" transform="translate(124.9,26.9)"/><path stroke="#000000" fill="none" d=""/><text font-family="OpenSansCondensedLight" font-size="14pt" fill="black" transform="translate(124.9,26.9)"/><rect stroke-width="0" fill="none" width="114.1" height="49.1" transform="translate(5.5,2.5)"/><text font-family="OpenSansCondensedLight" font-size="14pt" fill="black" transform="translate(5.5,2.5)" text-anchor="middle"><tspan x="57" y="20.3">PROP UNIT</tspan><tspan x="57" y="41.3">310</tspan></text><path stroke="#000000" fill="none" transform="translate(5.5,2.5)" d="M 43 43 71 43"/></g><g transform="translate(487,260)"><g><g>
<path d="M124,0H0v275h124V0L124,0z" stroke="#000000" stroke-dasharray="none" fill="#FFFFFF"/>
<rect x="5.4" y="12.5" width="113.2" height="249.9" fill="none"/>
<circle fill="none" cx="62" cy="0" r="0.1"/>
<circle fill="none" cx="92.7" cy="0" r="0.1"/>
<circle fill="none" cx="124" cy="69.3" r="0.1"/>
<circle fill="none" cx="124" cy="137.5" r="0.1"/>
<circle fill="none" cx="124" cy="205.6" r="0.1"/>
<circle fill="none" cx="92.7" cy="275" r="0.1"/>
<circle fill="none" cx="62" cy="275" r="0.1"/>
<circle fill="none" cx="31.3" cy="275" r="0.1"/>
<circle fill="none" cx="0" cy="205.6" r="0.1"/>
<circle fill="none" cx="0" cy="137.5" r="0.1"/>
<circle fill="none" cx="0" cy="69.3" r="0.1"/>
<circle fill="none" cx="31.3" cy="0" r="0.1"/>
</g></g><rect stroke="none" stroke-width="0" fill="#FFFFFF" x="0" y="0" width="0" height="0" transform="translate(123.9,137.4)"/><path stroke="#000000" fill="none" d=""/><text font-family="OpenSansCondensedLight" font-size="14pt" fill="black" transform="translate(123.9,137.4)"/><rect stroke-width="0" fill="none" width="113.2" height="249.9" transform="translate(5.4,12.5)"/><text font-family="OpenSansCondensedLight" font-size="14pt" fill="black" transform="translate(5.4,12.5)" text-anchor="middle"><tspan x="56.6" y="120.8">RASTER</tspan><tspan x="56.6" y="141.8">ENGINE 312</tspan></text><path stroke="#000000" fill="none" transform="translate(5.4,12.5)" d="M 79.6 144 107.6 144"/></g><g transform="translate(154,650)"><g><g>
<path d="M458,0H0v49h458V0L458,0z" stroke="#000000" stroke-dasharray="none" fill="#FFFFFF"/>
<rect x="20" y="2.2" width="418" height="44.5" fill="none"/>
<circle fill="none" cx="229" cy="0" r="0.1"/>
<circle fill="none" cx="342.5" cy="0" r="0.1"/>
<circle fill="none" cx="458" cy="12.4" r="0.1"/>
<circle fill="none" cx="458" cy="24.5" r="0.1"/>
<circle fill="none" cx="458" cy="36.6" r="0.1"/>
<circle fill="none" cx="342.5" cy="49" r="0.1"/>
<circle fill="none" cx="229" cy="49" r="0.1"/>
<circle fill="none" cx="115.5" cy="49" r="0.1"/>
<circle fill="none" cx="0" cy="36.6" r="0.1"/>
<circle fill="none" cx="0" cy="24.5" r="0.1"/>
<circle fill="none" cx="0" cy="12.4" r="0.1"/>
<circle fill="none" cx="115.5" cy="0" r="0.1"/>
</g></g><rect stroke="none" stroke-width="0" fill="#FFFFFF" x="0" y="0" width="0" height="0" transform="translate(457.9,24.4)"/><path stroke="#000000" fill="none" d=""/><text font-family="OpenSansCondensedLight" font-size="14pt" fill="black" transform="translate(457.9,24.4)"/><rect stroke-width="0" fill="none" width="418" height="44.5" transform="translate(20,2.2)"/><text font-family="OpenSansCondensedLight" font-size="14pt" fill="black" transform="translate(20,2.2)" text-anchor="middle"><tspan x="209" y="28.6">MMU 314</tspan></text><path stroke="#000000" fill="none" transform="translate(20,2.2)" d="M 220.7 31 248.6 31"/></g><g transform="translate(23,600)"><g><g>
<path d="M74,0H0v76h74V0L74,0z" stroke="#000000" stroke-dasharray="none" fill="#FFFFFF"/>
<rect x="3.2" y="3.5" width="67.5" height="69.1" fill="none"/>
<circle fill="none" cx="37" cy="0" r="0.1"/>
<circle fill="none" cx="55.3" cy="0" r="0.1"/>
<circle fill="none" cx="74" cy="19.2" r="0.1"/>
<circle fill="none" cx="74" cy="38" r="0.1"/>
<circle fill="none" cx="74" cy="56.8" r="0.1"/>
<circle fill="none" cx="55.3" cy="76" r="0.1"/>
<circle fill="none" cx="37" cy="76" r="0.1"/>
<circle fill="none" cx="18.7" cy="76" r="0.1"/>
<circle fill="none" cx="0" cy="56.8" r="0.1"/>
<circle fill="none" cx="0" cy="38" r="0.1"/>
<circle fill="none" cx="0" cy="19.2" r="0.1"/>
<circle fill="none" cx="18.7" cy="0" r="0.1"/>
</g></g><rect stroke="none" stroke-width="0" fill="#FFFFFF" x="0" y="0" width="0" height="0" transform="translate(73.9,37.9)"/><path stroke="#000000" fill="none" d=""/><text font-family="OpenSansCondensedLight" font-size="14pt" fill="black" transform="translate(73.9,37.9)"/><rect stroke-width="0" fill="none" width="67.5" height="69.1" transform="translate(3.2,3.5)"/><text font-family="OpenSansCondensedLight" font-size="14pt" fill="black" transform="translate(3.2,3.5)" text-anchor="middle"><tspan x="33.8" y="30.3">WDX</tspan><tspan x="33.8" y="51.3">316</tspan></text><path stroke="#000000" fill="none" transform="translate(3.2,3.5)" d="M 19.8 53 47.8 53"/></g><g transform="translate(152,234)"><g><g>
<g fill="#FFFFFF">
    <rect y="0" width="124" height="1"/>
</g>
<g stroke="#000000" stroke-dasharray="none">
    <line fill="none" stroke-linejoin="round" x1="0" y1="1" x2="122.6" y2="1"/>
</g>
<rect x="4.9" y="0" fill="none" width="114.3" height="0.9"/>
<circle fill="none" cx="65.9" cy="1" r="0.1"/>
<circle fill="none" cx="86.8" cy="1" r="0.1"/>
<circle fill="none" cx="107.6" cy="1" r="0.1"/>
<circle fill="none" cx="118.1" cy="1" r="0.1"/>
<circle fill="none" cx="97.2" cy="1" r="0.1"/>
<circle fill="none" cx="76.3" cy="1" r="0.1"/>
<circle fill="none" cx="55.4" cy="1" r="0.1"/>
<circle fill="none" cx="34.6" cy="1" r="0.1"/>
<circle fill="none" cx="13.7" cy="1" r="0.1"/>
<circle fill="none" cx="3.3" cy="1" r="0.1"/>
<circle fill="none" cx="24.1" cy="1" r="0.1"/>
<circle fill="none" cx="45" cy="1" r="0.1"/>
</g></g><rect stroke="none" stroke-width="0" fill="#FFFFFF" x="0" y="0" width="0" height="0" transform="translate(76.2,0.9)"/><path stroke="#000000" fill="none" d=""/><text font-family="OpenSansCondensedLight" font-size="14pt" fill="black" transform="translate(76.2,0.9)"/><rect stroke-width="0" fill="none" width="114.3" height="0.9" transform="translate(4.9,0)"/><text font-family="OpenSansCondensedLight" font-size="14pt" fill="black" transform="translate(4.9,0)" text-anchor="middle"><tspan x="57.1" y="6.8"> </tspan></text><path stroke="#000000" fill="none" transform="translate(4.9,0)" d="M 0 0"/></g><g transform="translate(339,815)"><g><g>
<path d="M94,0H0v34h94V0L94,0z" stroke="none" stroke-dasharray="none" fill="#FFFFFF"/>
<rect x="4.1" y="1.6" width="85.8" height="30.9" fill="none"/>
<circle fill="none" cx="47" cy="0" r="0.1"/>
<circle fill="none" cx="70.3" cy="0" r="0.1"/>
<circle fill="none" cx="94" cy="8.6" r="0.1"/>
<circle fill="none" cx="94" cy="17" r="0.1"/>
<circle fill="none" cx="94" cy="25.4" r="0.1"/>
<circle fill="none" cx="70.3" cy="34" r="0.1"/>
<circle fill="none" cx="47" cy="34" r="0.1"/>
<circle fill="none" cx="23.7" cy="34" r="0.1"/>
<circle fill="none" cx="0" cy="25.4" r="0.1"/>
<circle fill="none" cx="0" cy="17" r="0.1"/>
<circle fill="none" cx="0" cy="8.6" r="0.1"/>
<circle fill="none" cx="23.7" cy="0" r="0.1"/>
</g></g><rect stroke="none" stroke-width="0" fill="#FFFFFF" x="0" y="0" width="0" height="0" transform="translate(93.9,16.9)"/><path stroke="#000000" fill="none" d=""/><text font-family="OpenSansCondensedLight" font-size="14pt" fill="black" transform="translate(93.9,16.9)"/><rect stroke-width="0" fill="none" width="85.8" height="30.9" transform="translate(4.1,1.6)"/><text font-family="OpenSansCondensedLight" font-size="14pt" fill="black" transform="translate(4.1,1.6)" text-anchor="middle"><tspan x="42.9" y="16.8">XBAR</tspan><tspan x="42.9" y="37.8">218</tspan></text><path stroke="#000000" fill="none" transform="translate(4.1,1.6)" d="M 28.9 40 56.9 40"/></g><g transform="translate(8,816)"><g><g>
<path d="M94,0H0v29h94V0L94,0z" stroke="none" stroke-dasharray="none" fill="#FFFFFF"/>
<rect x="4.1" y="1.3" width="85.8" height="26.4" fill="none"/>
<circle fill="none" cx="47" cy="0" r="0.1"/>
<circle fill="none" cx="70.3" cy="0" r="0.1"/>
<circle fill="none" cx="94" cy="7.3" r="0.1"/>
<circle fill="none" cx="94" cy="14.5" r="0.1"/>
<circle fill="none" cx="94" cy="21.7" r="0.1"/>
<circle fill="none" cx="70.3" cy="29" r="0.1"/>
<circle fill="none" cx="47" cy="29" r="0.1"/>
<circle fill="none" cx="23.7" cy="29" r="0.1"/>
<circle fill="none" cx="0" cy="21.7" r="0.1"/>
<circle fill="none" cx="0" cy="14.5" r="0.1"/>
<circle fill="none" cx="0" cy="7.3" r="0.1"/>
<circle fill="none" cx="23.7" cy="0" r="0.1"/>
</g></g><rect stroke="none" stroke-width="0" fill="#FFFFFF" x="0" y="0" width="0" height="0" transform="translate(93.9,14.4)"/><path stroke="#000000" fill="none" d=""/><text font-family="OpenSansCondensedLight" font-size="14pt" fill="black" transform="translate(93.9,14.4)"/><rect stroke-width="0" fill="none" width="85.8" height="26.4" transform="translate(4.1,1.3)"/><text font-family="OpenSansCondensedLight" font-size="14pt" fill="black" transform="translate(4.1,1.3)" text-anchor="middle"><tspan x="42.9" y="16.8">XBAR</tspan><tspan x="42.9" y="37.8">218</tspan></text><path stroke="#000000" fill="none" transform="translate(4.1,1.3)" d="M 28.9 40 56.9 40"/></g><g transform="translate(159,12)"><g><g>
<path d="M94,0H0v34h94V0L94,0z" stroke="none" stroke-dasharray="none" fill="#FFFFFF"/>
<rect x="4.1" y="1.6" width="85.8" height="30.9" fill="none"/>
<circle fill="none" cx="47" cy="0" r="0.1"/>
<circle fill="none" cx="70.3" cy="0" r="0.1"/>
<circle fill="none" cx="94" cy="8.6" r="0.1"/>
<circle fill="none" cx="94" cy="17" r="0.1"/>
<circle fill="none" cx="94" cy="25.4" r="0.1"/>
<circle fill="none" cx="70.3" cy="34" r="0.1"/>
<circle fill="none" cx="47" cy="34" r="0.1"/>
<circle fill="none" cx="23.7" cy="34" r="0.1"/>
<circle fill="none" cx="0" cy="25.4" r="0.1"/>
<circle fill="none" cx="0" cy="17" r="0.1"/>
<circle fill="none" cx="0" cy="8.6" r="0.1"/>
<circle fill="none" cx="23.7" cy="0" r="0.1"/>
</g></g><rect stroke="none" stroke-width="0" fill="#FFFFFF" x="0" y="0" width="0" height="0" transform="translate(93.9,16.9)"/><path stroke="#000000" fill="none" d=""/><text font-family="OpenSansCondensedLight" font-size="14pt" fill="black" transform="translate(93.9,16.9)"/><rect stroke-width="0" fill="none" width="85.8" height="30.9" transform="translate(4.1,1.6)"/><text font-family="OpenSansCondensedLight" font-size="14pt" fill="black" transform="translate(4.1,1.6)" text-anchor="middle"><tspan x="42.9" y="16.8">XBAR</tspan><tspan x="42.9" y="37.8">218</tspan></text><path stroke="#000000" fill="none" transform="translate(4.1,1.6)" d="M 28.9 40 56.9 40"/></g><g><path stroke="black" stroke-dasharray="none" d="M 203 54 203 57 203 127" fill="none"/><path fill="black" stroke="black" d="M 8 0 L 0 4 L 8 8 z" transform="translate(207,46) scale(1,1) rotate(-270)"/><path fill="black" stroke="black" d="M 8 0 L 0 4 L 8 8 z" transform="translate(199,135) scale(1,1) rotate(-90)"/><g><g label-idx="0" cursor="move" transform="translate(203, 90.5)"><rect fill="white" rx="3" ry="3" x="0" y="0" width="0" height="0"/><text text-anchor="middle" font-size="14pt" font-family="OpenSansCondensedLight" y="0.8em" display="none" xml:space="preserve" transform="translate(0,0)"/></g></g></g><g><path stroke="black" stroke-dasharray="none" d="M 218 189 218 235" fill="none"/><path fill="black" stroke="black" d="M 8 0 L 0 4 L 8 8 z" transform="translate(222,181) scale(1,1) rotate(-270)"/><path fill="black" stroke="black" d="" transform="translate(218,235) scale(1,1) rotate(-90)"/><g><g label-idx="0" cursor="move" transform="translate(218, 212)"><rect fill="white" rx="3" ry="3" x="0" y="0" width="0" height="0"/><text text-anchor="middle" font-size="14pt" font-family="OpenSansCondensedLight" y="0.8em" display="none" xml:space="preserve" transform="translate(0,0)"/></g></g></g><g><path stroke="black" stroke-dasharray="none" d="M 270 235 331 235 331 261" fill="none"/><path fill="black" stroke="black" d="" transform="translate(270,235) scale(1,1) rotate(0)"/><path fill="black" stroke="black" d="M 8 0 L 0 4 L 8 8 z" transform="translate(327,269) scale(1,1) rotate(-90)"/><g><g label-idx="0" cursor="move" transform="translate(313.5, 235)"><rect fill="white" rx="3" ry="3" x="0" y="0" width="0" height="0"/><text text-anchor="middle" font-size="14pt" font-family="OpenSansCondensedLight" y="0.8em" display="none" xml:space="preserve" transform="translate(0,0)"/></g></g></g><g><path stroke="black" stroke-dasharray="none" d="M 155 235 138 235 138 263" fill="none"/><path fill="black" stroke="black" d="" transform="translate(155,235) scale(1,1) rotate(-180)"/><path fill="black" stroke="black" d="M 8 0 L 0 4 L 8 8 z" transform="translate(134,271) scale(1,1) rotate(-90)"/><g><g label-idx="0" cursor="move" transform="translate(138, 240.5)"><rect fill="white" rx="3" ry="3" x="0" y="0" width="0" height="0"/><text text-anchor="middle" font-size="14pt" font-family="OpenSansCondensedLight" y="0.8em" display="none" xml:space="preserve" transform="translate(0,0)"/></g></g></g><g><path stroke="black" stroke-dasharray="none" d="M 275 286 238 286 207 286" fill="none"/><path fill="black" stroke="black" d="M 8 0 L 0 4 L 8 8 z" transform="translate(283,290) scale(1,1) rotate(-180)"/><path fill="black" stroke="black" d="M 8 0 L 0 4 L 8 8 z" transform="translate(199,282) scale(1,1) rotate(0)"/><g><g label-idx="0" cursor="move" transform="translate(241, 286)"><rect fill="white" rx="3" ry="3" x="0" y="0" width="0" height="0"/><text text-anchor="middle" font-size="14pt" font-family="OpenSansCondensedLight" y="0.8em" display="none" xml:space="preserve" transform="translate(0,0)"/></g></g></g><g><path stroke="black" stroke-dasharray="none" d="M 205 366 225 366 271 366" fill="none"/><path fill="black" stroke="black" d="M 8 0 L 0 4 L 8 8 z" transform="translate(197,362) scale(1,1) rotate(0)"/><path fill="black" stroke="black" d="M 8 0 L 0 4 L 8 8 z" transform="translate(279,370) scale(1,1) rotate(-180)"/><g><g label-idx="0" cursor="move" transform="translate(238, 366)"><rect fill="white" rx="3" ry="3" x="0" y="0" width="0" height="0"/><text text-anchor="middle" font-size="14pt" font-family="OpenSansCondensedLight" y="0.8em" display="none" xml:space="preserve" transform="translate(0,0)"/></g></g></g><g><path stroke="black" stroke-dasharray="none" d="M 416 312 474 312" fill="none"/><path fill="black" stroke="black" d="M 8 0 L 0 4 L 8 8 z" transform="translate(408,308) scale(1,1) rotate(0)"/><path fill="black" stroke="black" d="M 8 0 L 0 4 L 8 8 z" transform="translate(482,316) scale(1,1) rotate(-180)"/><g><g label-idx="0" cursor="move" transform="translate(445, 312)"><rect fill="white" rx="3" ry="3" x="0" y="0" width="0" height="0"/><text text-anchor="middle" font-size="14pt" font-family="OpenSansCondensedLight" y="0.8em" display="none" xml:space="preserve" transform="translate(0,0)"/></g></g></g><g><path stroke="black" stroke-dasharray="none" d="M 475 369 433 369" fill="none"/><path fill="black" stroke="black" d="M 8 0 L 0 4 L 8 8 z" transform="translate(483,373) scale(1,1) rotate(-180)"/><path fill="black" stroke="black" d="M 8 0 L 0 4 L 8 8 z" transform="translate(425,365) scale(1,1) rotate(0)"/><g><g label-idx="0" cursor="move" transform="translate(454, 369)"><rect fill="white" rx="3" ry="3" x="0" y="0" width="0" height="0"/><text text-anchor="middle" font-size="14pt" font-family="OpenSansCondensedLight" y="0.8em" display="none" xml:space="preserve" transform="translate(0,0)"/></g></g></g><g><path stroke="black" stroke-dasharray="none" d="M 478 423 463 423" fill="none"/><path fill="black" stroke="black" d="M 8 0 L 0 4 L 8 8 z" transform="translate(486,427) scale(1,1) rotate(-180)"/><path fill="black" stroke="black" d="M 8 0 L 0 4 L 8 8 z" transform="translate(455,419) scale(1,1) rotate(0)"/><g><g label-idx="0" cursor="move" transform="translate(470.5, 423)"><rect fill="white" rx="3" ry="3" x="0" y="0" width="0" height="0"/><text text-anchor="middle" font-size="14pt" font-family="OpenSansCondensedLight" y="0.8em" display="none" xml:space="preserve" transform="translate(0,0)"/></g></g></g><g><path stroke="black" stroke-dasharray="none" d="M 549 211 549 252" fill="none"/><path fill="black" stroke="black" d="M 8 0 L 0 4 L 8 8 z" transform="translate(553,203) scale(1,1) rotate(-270)"/><path fill="black" stroke="black" d="M 8 0 L 0 4 L 8 8 z" transform="translate(545,260) scale(1,1) rotate(-90)"/><g><g label-idx="0" cursor="move" transform="translate(549, 231.5)"><rect fill="white" rx="3" ry="3" x="0" y="0" width="0" height="0"/><text text-anchor="middle" font-size="14pt" font-family="OpenSansCondensedLight" y="0.8em" display="none" xml:space="preserve" transform="translate(0,0)"/></g></g></g><g><path stroke="black" stroke-dasharray="none" d="M 549 543 549 640" fill="none"/><path fill="black" stroke="black" d="M 8 0 L 0 4 L 8 8 z" transform="translate(553,535) scale(1,1) rotate(-270)"/><path fill="black" stroke="black" d="M 8 0 L 0 4 L 8 8 z" transform="translate(545,648) scale(1,1) rotate(-90)"/><g><g label-idx="0" cursor="move" transform="translate(549, 591.5)"><rect fill="white" rx="3" ry="3" x="0" y="0" width="0" height="0"/><text text-anchor="middle" font-size="14pt" font-family="OpenSansCondensedLight" y="0.8em" display="none" xml:space="preserve" transform="translate(0,0)"/></g></g></g><g><path stroke="black" stroke-dasharray="none" d="M 343 640 343 559" fill="none"/><path fill="black" stroke="black" d="M 8 0 L 0 4 L 8 8 z" transform="translate(339,648) scale(1,1) rotate(-90)"/><path fill="black" stroke="black" d="M 8 0 L 0 4 L 8 8 z" transform="translate(347,551) scale(1,1) rotate(-270)"/><g><g label-idx="0" cursor="move" transform="translate(343, 599.5)"><rect fill="white" rx="3" ry="3" x="0" y="0" width="0" height="0"/><text text-anchor="middle" font-size="14pt" font-family="OpenSansCondensedLight" y="0.8em" display="none" xml:space="preserve" transform="translate(0,0)"/></g></g></g><g><path stroke="black" stroke-dasharray="none" d="M 291 640 291 545" fill="none"/><path fill="black" stroke="black" d="M 8 0 L 0 4 L 8 8 z" transform="translate(287,648) scale(1,1) rotate(-90)"/><path fill="black" stroke="black" d="M 8 0 L 0 4 L 8 8 z" transform="translate(295,537) scale(1,1) rotate(-270)"/><g><g label-idx="0" cursor="move" transform="translate(291, 592.5)"><rect fill="white" rx="3" ry="3" x="0" y="0" width="0" height="0"/><text text-anchor="middle" font-size="14pt" font-family="OpenSansCondensedLight" y="0.8em" display="none" xml:space="preserve" transform="translate(0,0)"/></g></g></g><g><path stroke="black" stroke-dasharray="none" d="M 237 530 237 639" fill="none"/><path fill="black" stroke="black" d="M 8 0 L 0 4 L 8 8 z" transform="translate(241,522) scale(1,1) rotate(-270)"/><path fill="black" stroke="black" d="M 8 0 L 0 4 L 8 8 z" transform="translate(233,647) scale(1,1) rotate(-90)"/><g><g label-idx="0" cursor="move" transform="translate(237, 584.5)"><rect fill="white" rx="3" ry="3" x="0" y="0" width="0" height="0"/><text text-anchor="middle" font-size="14pt" font-family="OpenSansCondensedLight" y="0.8em" display="none" xml:space="preserve" transform="translate(0,0)"/></g></g></g><g><path stroke="black" stroke-dasharray="none" d="M 386 707 386 807" fill="none"/><path fill="black" stroke="black" d="M 8 0 L 0 4 L 8 8 z" transform="translate(390,699) scale(1,1) rotate(-270)"/><path fill="black" stroke="black" d="M 8 0 L 0 4 L 8 8 z" transform="translate(382,815) scale(1,1) rotate(-90)"/><g><g label-idx="0" cursor="move" transform="translate(386, 757)"><rect fill="white" rx="3" ry="3" x="0" y="0" width="0" height="0"/><text text-anchor="middle" font-size="14pt" font-family="OpenSansCondensedLight" y="0.8em" display="none" xml:space="preserve" transform="translate(0,0)"/></g></g></g><g><path stroke="black" stroke-dasharray="none" d="M 55 686 55 808" fill="none"/><path fill="black" stroke="black" d="M 8 0 L 0 4 L 8 8 z" transform="translate(59,678) scale(1,1) rotate(-270)"/><path fill="black" stroke="black" d="M 8 0 L 0 4 L 8 8 z" transform="translate(51,816) scale(1,1) rotate(-90)"/><g><g label-idx="0" cursor="move" transform="translate(55, 747)"><rect fill="white" rx="3" ry="3" x="0" y="0" width="0" height="0"/><text text-anchor="middle" font-size="14pt" font-family="OpenSansCondensedLight" y="0.8em" display="none" xml:space="preserve" transform="translate(0,0)"/></g></g></g><g><path stroke="black" stroke-dasharray="none" d="M 34 589 34 190" fill="none"/><path fill="black" stroke="black" d="M 8 0 L 0 4 L 8 8 z" transform="translate(30,597) scale(1,1) rotate(-90)"/><path fill="black" stroke="black" d="M 8 0 L 0 4 L 8 8 z" transform="translate(38,182) scale(1,1) rotate(-270)"/><g><g label-idx="0" cursor="move" transform="translate(34, 389.5)"><rect fill="white" rx="3" ry="3" x="0" y="0" width="0" height="0"/><text text-anchor="middle" font-size="14pt" font-family="OpenSansCondensedLight" y="0.8em" display="none" xml:space="preserve" transform="translate(0,0)"/></g></g></g></g><defs/></svg>