<svg xmlns="http://www.w3.org/2000/svg" xmlns:xlink="http://www.w3.org/1999/xlink" version="1.1" width="659.1" height="845" viewBox="54.9 9.9 659.1 845"><g><g transform="translate(55,70)"><g><g>
<path d="M465,0H0v660h465V0L465,0z" stroke="#000000" stroke-dasharray="none" fill="#FFFFFF"/>
<rect x="20.3" y="30.1" width="424.4" height="599.8" fill="none"/>
<circle fill="none" cx="232.5" cy="0" r="0.1"/>
<circle fill="none" cx="347.7" cy="0" r="0.1"/>
<circle fill="none" cx="465" cy="166.4" r="0.1"/>
<circle fill="none" cx="465" cy="330" r="0.1"/>
<circle fill="none" cx="465" cy="493.6" r="0.1"/>
<circle fill="none" cx="347.7" cy="660" r="0.1"/>
<circle fill="none" cx="232.5" cy="660" r="0.1"/>
<circle fill="none" cx="117.3" cy="660" r="0.1"/>
<circle fill="none" cx="0" cy="493.6" r="0.1"/>
<circle fill="none" cx="0" cy="330" r="0.1"/>
<circle fill="none" cx="0" cy="166.4" r="0.1"/>
<circle fill="none" cx="117.3" cy="0" r="0.1"/>
</g></g><rect stroke="none" stroke-width="0" fill="#FFFFFF" x="0" y="0" width="0" height="0" transform="translate(464.9,329.9)"/><path stroke="#000000" fill="none" d=""/><text font-family="OpenSansCondensedLight" font-size="14pt" fill="black" transform="translate(464.9,329.9)"/><rect stroke-width="0" fill="none" width="424.4" height="599.8" transform="translate(20.3,30.1)"/><text font-family="OpenSansCondensedLight" font-size="14pt" fill="black" transform="translate(20.3,30.1)" text-anchor="middle"><tspan x="212.2" y="16.8">MEMORY PARTITION UNIT 220</tspan></text><path stroke="#000000" fill="none" transform="translate(20.3,30.1)" d="M 316.8 19 344.8 19"/></g><g transform="translate(68,155)"><g><g>
<path d="M222,0H0v208h222V0L222,0z" stroke="#000000" stroke-dasharray="none" fill="#FFFFFF"/>
<rect x="9.7" y="9.5" width="202.6" height="189" fill="none"/>
<circle fill="none" cx="111" cy="0" r="0.1"/>
<circle fill="none" cx="166" cy="0" r="0.1"/>
<circle fill="none" cx="222" cy="52.5" r="0.1"/>
<circle fill="none" cx="222" cy="104" r="0.1"/>
<circle fill="none" cx="222" cy="155.5" r="0.1"/>
<circle fill="none" cx="166" cy="208" r="0.1"/>
<circle fill="none" cx="111" cy="208" r="0.1"/>
<circle fill="none" cx="56" cy="208" r="0.1"/>
<circle fill="none" cx="0" cy="155.5" r="0.1"/>
<circle fill="none" cx="0" cy="104" r="0.1"/>
<circle fill="none" cx="0" cy="52.5" r="0.1"/>
<circle fill="none" cx="56" cy="0" r="0.1"/>
</g></g><rect stroke="none" stroke-width="0" fill="#FFFFFF" x="0" y="0" width="0" height="0" transform="translate(221.9,103.9)"/><path stroke="#000000" fill="none" d=""/><text font-family="OpenSansCondensedLight" font-size="14pt" fill="black" transform="translate(221.9,103.9)"/><rect stroke-width="0" fill="none" width="202.6" height="189" transform="translate(9.7,9.5)"/><text font-family="OpenSansCondensedLight" font-size="14pt" fill="black" transform="translate(9.7,9.5)" text-anchor="middle"><tspan x="101.3" y="100.8">ROP UNIT 402</tspan></text><path stroke="#000000" fill="none" transform="translate(9.7,9.5)" d="M 132.4 103 160.4 103"/></g><g transform="translate(68,418)"><g><g>
<path d="M223,0H0v59h223V0L223,0z" stroke="#000000" stroke-dasharray="none" fill="#FFFFFF"/>
<rect x="9.8" y="2.7" width="203.5" height="53.6" fill="none"/>
<circle fill="none" cx="111.5" cy="0" r="0.1"/>
<circle fill="none" cx="166.8" cy="0" r="0.1"/>
<circle fill="none" cx="223" cy="14.9" r="0.1"/>
<circle fill="none" cx="223" cy="29.5" r="0.1"/>
<circle fill="none" cx="223" cy="44.1" r="0.1"/>
<circle fill="none" cx="166.8" cy="59" r="0.1"/>
<circle fill="none" cx="111.5" cy="59" r="0.1"/>
<circle fill="none" cx="56.3" cy="59" r="0.1"/>
<circle fill="none" cx="0" cy="44.1" r="0.1"/>
<circle fill="none" cx="0" cy="29.5" r="0.1"/>
<circle fill="none" cx="0" cy="14.9" r="0.1"/>
<circle fill="none" cx="56.3" cy="0" r="0.1"/>
</g></g><rect stroke="none" stroke-width="0" fill="#FFFFFF" x="0" y="0" width="0" height="0" transform="translate(222.9,29.4)"/><path stroke="#000000" fill="none" d=""/><text font-family="OpenSansCondensedLight" font-size="14pt" fill="black" transform="translate(222.9,29.4)"/><rect stroke-width="0" fill="none" width="203.5" height="53.6" transform="translate(9.8,2.7)"/><text font-family="OpenSansCondensedLight" font-size="14pt" fill="black" transform="translate(9.8,2.7)" text-anchor="middle"><tspan x="101.8" y="33.1">L2 CACHE 404</tspan></text><path stroke="#000000" fill="none" transform="translate(9.8,2.7)" d="M 134.4 35 162.4 35"/></g><g transform="translate(68,539)"><g><g>
<path d="M223,0H0v59h223V0L223,0z" stroke="#000000" stroke-dasharray="none" fill="#FFFFFF"/>
<rect x="9.8" y="2.7" width="203.5" height="53.6" fill="none"/>
<circle fill="none" cx="111.5" cy="0" r="0.1"/>
<circle fill="none" cx="166.8" cy="0" r="0.1"/>
<circle fill="none" cx="223" cy="14.9" r="0.1"/>
<circle fill="none" cx="223" cy="29.5" r="0.1"/>
<circle fill="none" cx="223" cy="44.1" r="0.1"/>
<circle fill="none" cx="166.8" cy="59" r="0.1"/>
<circle fill="none" cx="111.5" cy="59" r="0.1"/>
<circle fill="none" cx="56.3" cy="59" r="0.1"/>
<circle fill="none" cx="0" cy="44.1" r="0.1"/>
<circle fill="none" cx="0" cy="29.5" r="0.1"/>
<circle fill="none" cx="0" cy="14.9" r="0.1"/>
<circle fill="none" cx="56.3" cy="0" r="0.1"/>
</g></g><rect stroke="none" stroke-width="0" fill="#FFFFFF" x="0" y="0" width="0" height="0" transform="translate(222.9,29.4)"/><path stroke="#000000" fill="none" d=""/><text font-family="OpenSansCondensedLight" font-size="14pt" fill="black" transform="translate(222.9,29.4)"/><rect stroke-width="0" fill="none" width="203.5" height="53.6" transform="translate(9.8,2.7)"/><text font-family="OpenSansCondensedLight" font-size="14pt" fill="black" transform="translate(9.8,2.7)" text-anchor="middle"><tspan x="101.8" y="22.6">MEMORY INTERFACE</tspan><tspan x="101.8" y="43.6">406</tspan></text><path stroke="#000000" fill="none" transform="translate(9.8,2.7)" d="M 87.8 46 115.7 46"/></g><g transform="translate(565,433)"><g><g>
<path d="M94,0H0v34h94V0L94,0z" stroke="none" stroke-dasharray="none" fill="#FFFFFF"/>
<rect x="4.1" y="1.6" width="85.8" height="30.9" fill="none"/>
<circle fill="none" cx="47" cy="0" r="0.1"/>
<circle fill="none" cx="70.3" cy="0" r="0.1"/>
<circle fill="none" cx="94" cy="8.6" r="0.1"/>
<circle fill="none" cx="94" cy="17" r="0.1"/>
<circle fill="none" cx="94" cy="25.4" r="0.1"/>
<circle fill="none" cx="70.3" cy="34" r="0.1"/>
<circle fill="none" cx="47" cy="34" r="0.1"/>
<circle fill="none" cx="23.7" cy="34" r="0.1"/>
<circle fill="none" cx="0" cy="25.4" r="0.1"/>
<circle fill="none" cx="0" cy="17" r="0.1"/>
<circle fill="none" cx="0" cy="8.6" r="0.1"/>
<circle fill="none" cx="23.7" cy="0" r="0.1"/>
</g></g><rect stroke="none" stroke-width="0" fill="#FFFFFF" x="0" y="0" width="0" height="0" transform="translate(93.9,16.9)"/><path stroke="#000000" fill="none" d=""/><text font-family="OpenSansCondensedLight" font-size="14pt" fill="black" transform="translate(93.9,16.9)"/><rect stroke-width="0" fill="none" width="85.8" height="30.9" transform="translate(4.1,1.6)"/><text font-family="OpenSansCondensedLight" font-size="14pt" fill="black" transform="translate(4.1,1.6)" text-anchor="middle"><tspan x="42.9" y="16.8">XBAR</tspan><tspan x="42.9" y="37.8">218</tspan></text><path stroke="#000000" fill="none" transform="translate(4.1,1.6)" d="M 28.9 40 56.9 40"/></g><g transform="translate(135,10)"><g><g>
<path d="M94,0H0v34h94V0L94,0z" stroke="none" stroke-dasharray="none" fill="#FFFFFF"/>
<rect x="4.1" y="1.6" width="85.8" height="30.9" fill="none"/>
<circle fill="none" cx="47" cy="0" r="0.1"/>
<circle fill="none" cx="70.3" cy="0" r="0.1"/>
<circle fill="none" cx="94" cy="8.6" r="0.1"/>
<circle fill="none" cx="94" cy="17" r="0.1"/>
<circle fill="none" cx="94" cy="25.4" r="0.1"/>
<circle fill="none" cx="70.3" cy="34" r="0.1"/>
<circle fill="none" cx="47" cy="34" r="0.1"/>
<circle fill="none" cx="23.7" cy="34" r="0.1"/>
<circle fill="none" cx="0" cy="25.4" r="0.1"/>
<circle fill="none" cx="0" cy="17" r="0.1"/>
<circle fill="none" cx="0" cy="8.6" r="0.1"/>
<circle fill="none" cx="23.7" cy="0" r="0.1"/>
</g></g><rect stroke="none" stroke-width="0" fill="#FFFFFF" x="0" y="0" width="0" height="0" transform="translate(93.9,16.9)"/><path stroke="#000000" fill="none" d=""/><text font-family="OpenSansCondensedLight" font-size="14pt" fill="black" transform="translate(93.9,16.9)"/><rect stroke-width="0" fill="none" width="85.8" height="30.9" transform="translate(4.1,1.6)"/><text font-family="OpenSansCondensedLight" font-size="14pt" fill="black" transform="translate(4.1,1.6)" text-anchor="middle"><tspan x="42.9" y="16.8">XBAR</tspan><tspan x="42.9" y="37.8">218</tspan></text><path stroke="#000000" fill="none" transform="translate(4.1,1.6)" d="M 28.9 40 56.9 40"/></g><g transform="translate(113,779)"><g><g>
<path d="M131.6,0H0v47.6h131.6V0L131.6,0z" stroke="none" stroke-dasharray="none" fill="#FFFFFF"/>
<rect x="5.8" y="2.2" width="120.1" height="43.3" fill="none"/>
<circle fill="none" cx="65.8" cy="0" r="0.1"/>
<circle fill="none" cx="98.4" cy="0" r="0.1"/>
<circle fill="none" cx="131.6" cy="12" r="0.1"/>
<circle fill="none" cx="131.6" cy="23.8" r="0.1"/>
<circle fill="none" cx="131.6" cy="35.6" r="0.1"/>
<circle fill="none" cx="98.4" cy="47.6" r="0.1"/>
<circle fill="none" cx="65.8" cy="47.6" r="0.1"/>
<circle fill="none" cx="33.2" cy="47.6" r="0.1"/>
<circle fill="none" cx="0" cy="35.6" r="0.1"/>
<circle fill="none" cx="0" cy="23.8" r="0.1"/>
<circle fill="none" cx="0" cy="12" r="0.1"/>
<circle fill="none" cx="33.2" cy="0" r="0.1"/>
</g></g><rect stroke="none" stroke-width="0" fill="#FFFFFF" x="0" y="0" width="0" height="0" transform="translate(131.5,23.7)"/><path stroke="#000000" fill="none" d=""/><text font-family="OpenSansCondensedLight" font-size="14pt" fill="black" transform="translate(131.5,23.7)"/><rect stroke-width="0" fill="none" width="120.1" height="43.3" transform="translate(5.8,2.2)"/><text font-family="OpenSansCondensedLight" font-size="14pt" fill="black" transform="translate(5.8,2.2)" text-anchor="middle"><tspan x="60" y="16.8">MEMORY</tspan><tspan x="60" y="37.8">DEVICES</tspan><tspan x="60" y="58.8">222</tspan></text><path stroke="#000000" fill="none" transform="translate(5.8,2.2)" d="M 46.1 61 74 61"/></g><g><path stroke="black" stroke-dasharray="none" d="M 179 371 179 410" fill="none"/><path fill="black" stroke="black" d="M 8 0 L 0 4 L 8 8 z" transform="translate(183,363) scale(1,1) rotate(-270)"/><path fill="black" stroke="black" d="M 8 0 L 0 4 L 8 8 z" transform="translate(175,418) scale(1,1) rotate(-90)"/><g><g label-idx="0" cursor="move" transform="translate(179, 390.5)"><rect fill="white" rx="3" ry="3" x="0" y="0" width="0" height="0"/><text text-anchor="middle" font-size="14pt" font-family="OpenSansCondensedLight" y="0.8em" display="none" xml:space="preserve" transform="translate(0,0)"/></g></g></g><g><path stroke="black" stroke-dasharray="none" d="M 179 485 179 531" fill="none"/><path fill="black" stroke="black" d="M 8 0 L 0 4 L 8 8 z" transform="translate(183,477) scale(1,1) rotate(-270)"/><path fill="black" stroke="black" d="M 8 0 L 0 4 L 8 8 z" transform="translate(175,539) scale(1,1) rotate(-90)"/><g><g label-idx="0" cursor="move" transform="translate(179, 508)"><rect fill="white" rx="3" ry="3" x="0" y="0" width="0" height="0"/><text text-anchor="middle" font-size="14pt" font-family="OpenSansCondensedLight" y="0.8em" display="none" xml:space="preserve" transform="translate(0,0)"/></g></g></g><g><path stroke="black" stroke-dasharray="none" d="M 179 606 179 771" fill="none"/><path fill="black" stroke="black" d="M 8 0 L 0 4 L 8 8 z" transform="translate(183,598) scale(1,1) rotate(-270)"/><path fill="black" stroke="black" d="M 8 0 L 0 4 L 8 8 z" transform="translate(175,779) scale(1,1) rotate(-90)"/><g><g label-idx="0" cursor="move" transform="translate(179, 688.5)"><rect fill="white" rx="3" ry="3" x="0" y="0" width="0" height="0"/><text text-anchor="middle" font-size="14pt" font-family="OpenSansCondensedLight" y="0.8em" display="none" xml:space="preserve" transform="translate(0,0)"/></g></g></g><g><path stroke="black" stroke-dasharray="none" d="M 179 52 179 147" fill="none"/><path fill="black" stroke="black" d="M 8 0 L 0 4 L 8 8 z" transform="translate(183,44) scale(1,1) rotate(-270)"/><path fill="black" stroke="black" d="M 8 0 L 0 4 L 8 8 z" transform="translate(175,155) scale(1,1) rotate(-90)"/><g><g label-idx="0" cursor="move" transform="translate(179, 99.5)"><rect fill="white" rx="3" ry="3" x="0" y="0" width="0" height="0"/><text text-anchor="middle" font-size="14pt" font-family="OpenSansCondensedLight" y="0.8em" display="none" xml:space="preserve" transform="translate(0,0)"/></g></g></g><g><path stroke="black" stroke-dasharray="none" d="M 299 450 557 450" fill="none"/><path fill="black" stroke="black" d="M 8 0 L 0 4 L 8 8 z" transform="translate(291,446) scale(1,1) rotate(0)"/><path fill="black" stroke="black" d="M 8 0 L 0 4 L 8 8 z" transform="translate(565,454) scale(1,1) rotate(-180)"/><g><g label-idx="0" cursor="move" transform="translate(428, 450)"><rect fill="white" rx="3" ry="3" x="0" y="0" width="0" height="0"/><text text-anchor="middle" font-size="14pt" font-family="OpenSansCondensedLight" y="0.8em" display="none" xml:space="preserve" transform="translate(0,0)"/></g></g></g></g><defs/></svg>