<svg xmlns="http://www.w3.org/2000/svg" xmlns:xlink="http://www.w3.org/1999/xlink" version="1.1" width="642.1" height="836.1" viewBox="15.9 16.9 642.1 836.1"><g><g transform="translate(16,17)"><g><g>
<path d="M626,0H0v819h626V0L626,0z" stroke="#000000" stroke-dasharray="none" fill="#FFFFFF"/>
<rect x="27.4" y="37.3" width="571.3" height="744.3" fill="none"/>
<circle fill="none" cx="313" cy="0" r="0.1"/>
<circle fill="none" cx="468.1" cy="0" r="0.1"/>
<circle fill="none" cx="626" cy="206.5" r="0.1"/>
<circle fill="none" cx="626" cy="409.5" r="0.1"/>
<circle fill="none" cx="626" cy="612.5" r="0.1"/>
<circle fill="none" cx="468.1" cy="819" r="0.1"/>
<circle fill="none" cx="313" cy="819" r="0.1"/>
<circle fill="none" cx="157.9" cy="819" r="0.1"/>
<circle fill="none" cx="0" cy="612.5" r="0.1"/>
<circle fill="none" cx="0" cy="409.5" r="0.1"/>
<circle fill="none" cx="0" cy="206.5" r="0.1"/>
<circle fill="none" cx="157.9" cy="0" r="0.1"/>
</g></g><rect stroke="none" stroke-width="0" fill="#FFFFFF" x="0" y="0" width="0" height="0" transform="translate(625.9,409.4)"/><path stroke="#000000" fill="none" d=""/><text font-family="OpenSansCondensedLight" font-size="14pt" fill="black" transform="translate(625.9,409.4)"/><rect stroke-width="0" fill="none" width="571.3" height="744.3" transform="translate(27.4,37.3)"/><text font-family="OpenSansCondensedLight" font-size="14pt" fill="black" transform="translate(27.4,37.3)" text-anchor="middle"><tspan x="285.6" y="16.8">SM   306</tspan></text><path stroke="#000000" fill="none" transform="translate(27.4,37.3)" d="M 287.5 19 315.5 19"/></g><g transform="translate(62,82)"><g><g>
<path d="M470,0H0v77h470V0L470,0z" stroke="#000000" stroke-dasharray="none" fill="#FFFFFF"/>
<rect x="20.6" y="3.5" width="428.9" height="70" fill="none"/>
<circle fill="none" cx="235" cy="0" r="0.1"/>
<circle fill="none" cx="351.5" cy="0" r="0.1"/>
<circle fill="none" cx="470" cy="19.4" r="0.1"/>
<circle fill="none" cx="470" cy="38.5" r="0.1"/>
<circle fill="none" cx="470" cy="57.6" r="0.1"/>
<circle fill="none" cx="351.5" cy="77" r="0.1"/>
<circle fill="none" cx="235" cy="77" r="0.1"/>
<circle fill="none" cx="118.6" cy="77" r="0.1"/>
<circle fill="none" cx="0" cy="57.6" r="0.1"/>
<circle fill="none" cx="0" cy="38.5" r="0.1"/>
<circle fill="none" cx="0" cy="19.4" r="0.1"/>
<circle fill="none" cx="118.6" cy="0" r="0.1"/>
</g></g><rect stroke="none" stroke-width="0" fill="#FFFFFF" x="0" y="0" width="0" height="0" transform="translate(469.9,38.4)"/><path stroke="#000000" fill="none" d=""/><text font-family="OpenSansCondensedLight" font-size="14pt" fill="black" transform="translate(469.9,38.4)"/><rect stroke-width="0" fill="none" width="428.9" height="70" transform="translate(20.6,3.5)"/><text font-family="OpenSansCondensedLight" font-size="14pt" fill="black" transform="translate(20.6,3.5)" text-anchor="middle"><tspan x="214.5" y="41.3">INSTRUCTION CACHE 502</tspan></text><path stroke="#000000" fill="none" transform="translate(20.6,3.5)" d="M 298.9 43 326.9 43"/></g><g transform="translate(277,2)"><g transform="rotate(90,56.5,261)"><g>
<g fill="#FFFFFF">
    <path d="M108,484.7h-5.4c0.1,-0.9,-0,36.5,-0,36.5H0.1V71.8c0,0,5.5,-1.2,5.4,-0.5V35.3h5.1V0h102.5v449.3h-5.1"/>
</g>
<g stroke="#000000" stroke-dasharray="5,5">
    <path fill="none" d="M10.6,35.3V0h102.5v449.3h-5.1"/>
    <path fill="none" d="M5.5,71.4V35.3h102.5v449.3h-5.4"/>
    <path fill="none" d="M0.1,71.8h102.5v449.3H0.1V71.8z"/>
</g>
<rect x="3.4" y="94.3" fill="none" width="96" height="402.7"/>
<circle fill="none" cx="58.3" cy="0.6" r="0.1"/>
<circle fill="none" cx="92.9" cy="0.6" r="0.1"/>
<circle fill="none" cx="113" cy="42.2" r="0.1"/>
<circle fill="none" cx="113" cy="201.8" r="0.1"/>
<circle fill="none" cx="113" cy="420" r="0.1"/>
<circle fill="none" cx="88.9" cy="522" r="0.1"/>
<circle fill="none" cx="48.2" cy="520.6" r="0.1"/>
<circle fill="none" cx="12.3" cy="520.6" r="0.1"/>
<circle fill="none" cx="0.3" cy="454.9" r="0.1"/>
<circle fill="none" cx="0.3" cy="284.2" r="0.1"/>
<circle fill="none" cx="0.1" cy="147.7" r="0.1"/>
<circle fill="none" cx="24.1" cy="0.6" r="0.1"/>
</g></g><rect stroke="none" stroke-width="0" fill="#FFFFFF" x="0" y="0" width="0" height="0" transform="translate(316.8,262.7)"/><path stroke="#000000" fill="none" d=""/><text font-family="OpenSansCondensedLight" font-size="14pt" fill="black" transform="translate(316.8,262.7)"/><rect stroke-width="0" fill="none" width="402.7" height="96" transform="translate(-179.5,207.9)"/><text font-family="OpenSansCondensedLight" font-size="14pt" fill="black" transform="translate(-179.5,207.9)" text-anchor="middle"><tspan x="201.3" y="54.3"> </tspan></text><path stroke="#000000" fill="none" transform="translate(-179.5,207.9)" d="M 0 0"/></g><g transform="translate(67,202)"><g><g>
<path d="M469,0H0v111h469V0L469,0z" stroke="#000000" stroke-dasharray="none" fill="#FFFFFF"/>
<rect x="20.5" y="5.1" width="428" height="100.9" fill="none"/>
<circle fill="none" cx="234.5" cy="0" r="0.1"/>
<circle fill="none" cx="350.7" cy="0" r="0.1"/>
<circle fill="none" cx="469" cy="28" r="0.1"/>
<circle fill="none" cx="469" cy="55.5" r="0.1"/>
<circle fill="none" cx="469" cy="83" r="0.1"/>
<circle fill="none" cx="350.7" cy="111" r="0.1"/>
<circle fill="none" cx="234.5" cy="111" r="0.1"/>
<circle fill="none" cx="118.3" cy="111" r="0.1"/>
<circle fill="none" cx="0" cy="83" r="0.1"/>
<circle fill="none" cx="0" cy="55.5" r="0.1"/>
<circle fill="none" cx="0" cy="28" r="0.1"/>
<circle fill="none" cx="118.3" cy="0" r="0.1"/>
</g></g><rect stroke="none" stroke-width="0" fill="#FFFFFF" x="0" y="0" width="0" height="0" transform="translate(468.9,55.4)"/><path stroke="#000000" fill="none" d=""/><text font-family="OpenSansCondensedLight" font-size="14pt" fill="black" transform="translate(468.9,55.4)"/><rect stroke-width="0" fill="none" width="428" height="100.9" transform="translate(20.5,5.1)"/><text font-family="OpenSansCondensedLight" font-size="14pt" fill="black" transform="translate(20.5,5.1)" text-anchor="middle"><tspan x="214" y="16.8">SCHEDULER UNITS 214</tspan></text><path stroke="#000000" fill="none" transform="translate(20.5,5.1)" d="M 287.1 19 315.1 19"/></g><g transform="translate(233,247)"><g><g>
<path d="M151,0H0v34h151V0L151,0z" stroke="#000000" stroke-dasharray="none" fill="#FFFFFF"/>
<rect x="6.6" y="1.6" width="137.8" height="30.9" fill="none"/>
<circle fill="none" cx="75.5" cy="0" r="0.1"/>
<circle fill="none" cx="112.9" cy="0" r="0.1"/>
<circle fill="none" cx="151" cy="8.6" r="0.1"/>
<circle fill="none" cx="151" cy="17" r="0.1"/>
<circle fill="none" cx="151" cy="25.4" r="0.1"/>
<circle fill="none" cx="112.9" cy="34" r="0.1"/>
<circle fill="none" cx="75.5" cy="34" r="0.1"/>
<circle fill="none" cx="38.1" cy="34" r="0.1"/>
<circle fill="none" cx="0" cy="25.4" r="0.1"/>
<circle fill="none" cx="0" cy="17" r="0.1"/>
<circle fill="none" cx="0" cy="8.6" r="0.1"/>
<circle fill="none" cx="38.1" cy="0" r="0.1"/>
</g></g><rect stroke="none" stroke-width="0" fill="#FFFFFF" x="0" y="0" width="0" height="0" transform="translate(150.9,16.9)"/><path stroke="#000000" fill="none" d=""/><text font-family="OpenSansCondensedLight" font-size="14pt" fill="black" transform="translate(150.9,16.9)"/><rect stroke-width="0" fill="none" width="137.8" height="30.9" transform="translate(6.6,1.6)"/><text font-family="OpenSansCondensedLight" font-size="14pt" fill="black" transform="translate(6.6,1.6)" text-anchor="middle"><tspan x="68.9" y="16.8">DISPATCH UNIT</tspan><tspan x="68.9" y="37.8">504</tspan></text><path stroke="#000000" fill="none" transform="translate(6.6,1.6)" d="M 54.9 40 82.9 40"/></g><g transform="translate(65,371)"><g><g>
<path d="M469,0H0v76h469V0L469,0z" stroke="#000000" stroke-dasharray="none" fill="#FFFFFF"/>
<rect x="20.5" y="3.5" width="428" height="69.1" fill="none"/>
<circle fill="none" cx="234.5" cy="0" r="0.1"/>
<circle fill="none" cx="350.7" cy="0" r="0.1"/>
<circle fill="none" cx="469" cy="19.2" r="0.1"/>
<circle fill="none" cx="469" cy="38" r="0.1"/>
<circle fill="none" cx="469" cy="56.8" r="0.1"/>
<circle fill="none" cx="350.7" cy="76" r="0.1"/>
<circle fill="none" cx="234.5" cy="76" r="0.1"/>
<circle fill="none" cx="118.3" cy="76" r="0.1"/>
<circle fill="none" cx="0" cy="56.8" r="0.1"/>
<circle fill="none" cx="0" cy="38" r="0.1"/>
<circle fill="none" cx="0" cy="19.2" r="0.1"/>
<circle fill="none" cx="118.3" cy="0" r="0.1"/>
</g></g><rect stroke="none" stroke-width="0" fill="#FFFFFF" x="0" y="0" width="0" height="0" transform="translate(468.9,37.9)"/><path stroke="#000000" fill="none" d=""/><text font-family="OpenSansCondensedLight" font-size="14pt" fill="black" transform="translate(468.9,37.9)"/><rect stroke-width="0" fill="none" width="428" height="69.1" transform="translate(20.5,3.5)"/><text font-family="OpenSansCondensedLight" font-size="14pt" fill="black" transform="translate(20.5,3.5)" text-anchor="middle"><tspan x="214" y="40.8">REGISTER FILE 506</tspan></text><path stroke="#000000" fill="none" transform="translate(20.5,3.5)" d="M 268.9 43 296.9 43"/></g><g transform="translate(100.4,483.6)"><g transform="rotate(90,51.5,53)"><g>
<g fill="#FFFFFF">
    <path d="M98.4,98.4h-4.9c0.1,-0.2,-0,7.4,-0,7.4H0.1V14.6c0,0,5,-0.2,4.9,-0.1V7.2h4.6V0h93.4v91.2h-4.7"/>
</g>
<g stroke="#000000" stroke-dasharray="5,5">
    <path fill="none" d="M9.7,7.2V0h93.4v91.2h-4.7"/>
    <path fill="none" d="M5,14.5V7.2h93.4v91.2h-4.9"/>
    <path fill="none" d="M0.1,14.6h93.4v91.2H0.1V14.6z"/>
</g>
<rect x="3.1" y="19.2" fill="none" width="87.5" height="81.8"/>
<circle fill="none" cx="53.1" cy="0.1" r="0.1"/>
<circle fill="none" cx="84.7" cy="0.1" r="0.1"/>
<circle fill="none" cx="103" cy="8.6" r="0.1"/>
<circle fill="none" cx="103" cy="41" r="0.1"/>
<circle fill="none" cx="103" cy="85.3" r="0.1"/>
<circle fill="none" cx="81" cy="106" r="0.1"/>
<circle fill="none" cx="43.9" cy="105.7" r="0.1"/>
<circle fill="none" cx="11.2" cy="105.7" r="0.1"/>
<circle fill="none" cx="0.2" cy="92.4" r="0.1"/>
<circle fill="none" cx="0.2" cy="57.7" r="0.1"/>
<circle fill="none" cx="0.1" cy="30" r="0.1"/>
<circle fill="none" cx="21.9" cy="0.1" r="0.1"/>
</g></g><rect stroke="none" stroke-width="0" fill="#FFFFFF" x="0" y="0" width="0" height="0" transform="translate(104.3,54.5)"/><path stroke="#000000" fill="none" d=""/><text font-family="OpenSansCondensedLight" font-size="14pt" fill="black" transform="translate(104.3,54.5)"/><rect stroke-width="0" fill="none" width="81.8" height="87.5" transform="translate(3.6,4.6)"/><text font-family="OpenSansCondensedLight" font-size="14pt" fill="black" transform="translate(3.6,4.6)" text-anchor="middle"><tspan x="40.9" y="50.1"> </tspan></text><path stroke="#000000" fill="none" transform="translate(3.6,4.6)" d="M 0 0"/></g><g transform="translate(96,484)"><g><g>
<path d="M94.5,0H0v94.5h94.5V0L94.5,0z" stroke="#000000" stroke-dasharray="none" fill="#FFFFFF"/>
<rect x="4.1" y="4.3" width="86.2" height="85.9" fill="none"/>
<circle fill="none" cx="47.2" cy="0" r="0.1"/>
<circle fill="none" cx="70.7" cy="0" r="0.1"/>
<circle fill="none" cx="94.5" cy="23.8" r="0.1"/>
<circle fill="none" cx="94.5" cy="47.2" r="0.1"/>
<circle fill="none" cx="94.5" cy="70.7" r="0.1"/>
<circle fill="none" cx="70.7" cy="94.5" r="0.1"/>
<circle fill="none" cx="47.2" cy="94.5" r="0.1"/>
<circle fill="none" cx="23.8" cy="94.5" r="0.1"/>
<circle fill="none" cx="0" cy="70.7" r="0.1"/>
<circle fill="none" cx="0" cy="47.2" r="0.1"/>
<circle fill="none" cx="0" cy="23.8" r="0.1"/>
<circle fill="none" cx="23.8" cy="0" r="0.1"/>
</g></g><rect stroke="none" stroke-width="0" fill="#FFFFFF" x="0" y="0" width="0" height="0" transform="translate(94.4,47.1)"/><path stroke="#000000" fill="none" d=""/><text font-family="OpenSansCondensedLight" font-size="14pt" fill="black" transform="translate(94.4,47.1)"/><rect stroke-width="0" fill="none" width="86.2" height="85.9" transform="translate(4.1,4.3)"/><text font-family="OpenSansCondensedLight" font-size="14pt" fill="black" transform="translate(4.1,4.3)" text-anchor="middle"><tspan x="43.1" y="28.2">PROCESSING</tspan><tspan x="43.1" y="49.2">CORES</tspan><tspan x="43.1" y="70.2">508</tspan></text><path stroke="#000000" fill="none" transform="translate(4.1,4.3)" d="M 29.1 72 57.1 72"/></g><g transform="translate(429,485)"><g transform="rotate(90,51.5,53)"><g>
<g fill="#FFFFFF">
    <path d="M98.4,98.4h-4.9c0.1,-0.2,-0,7.4,-0,7.4H0.1V14.6c0,0,5,-0.2,4.9,-0.1V7.2h4.6V0h93.4v91.2h-4.7"/>
</g>
<g stroke="#000000" stroke-dasharray="5,5">
    <path fill="none" d="M9.7,7.2V0h93.4v91.2h-4.7"/>
    <path fill="none" d="M5,14.5V7.2h93.4v91.2h-4.9"/>
    <path fill="none" d="M0.1,14.6h93.4v91.2H0.1V14.6z"/>
</g>
<rect x="3.1" y="19.2" fill="none" width="87.5" height="81.8"/>
<circle fill="none" cx="53.1" cy="0.1" r="0.1"/>
<circle fill="none" cx="84.7" cy="0.1" r="0.1"/>
<circle fill="none" cx="103" cy="8.6" r="0.1"/>
<circle fill="none" cx="103" cy="41" r="0.1"/>
<circle fill="none" cx="103" cy="85.3" r="0.1"/>
<circle fill="none" cx="81" cy="106" r="0.1"/>
<circle fill="none" cx="43.9" cy="105.7" r="0.1"/>
<circle fill="none" cx="11.2" cy="105.7" r="0.1"/>
<circle fill="none" cx="0.2" cy="92.4" r="0.1"/>
<circle fill="none" cx="0.2" cy="57.7" r="0.1"/>
<circle fill="none" cx="0.1" cy="30" r="0.1"/>
<circle fill="none" cx="21.9" cy="0.1" r="0.1"/>
</g></g><rect stroke="none" stroke-width="0" fill="#FFFFFF" x="0" y="0" width="0" height="0" transform="translate(104.3,54.5)"/><path stroke="#000000" fill="none" d=""/><text font-family="OpenSansCondensedLight" font-size="14pt" fill="black" transform="translate(104.3,54.5)"/><rect stroke-width="0" fill="none" width="81.8" height="87.5" transform="translate(3.6,4.6)"/><text font-family="OpenSansCondensedLight" font-size="14pt" fill="black" transform="translate(3.6,4.6)" text-anchor="middle"><tspan x="40.9" y="50.1"> </tspan></text><path stroke="#000000" fill="none" transform="translate(3.6,4.6)" d="M 0 0"/></g><g transform="translate(426,483.5)"><g><g>
<path d="M94.5,0H0v94.5h94.5V0L94.5,0z" stroke="#000000" stroke-dasharray="none" fill="#FFFFFF"/>
<rect x="4.1" y="4.3" width="86.2" height="85.9" fill="none"/>
<circle fill="none" cx="47.2" cy="0" r="0.1"/>
<circle fill="none" cx="70.7" cy="0" r="0.1"/>
<circle fill="none" cx="94.5" cy="23.8" r="0.1"/>
<circle fill="none" cx="94.5" cy="47.2" r="0.1"/>
<circle fill="none" cx="94.5" cy="70.7" r="0.1"/>
<circle fill="none" cx="70.7" cy="94.5" r="0.1"/>
<circle fill="none" cx="47.2" cy="94.5" r="0.1"/>
<circle fill="none" cx="23.8" cy="94.5" r="0.1"/>
<circle fill="none" cx="0" cy="70.7" r="0.1"/>
<circle fill="none" cx="0" cy="47.2" r="0.1"/>
<circle fill="none" cx="0" cy="23.8" r="0.1"/>
<circle fill="none" cx="23.8" cy="0" r="0.1"/>
</g></g><rect stroke="none" stroke-width="0" fill="#FFFFFF" x="0" y="0" width="0" height="0" transform="translate(94.4,47.1)"/><path stroke="#000000" fill="none" d=""/><text font-family="OpenSansCondensedLight" font-size="14pt" fill="black" transform="translate(94.4,47.1)"/><rect stroke-width="0" fill="none" width="86.2" height="85.9" transform="translate(4.1,4.3)"/><text font-family="OpenSansCondensedLight" font-size="14pt" fill="black" transform="translate(4.1,4.3)" text-anchor="middle"><tspan x="43.1" y="38.7">LSUS</tspan><tspan x="43.1" y="59.7">512</tspan></text><path stroke="#000000" fill="none" transform="translate(4.1,4.3)" d="M 29.1 62 57.1 62"/></g><g transform="translate(265,483)"><g transform="rotate(90,51.5,53)"><g>
<g fill="#FFFFFF">
    <path d="M98.4,98.4h-4.9c0.1,-0.2,-0,7.4,-0,7.4H0.1V14.6c0,0,5,-0.2,4.9,-0.1V7.2h4.6V0h93.4v91.2h-4.7"/>
</g>
<g stroke="#000000" stroke-dasharray="5,5">
    <path fill="none" d="M9.7,7.2V0h93.4v91.2h-4.7"/>
    <path fill="none" d="M5,14.5V7.2h93.4v91.2h-4.9"/>
    <path fill="none" d="M0.1,14.6h93.4v91.2H0.1V14.6z"/>
</g>
<rect x="3.1" y="19.2" fill="none" width="87.5" height="81.8"/>
<circle fill="none" cx="53.1" cy="0.1" r="0.1"/>
<circle fill="none" cx="84.7" cy="0.1" r="0.1"/>
<circle fill="none" cx="103" cy="8.6" r="0.1"/>
<circle fill="none" cx="103" cy="41" r="0.1"/>
<circle fill="none" cx="103" cy="85.3" r="0.1"/>
<circle fill="none" cx="81" cy="106" r="0.1"/>
<circle fill="none" cx="43.9" cy="105.7" r="0.1"/>
<circle fill="none" cx="11.2" cy="105.7" r="0.1"/>
<circle fill="none" cx="0.2" cy="92.4" r="0.1"/>
<circle fill="none" cx="0.2" cy="57.7" r="0.1"/>
<circle fill="none" cx="0.1" cy="30" r="0.1"/>
<circle fill="none" cx="21.9" cy="0.1" r="0.1"/>
</g></g><rect stroke="none" stroke-width="0" fill="#FFFFFF" x="0" y="0" width="0" height="0" transform="translate(104.3,54.5)"/><path stroke="#000000" fill="none" d=""/><text font-family="OpenSansCondensedLight" font-size="14pt" fill="black" transform="translate(104.3,54.5)"/><rect stroke-width="0" fill="none" width="81.8" height="87.5" transform="translate(3.6,4.6)"/><text font-family="OpenSansCondensedLight" font-size="14pt" fill="black" transform="translate(3.6,4.6)" text-anchor="middle"><tspan x="40.9" y="50.1"> </tspan></text><path stroke="#000000" fill="none" transform="translate(3.6,4.6)" d="M 0 0"/></g><g transform="translate(263,483.5)"><g><g>
<path d="M94.5,0H0v94.5h94.5V0L94.5,0z" stroke="#000000" stroke-dasharray="none" fill="#FFFFFF"/>
<rect x="4.1" y="4.3" width="86.2" height="85.9" fill="none"/>
<circle fill="none" cx="47.2" cy="0" r="0.1"/>
<circle fill="none" cx="70.7" cy="0" r="0.1"/>
<circle fill="none" cx="94.5" cy="23.8" r="0.1"/>
<circle fill="none" cx="94.5" cy="47.2" r="0.1"/>
<circle fill="none" cx="94.5" cy="70.7" r="0.1"/>
<circle fill="none" cx="70.7" cy="94.5" r="0.1"/>
<circle fill="none" cx="47.2" cy="94.5" r="0.1"/>
<circle fill="none" cx="23.8" cy="94.5" r="0.1"/>
<circle fill="none" cx="0" cy="70.7" r="0.1"/>
<circle fill="none" cx="0" cy="47.2" r="0.1"/>
<circle fill="none" cx="0" cy="23.8" r="0.1"/>
<circle fill="none" cx="23.8" cy="0" r="0.1"/>
</g></g><rect stroke="none" stroke-width="0" fill="#FFFFFF" x="0" y="0" width="0" height="0" transform="translate(94.4,47.1)"/><path stroke="#000000" fill="none" d=""/><text font-family="OpenSansCondensedLight" font-size="14pt" fill="black" transform="translate(94.4,47.1)"/><rect stroke-width="0" fill="none" width="86.2" height="85.9" transform="translate(4.1,4.3)"/><text font-family="OpenSansCondensedLight" font-size="14pt" fill="black" transform="translate(4.1,4.3)" text-anchor="middle"><tspan x="43.1" y="38.7">SFUS</tspan><tspan x="43.1" y="59.7">510</tspan></text><path stroke="#000000" fill="none" transform="translate(4.1,4.3)" d="M 29.1 62 57.1 62"/></g><g transform="translate(75,614)"><g><g>
<path d="M469,0H0v76h469V0L469,0z" stroke="#000000" stroke-dasharray="none" fill="#FFFFFF"/>
<rect x="20.5" y="3.5" width="428" height="69.1" fill="none"/>
<circle fill="none" cx="234.5" cy="0" r="0.1"/>
<circle fill="none" cx="350.7" cy="0" r="0.1"/>
<circle fill="none" cx="469" cy="19.2" r="0.1"/>
<circle fill="none" cx="469" cy="38" r="0.1"/>
<circle fill="none" cx="469" cy="56.8" r="0.1"/>
<circle fill="none" cx="350.7" cy="76" r="0.1"/>
<circle fill="none" cx="234.5" cy="76" r="0.1"/>
<circle fill="none" cx="118.3" cy="76" r="0.1"/>
<circle fill="none" cx="0" cy="56.8" r="0.1"/>
<circle fill="none" cx="0" cy="38" r="0.1"/>
<circle fill="none" cx="0" cy="19.2" r="0.1"/>
<circle fill="none" cx="118.3" cy="0" r="0.1"/>
</g></g><rect stroke="none" stroke-width="0" fill="#FFFFFF" x="0" y="0" width="0" height="0" transform="translate(468.9,37.9)"/><path stroke="#000000" fill="none" d=""/><text font-family="OpenSansCondensedLight" font-size="14pt" fill="black" transform="translate(468.9,37.9)"/><rect stroke-width="0" fill="none" width="428" height="69.1" transform="translate(20.5,3.5)"/><text font-family="OpenSansCondensedLight" font-size="14pt" fill="black" transform="translate(20.5,3.5)" text-anchor="middle"><tspan x="214" y="40.8">INTERCONNECT NETWORK 514</tspan></text><path stroke="#000000" fill="none" transform="translate(20.5,3.5)" d="M 322.8 43 350.8 43"/></g><g transform="translate(75,742)"><g><g>
<path d="M469,0H0v76h469V0L469,0z" stroke="#000000" stroke-dasharray="none" fill="#FFFFFF"/>
<rect x="20.5" y="3.5" width="428" height="69.1" fill="none"/>
<circle fill="none" cx="234.5" cy="0" r="0.1"/>
<circle fill="none" cx="350.7" cy="0" r="0.1"/>
<circle fill="none" cx="469" cy="19.2" r="0.1"/>
<circle fill="none" cx="469" cy="38" r="0.1"/>
<circle fill="none" cx="469" cy="56.8" r="0.1"/>
<circle fill="none" cx="350.7" cy="76" r="0.1"/>
<circle fill="none" cx="234.5" cy="76" r="0.1"/>
<circle fill="none" cx="118.3" cy="76" r="0.1"/>
<circle fill="none" cx="0" cy="56.8" r="0.1"/>
<circle fill="none" cx="0" cy="38" r="0.1"/>
<circle fill="none" cx="0" cy="19.2" r="0.1"/>
<circle fill="none" cx="118.3" cy="0" r="0.1"/>
</g></g><rect stroke="none" stroke-width="0" fill="#FFFFFF" x="0" y="0" width="0" height="0" transform="translate(468.9,37.9)"/><path stroke="#000000" fill="none" d=""/><text font-family="OpenSansCondensedLight" font-size="14pt" fill="black" transform="translate(468.9,37.9)"/><rect stroke-width="0" fill="none" width="428" height="69.1" transform="translate(20.5,3.5)"/><text font-family="OpenSansCondensedLight" font-size="14pt" fill="black" transform="translate(20.5,3.5)" text-anchor="middle"><tspan x="214" y="40.8">SHARED MEMORY/L1 CACHE 516</tspan></text><path stroke="#000000" fill="none" transform="translate(20.5,3.5)" d="M 330.4 43 358.4 43"/></g><g><path stroke="black" stroke-dasharray="none" d="M 301 167 301 194" fill="none"/><path fill="black" stroke="black" d="M 8 0 L 0 4 L 8 8 z" transform="translate(305,159) scale(1,1) rotate(-270)"/><path fill="black" stroke="black" d="M 8 0 L 0 4 L 8 8 z" transform="translate(297,202) scale(1,1) rotate(-90)"/><g><g label-idx="0" cursor="move" transform="translate(301, 180.5)"><rect fill="white" rx="3" ry="3" x="0" y="0" width="0" height="0"/><text text-anchor="middle" font-size="14pt" font-family="OpenSansCondensedLight" y="0.8em" display="none" xml:space="preserve" transform="translate(0,0)"/></g></g></g><g><path stroke="black" stroke-dasharray="none" d="M 299 321 299 363" fill="none"/><path fill="black" stroke="black" d="M 8 0 L 0 4 L 8 8 z" transform="translate(303,313) scale(1,1) rotate(-270)"/><path fill="black" stroke="black" d="M 8 0 L 0 4 L 8 8 z" transform="translate(295,371) scale(1,1) rotate(-90)"/><g><g label-idx="0" cursor="move" transform="translate(299, 342)"><rect fill="white" rx="3" ry="3" x="0" y="0" width="0" height="0"/><text text-anchor="middle" font-size="14pt" font-family="OpenSansCondensedLight" y="0.8em" display="none" xml:space="preserve" transform="translate(0,0)"/></g></g></g><g><path stroke="black" stroke-dasharray="none" d="M 143 459 143 476" fill="none"/><path fill="black" stroke="black" d="M 8 0 L 0 4 L 8 8 z" transform="translate(147,451) scale(1,1) rotate(-270)"/><path fill="black" stroke="black" d="M 8 0 L 0 4 L 8 8 z" transform="translate(139,484) scale(1,1) rotate(-90)"/><g><g label-idx="0" cursor="move" transform="translate(143, 467.5)"><rect fill="white" rx="3" ry="3" x="0" y="0" width="0" height="0"/><text text-anchor="middle" font-size="14pt" font-family="OpenSansCondensedLight" y="0.8em" display="none" xml:space="preserve" transform="translate(0,0)"/></g></g></g><g><path stroke="black" stroke-dasharray="none" d="M 310 458 310 476" fill="none"/><path fill="black" stroke="black" d="M 8 0 L 0 4 L 8 8 z" transform="translate(314,450) scale(1,1) rotate(-270)"/><path fill="black" stroke="black" d="M 8 0 L 0 4 L 8 8 z" transform="translate(306,484) scale(1,1) rotate(-90)"/><g><g label-idx="0" cursor="move" transform="translate(310, 467)"><rect fill="white" rx="3" ry="3" x="0" y="0" width="0" height="0"/><text text-anchor="middle" font-size="14pt" font-family="OpenSansCondensedLight" y="0.8em" display="none" xml:space="preserve" transform="translate(0,0)"/></g></g></g><g><path stroke="black" stroke-dasharray="none" d="M 473 455 473 476" fill="none"/><path fill="black" stroke="black" d="M 8 0 L 0 4 L 8 8 z" transform="translate(477,447) scale(1,1) rotate(-270)"/><path fill="black" stroke="black" d="M 8 0 L 0 4 L 8 8 z" transform="translate(469,484) scale(1,1) rotate(-90)"/><g><g label-idx="0" cursor="move" transform="translate(473, 465.5)"><rect fill="white" rx="3" ry="3" x="0" y="0" width="0" height="0"/><text text-anchor="middle" font-size="14pt" font-family="OpenSansCondensedLight" y="0.8em" display="none" xml:space="preserve" transform="translate(0,0)"/></g></g></g><g><path stroke="black" stroke-dasharray="none" d="M 542 411 600 411 600 651 552 651" fill="none"/><path fill="black" stroke="black" d="M 8 0 L 0 4 L 8 8 z" transform="translate(534,407) scale(1,1) rotate(0)"/><path fill="black" stroke="black" d="M 8 0 L 0 4 L 8 8 z" transform="translate(544,647) scale(1,1) rotate(0)"/><g><g label-idx="0" cursor="move" transform="translate(600, 526)"><rect fill="white" rx="3" ry="3" x="0" y="0" width="0" height="0"/><text text-anchor="middle" font-size="14pt" font-family="OpenSansCondensedLight" y="0.8em" display="none" xml:space="preserve" transform="translate(0,0)"/></g></g></g><g><path stroke="black" stroke-dasharray="none" d="M 476 586 476 607" fill="none"/><path fill="black" stroke="black" d="M 8 0 L 0 4 L 8 8 z" transform="translate(480,578) scale(1,1) rotate(-270)"/><path fill="black" stroke="black" d="M 8 0 L 0 4 L 8 8 z" transform="translate(472,615) scale(1,1) rotate(-90)"/><g><g label-idx="0" cursor="move" transform="translate(476, 596.5)"><rect fill="white" rx="3" ry="3" x="0" y="0" width="0" height="0"/><text text-anchor="middle" font-size="14pt" font-family="OpenSansCondensedLight" y="0.8em" display="none" xml:space="preserve" transform="translate(0,0)"/></g></g></g><g><path stroke="black" stroke-dasharray="none" d="M 309 586 309 606" fill="none"/><path fill="black" stroke="black" d="M 8 0 L 0 4 L 8 8 z" transform="translate(313,578) scale(1,1) rotate(-270)"/><path fill="black" stroke="black" d="M 8 0 L 0 4 L 8 8 z" transform="translate(305,614) scale(1,1) rotate(-90)"/><g><g label-idx="0" cursor="move" transform="translate(309, 596)"><rect fill="white" rx="3" ry="3" x="0" y="0" width="0" height="0"/><text text-anchor="middle" font-size="14pt" font-family="OpenSansCondensedLight" y="0.8em" display="none" xml:space="preserve" transform="translate(0,0)"/></g></g></g><g><path stroke="black" stroke-dasharray="none" d="M 140 586 140 607" fill="none"/><path fill="black" stroke="black" d="M 8 0 L 0 4 L 8 8 z" transform="translate(144,578) scale(1,1) rotate(-270)"/><path fill="black" stroke="black" d="M 8 0 L 0 4 L 8 8 z" transform="translate(136,615) scale(1,1) rotate(-90)"/><g><g label-idx="0" cursor="move" transform="translate(140, 596.5)"><rect fill="white" rx="3" ry="3" x="0" y="0" width="0" height="0"/><text text-anchor="middle" font-size="14pt" font-family="OpenSansCondensedLight" y="0.8em" display="none" xml:space="preserve" transform="translate(0,0)"/></g></g></g><g><path stroke="black" stroke-dasharray="none" d="M 309 698 309 734" fill="none"/><path fill="black" stroke="black" d="M 8 0 L 0 4 L 8 8 z" transform="translate(313,690) scale(1,1) rotate(-270)"/><path fill="black" stroke="black" d="M 8 0 L 0 4 L 8 8 z" transform="translate(305,742) scale(1,1) rotate(-90)"/><g><g label-idx="0" cursor="move" transform="translate(309, 716)"><rect fill="white" rx="3" ry="3" x="0" y="0" width="0" height="0"/><text text-anchor="middle" font-size="14pt" font-family="OpenSansCondensedLight" y="0.8em" display="none" xml:space="preserve" transform="translate(0,0)"/></g></g></g></g><defs/></svg>