<svg xmlns="http://www.w3.org/2000/svg" xmlns:xlink="http://www.w3.org/1999/xlink" version="1.1" width="664" height="857.1" viewBox="0 0 664 857.1"><g><g transform="translate(168,0)"><g><g>
<path d="M94,0H0v67h94V0L94,0z" stroke="#000000" stroke-dasharray="none" fill="#FFFFFF"/>
<rect x="4.1" y="3.1" width="85.8" height="60.9" fill="none"/>
<circle fill="none" cx="47" cy="0" r="0.1"/>
<circle fill="none" cx="70.3" cy="0" r="0.1"/>
<circle fill="none" cx="94" cy="16.9" r="0.1"/>
<circle fill="none" cx="94" cy="33.5" r="0.1"/>
<circle fill="none" cx="94" cy="50.1" r="0.1"/>
<circle fill="none" cx="70.3" cy="67" r="0.1"/>
<circle fill="none" cx="47" cy="67" r="0.1"/>
<circle fill="none" cx="23.7" cy="67" r="0.1"/>
<circle fill="none" cx="0" cy="50.1" r="0.1"/>
<circle fill="none" cx="0" cy="33.5" r="0.1"/>
<circle fill="none" cx="0" cy="16.9" r="0.1"/>
<circle fill="none" cx="23.7" cy="0" r="0.1"/>
</g></g><rect stroke="none" stroke-width="0" fill="#FFFFFF" x="0" y="0" width="0" height="0" transform="translate(93.9,33.4)"/><path stroke="#000000" fill="none" d=""/><text font-family="OpenSansCondensedLight" font-size="14pt" fill="black" transform="translate(93.9,33.4)"/><rect stroke-width="0" fill="none" width="85.8" height="60.9" transform="translate(4.1,3.1)"/><text font-family="OpenSansCondensedLight" font-size="14pt" fill="black" transform="translate(4.1,3.1)" text-anchor="middle"><tspan x="42.9" y="15.7">MAIN</tspan><tspan x="42.9" y="36.7">MEMORY</tspan><tspan x="42.9" y="57.7">702</tspan></text><path stroke="#000000" fill="none" transform="translate(4.1,3.1)" d="M 28.9 60 56.9 60"/></g><g transform="translate(37,106)"><g><g>
<path d="M94,0H0v67h94V0L94,0z" stroke="#000000" stroke-dasharray="none" fill="#FFFFFF"/>
<rect x="4.1" y="3.1" width="85.8" height="60.9" fill="none"/>
<circle fill="none" cx="47" cy="0" r="0.1"/>
<circle fill="none" cx="70.3" cy="0" r="0.1"/>
<circle fill="none" cx="94" cy="16.9" r="0.1"/>
<circle fill="none" cx="94" cy="33.5" r="0.1"/>
<circle fill="none" cx="94" cy="50.1" r="0.1"/>
<circle fill="none" cx="70.3" cy="67" r="0.1"/>
<circle fill="none" cx="47" cy="67" r="0.1"/>
<circle fill="none" cx="23.7" cy="67" r="0.1"/>
<circle fill="none" cx="0" cy="50.1" r="0.1"/>
<circle fill="none" cx="0" cy="33.5" r="0.1"/>
<circle fill="none" cx="0" cy="16.9" r="0.1"/>
<circle fill="none" cx="23.7" cy="0" r="0.1"/>
</g></g><rect stroke="none" stroke-width="0" fill="#FFFFFF" x="0" y="0" width="0" height="0" transform="translate(93.9,33.4)"/><path stroke="#000000" fill="none" d=""/><text font-family="OpenSansCondensedLight" font-size="14pt" fill="black" transform="translate(93.9,33.4)"/><rect stroke-width="0" fill="none" width="85.8" height="60.9" transform="translate(4.1,3.1)"/><text font-family="OpenSansCondensedLight" font-size="14pt" fill="black" transform="translate(4.1,3.1)" text-anchor="middle"><tspan x="42.9" y="15.7">NETWORK</tspan><tspan x="42.9" y="36.7">INTERFACE</tspan><tspan x="42.9" y="57.7">704</tspan></text><path stroke="#000000" fill="none" transform="translate(4.1,3.1)" d="M 28.9 60 56.9 60"/></g><g transform="translate(192,253)"><g><g>
<path d="M271,0H0v71h271V0L271,0z" stroke="#000000" stroke-dasharray="none" fill="#FFFFFF"/>
<rect x="11.9" y="3.2" width="247.3" height="64.5" fill="none"/>
<circle fill="none" cx="135.5" cy="0" r="0.1"/>
<circle fill="none" cx="202.7" cy="0" r="0.1"/>
<circle fill="none" cx="271" cy="17.9" r="0.1"/>
<circle fill="none" cx="271" cy="35.5" r="0.1"/>
<circle fill="none" cx="271" cy="53.1" r="0.1"/>
<circle fill="none" cx="202.7" cy="71" r="0.1"/>
<circle fill="none" cx="135.5" cy="71" r="0.1"/>
<circle fill="none" cx="68.4" cy="71" r="0.1"/>
<circle fill="none" cx="0" cy="53.1" r="0.1"/>
<circle fill="none" cx="0" cy="35.5" r="0.1"/>
<circle fill="none" cx="0" cy="17.9" r="0.1"/>
<circle fill="none" cx="68.4" cy="0" r="0.1"/>
</g></g><rect stroke="none" stroke-width="0" fill="#FFFFFF" x="0" y="0" width="0" height="0" transform="translate(270.9,35.4)"/><path stroke="#000000" fill="none" d=""/><text font-family="OpenSansCondensedLight" font-size="14pt" fill="black" transform="translate(270.9,35.4)"/><rect stroke-width="0" fill="none" width="247.3" height="64.5" transform="translate(11.9,3.2)"/><text font-family="OpenSansCondensedLight" font-size="14pt" fill="black" transform="translate(11.9,3.2)" text-anchor="middle"><tspan x="123.7" y="38.6">SWITCH 604</tspan></text><path stroke="#000000" fill="none" transform="translate(11.9,3.2)" d="M 147.8 41 175.7 41"/></g><g transform="translate(164,106)"><g><g>
<path d="M94,0H0v69h94V0L94,0z" stroke="#000000" stroke-dasharray="none" fill="#FFFFFF"/>
<rect x="4.1" y="3.1" width="85.8" height="62.7" fill="none"/>
<circle fill="none" cx="47" cy="0" r="0.1"/>
<circle fill="none" cx="70.3" cy="0" r="0.1"/>
<circle fill="none" cx="94" cy="17.4" r="0.1"/>
<circle fill="none" cx="94" cy="34.5" r="0.1"/>
<circle fill="none" cx="94" cy="51.6" r="0.1"/>
<circle fill="none" cx="70.3" cy="69" r="0.1"/>
<circle fill="none" cx="47" cy="69" r="0.1"/>
<circle fill="none" cx="23.7" cy="69" r="0.1"/>
<circle fill="none" cx="0" cy="51.6" r="0.1"/>
<circle fill="none" cx="0" cy="34.5" r="0.1"/>
<circle fill="none" cx="0" cy="17.4" r="0.1"/>
<circle fill="none" cx="23.7" cy="0" r="0.1"/>
</g></g><rect stroke="none" stroke-width="0" fill="#FFFFFF" x="0" y="0" width="0" height="0" transform="translate(93.9,34.4)"/><path stroke="#000000" fill="none" d=""/><text font-family="OpenSansCondensedLight" font-size="14pt" fill="black" transform="translate(93.9,34.4)"/><rect stroke-width="0" fill="none" width="85.8" height="62.7" transform="translate(4.1,3.1)"/><text font-family="OpenSansCondensedLight" font-size="14pt" fill="black" transform="translate(4.1,3.1)" text-anchor="middle"><tspan x="42.9" y="37.7">CPU 602</tspan></text><path stroke="#000000" fill="none" transform="translate(4.1,3.1)" d="M 49.4 40 77.4 40"/></g><g transform="translate(290,106)"><g><g>
<path d="M94,0H0v66h94V0L94,0z" stroke="#000000" stroke-dasharray="none" fill="#FFFFFF"/>
<rect x="4.1" y="3" width="85.8" height="60" fill="none"/>
<circle fill="none" cx="47" cy="0" r="0.1"/>
<circle fill="none" cx="70.3" cy="0" r="0.1"/>
<circle fill="none" cx="94" cy="16.6" r="0.1"/>
<circle fill="none" cx="94" cy="33" r="0.1"/>
<circle fill="none" cx="94" cy="49.4" r="0.1"/>
<circle fill="none" cx="70.3" cy="66" r="0.1"/>
<circle fill="none" cx="47" cy="66" r="0.1"/>
<circle fill="none" cx="23.7" cy="66" r="0.1"/>
<circle fill="none" cx="0" cy="49.4" r="0.1"/>
<circle fill="none" cx="0" cy="33" r="0.1"/>
<circle fill="none" cx="0" cy="16.6" r="0.1"/>
<circle fill="none" cx="23.7" cy="0" r="0.1"/>
</g></g><rect stroke="none" stroke-width="0" fill="#FFFFFF" x="0" y="0" width="0" height="0" transform="translate(93.9,32.9)"/><path stroke="#000000" fill="none" d=""/><text font-family="OpenSansCondensedLight" font-size="14pt" fill="black" transform="translate(93.9,32.9)"/><rect stroke-width="0" fill="none" width="85.8" height="60" transform="translate(4.1,3)"/><text font-family="OpenSansCondensedLight" font-size="14pt" fill="black" transform="translate(4.1,3)" text-anchor="middle"><tspan x="42.9" y="15.3">DISPLAY</tspan><tspan x="42.9" y="36.3">DEVICES</tspan><tspan x="42.9" y="57.3">706</tspan></text><path stroke="#000000" fill="none" transform="translate(4.1,3)" d="M 28.9 59 56.9 59"/></g><g transform="translate(620,344)"><g><g>
<rect y="0" fill="#FFFFFF" width="30.2" height="30.2" stroke="none" stroke-dasharray="none"/>
<rect x="2.1" y="2.3" fill="none" width="26" height="25.7"/>
<circle fill="none" cx="15.1" cy="0" r="0.1"/>
<circle fill="none" cx="23.5" cy="0" r="0.1"/>
<circle fill="none" cx="30.2" cy="7.3" r="0.1"/>
<circle fill="none" cx="30.2" cy="14.7" r="0.1"/>
<circle fill="none" cx="30.2" cy="23" r="0.1"/>
<circle fill="none" cx="23.5" cy="30.2" r="0.1"/>
<circle fill="none" cx="15.1" cy="30.2" r="0.1"/>
<circle fill="none" cx="7.6" cy="30.2" r="0.1"/>
<circle fill="none" cx="0" cy="23" r="0.1"/>
<circle fill="none" cx="0" cy="14.7" r="0.1"/>
<circle fill="none" cx="0" cy="7.3" r="0.1"/>
<circle fill="none" cx="7.7" cy="0" r="0.1"/>
</g></g><rect stroke="none" stroke-width="0" fill="#FFFFFF" x="0" y="0" width="0" height="0" transform="translate(30.1,14.6)"/><path stroke="#000000" fill="none" d=""/><text font-family="OpenSansCondensedLight" font-size="14pt" fill="black" transform="translate(30.1,14.6)"/><rect stroke-width="0" fill="none" width="26" height="25.7" transform="translate(2.1,2.3)"/><text font-family="OpenSansCondensedLight" font-size="14pt" fill="black" text-decoration="none" transform="translate(2.1,2.3)" text-anchor="middle"><tspan x="13" y="19.2">224</tspan></text><path stroke="#000000" fill="none" transform="translate(2.1,2.3)"/></g><g transform="translate(414,106)"><g><g>
<path d="M94,0H0v64h94V0L94,0z" stroke="#000000" stroke-dasharray="none" fill="#FFFFFF"/>
<rect x="4.1" y="2.9" width="85.8" height="58.2" fill="none"/>
<circle fill="none" cx="47" cy="0" r="0.1"/>
<circle fill="none" cx="70.3" cy="0" r="0.1"/>
<circle fill="none" cx="94" cy="16.1" r="0.1"/>
<circle fill="none" cx="94" cy="32" r="0.1"/>
<circle fill="none" cx="94" cy="47.9" r="0.1"/>
<circle fill="none" cx="70.3" cy="64" r="0.1"/>
<circle fill="none" cx="47" cy="64" r="0.1"/>
<circle fill="none" cx="23.7" cy="64" r="0.1"/>
<circle fill="none" cx="0" cy="47.9" r="0.1"/>
<circle fill="none" cx="0" cy="32" r="0.1"/>
<circle fill="none" cx="0" cy="16.1" r="0.1"/>
<circle fill="none" cx="23.7" cy="0" r="0.1"/>
</g></g><rect stroke="none" stroke-width="0" fill="#FFFFFF" x="0" y="0" width="0" height="0" transform="translate(93.9,31.9)"/><path stroke="#000000" fill="none" d=""/><text font-family="OpenSansCondensedLight" font-size="14pt" fill="black" transform="translate(93.9,31.9)"/><rect stroke-width="0" fill="none" width="85.8" height="58.2" transform="translate(4.1,2.9)"/><text font-family="OpenSansCondensedLight" font-size="14pt" fill="black" transform="translate(4.1,2.9)" text-anchor="middle"><tspan x="42.9" y="14.4">INPUT</tspan><tspan x="42.9" y="35.4">DEVICES</tspan><tspan x="42.9" y="56.4">708</tspan></text><path stroke="#000000" fill="none" transform="translate(4.1,2.9)" d="M 28.9 58 56.9 58"/></g><g transform="translate(53,383)"><g><g>
<path d="M544,0H0v474h544V0L544,0z" stroke="#000000" stroke-dasharray="none" fill="#FFFFFF"/>
<rect x="23.8" y="21.6" width="496.5" height="430.8" fill="none"/>
<circle fill="none" cx="272" cy="0" r="0.1"/>
<circle fill="none" cx="406.8" cy="0" r="0.1"/>
<circle fill="none" cx="544" cy="119.5" r="0.1"/>
<circle fill="none" cx="544" cy="237" r="0.1"/>
<circle fill="none" cx="544" cy="354.5" r="0.1"/>
<circle fill="none" cx="406.8" cy="474" r="0.1"/>
<circle fill="none" cx="272" cy="474" r="0.1"/>
<circle fill="none" cx="137.2" cy="474" r="0.1"/>
<circle fill="none" cx="0" cy="354.5" r="0.1"/>
<circle fill="none" cx="0" cy="237" r="0.1"/>
<circle fill="none" cx="0" cy="119.5" r="0.1"/>
<circle fill="none" cx="137.2" cy="0" r="0.1"/>
</g></g><rect stroke="none" stroke-width="0" fill="#FFFFFF" x="0" y="0" width="0" height="0" transform="translate(543.9,236.9)"/><path stroke="#000000" fill="none" d=""/><text font-family="OpenSansCondensedLight" font-size="14pt" fill="black" transform="translate(543.9,236.9)"/><rect stroke-width="0" fill="none" width="496.5" height="430.8" transform="translate(23.8,21.6)"/><text font-family="OpenSansCondensedLight" font-size="14pt" fill="black" transform="translate(23.8,21.6)" text-anchor="middle"><tspan x="248.2" y="426.6">PARALLEL PROCESSING MODULE 606</tspan></text><path stroke="#000000" fill="none" transform="translate(23.8,21.6)" d="M 385 429 413 429"/></g><g transform="translate(181,452)"><g><g>
<path d="M94,0H0v103h94V0L94,0z" stroke="#000000" stroke-dasharray="none" fill="#FFFFFF"/>
<rect x="4.1" y="4.7" width="85.8" height="93.6" fill="none"/>
<circle fill="none" cx="47" cy="0" r="0.1"/>
<circle fill="none" cx="70.3" cy="0" r="0.1"/>
<circle fill="none" cx="94" cy="26" r="0.1"/>
<circle fill="none" cx="94" cy="51.5" r="0.1"/>
<circle fill="none" cx="94" cy="77" r="0.1"/>
<circle fill="none" cx="70.3" cy="103" r="0.1"/>
<circle fill="none" cx="47" cy="103" r="0.1"/>
<circle fill="none" cx="23.7" cy="103" r="0.1"/>
<circle fill="none" cx="0" cy="77" r="0.1"/>
<circle fill="none" cx="0" cy="51.5" r="0.1"/>
<circle fill="none" cx="0" cy="26" r="0.1"/>
<circle fill="none" cx="23.7" cy="0" r="0.1"/>
</g></g><rect stroke="none" stroke-width="0" fill="#FFFFFF" x="0" y="0" width="0" height="0" transform="translate(93.9,51.4)"/><path stroke="#000000" fill="none" d=""/><text font-family="OpenSansCondensedLight" font-size="14pt" fill="black" transform="translate(93.9,51.4)"/><rect stroke-width="0" fill="none" width="85.8" height="93.6" transform="translate(4.1,4.7)"/><text font-family="OpenSansCondensedLight" font-size="14pt" fill="black" transform="translate(4.1,4.7)" text-anchor="middle"><tspan x="42.9" y="53.1">PPU 202</tspan></text><path stroke="#000000" fill="none" transform="translate(4.1,4.7)" d="M 48.3 55 76.3 55"/></g><g transform="translate(381,451)"><g><g>
<path d="M94,0H0v103h94V0L94,0z" stroke="#000000" stroke-dasharray="none" fill="#FFFFFF"/>
<rect x="4.1" y="4.7" width="85.8" height="93.6" fill="none"/>
<circle fill="none" cx="47" cy="0" r="0.1"/>
<circle fill="none" cx="70.3" cy="0" r="0.1"/>
<circle fill="none" cx="94" cy="26" r="0.1"/>
<circle fill="none" cx="94" cy="51.5" r="0.1"/>
<circle fill="none" cx="94" cy="77" r="0.1"/>
<circle fill="none" cx="70.3" cy="103" r="0.1"/>
<circle fill="none" cx="47" cy="103" r="0.1"/>
<circle fill="none" cx="23.7" cy="103" r="0.1"/>
<circle fill="none" cx="0" cy="77" r="0.1"/>
<circle fill="none" cx="0" cy="51.5" r="0.1"/>
<circle fill="none" cx="0" cy="26" r="0.1"/>
<circle fill="none" cx="23.7" cy="0" r="0.1"/>
</g></g><rect stroke="none" stroke-width="0" fill="#FFFFFF" x="0" y="0" width="0" height="0" transform="translate(93.9,51.4)"/><path stroke="#000000" fill="none" d=""/><text font-family="OpenSansCondensedLight" font-size="14pt" fill="black" transform="translate(93.9,51.4)"/><rect stroke-width="0" fill="none" width="85.8" height="93.6" transform="translate(4.1,4.7)"/><text font-family="OpenSansCondensedLight" font-size="14pt" fill="black" transform="translate(4.1,4.7)" text-anchor="middle"><tspan x="42.9" y="53.1">PPU 202</tspan></text><path stroke="#000000" fill="none" transform="translate(4.1,4.7)" d="M 48.3 55 76.3 55"/></g><g transform="translate(184,635)"><g><g>
<path d="M94,0H0v103h94V0L94,0z" stroke="#000000" stroke-dasharray="none" fill="#FFFFFF"/>
<rect x="4.1" y="4.7" width="85.8" height="93.6" fill="none"/>
<circle fill="none" cx="47" cy="0" r="0.1"/>
<circle fill="none" cx="70.3" cy="0" r="0.1"/>
<circle fill="none" cx="94" cy="26" r="0.1"/>
<circle fill="none" cx="94" cy="51.5" r="0.1"/>
<circle fill="none" cx="94" cy="77" r="0.1"/>
<circle fill="none" cx="70.3" cy="103" r="0.1"/>
<circle fill="none" cx="47" cy="103" r="0.1"/>
<circle fill="none" cx="23.7" cy="103" r="0.1"/>
<circle fill="none" cx="0" cy="77" r="0.1"/>
<circle fill="none" cx="0" cy="51.5" r="0.1"/>
<circle fill="none" cx="0" cy="26" r="0.1"/>
<circle fill="none" cx="23.7" cy="0" r="0.1"/>
</g></g><rect stroke="none" stroke-width="0" fill="#FFFFFF" x="0" y="0" width="0" height="0" transform="translate(93.9,51.4)"/><path stroke="#000000" fill="none" d=""/><text font-family="OpenSansCondensedLight" font-size="14pt" fill="black" transform="translate(93.9,51.4)"/><rect stroke-width="0" fill="none" width="85.8" height="93.6" transform="translate(4.1,4.7)"/><text font-family="OpenSansCondensedLight" font-size="14pt" fill="black" transform="translate(4.1,4.7)" text-anchor="middle"><tspan x="42.9" y="53.1">PPU 202</tspan></text><path stroke="#000000" fill="none" transform="translate(4.1,4.7)" d="M 48.3 55 76.3 55"/></g><g transform="translate(379,636)"><g><g>
<path d="M94,0H0v103h94V0L94,0z" stroke="#000000" stroke-dasharray="none" fill="#FFFFFF"/>
<rect x="4.1" y="4.7" width="85.8" height="93.6" fill="none"/>
<circle fill="none" cx="47" cy="0" r="0.1"/>
<circle fill="none" cx="70.3" cy="0" r="0.1"/>
<circle fill="none" cx="94" cy="26" r="0.1"/>
<circle fill="none" cx="94" cy="51.5" r="0.1"/>
<circle fill="none" cx="94" cy="77" r="0.1"/>
<circle fill="none" cx="70.3" cy="103" r="0.1"/>
<circle fill="none" cx="47" cy="103" r="0.1"/>
<circle fill="none" cx="23.7" cy="103" r="0.1"/>
<circle fill="none" cx="0" cy="77" r="0.1"/>
<circle fill="none" cx="0" cy="51.5" r="0.1"/>
<circle fill="none" cx="0" cy="26" r="0.1"/>
<circle fill="none" cx="23.7" cy="0" r="0.1"/>
</g></g><rect stroke="none" stroke-width="0" fill="#FFFFFF" x="0" y="0" width="0" height="0" transform="translate(93.9,51.4)"/><path stroke="#000000" fill="none" d=""/><text font-family="OpenSansCondensedLight" font-size="14pt" fill="black" transform="translate(93.9,51.4)"/><rect stroke-width="0" fill="none" width="85.8" height="93.6" transform="translate(4.1,4.7)"/><text font-family="OpenSansCondensedLight" font-size="14pt" fill="black" transform="translate(4.1,4.7)" text-anchor="middle"><tspan x="42.9" y="53.1">PPU 202</tspan></text><path stroke="#000000" fill="none" transform="translate(4.1,4.7)" d="M 48.3 55 76.3 55"/></g><g transform="translate(124,452)"><g><g>
<path d="M62,0H0v103h62V0L62,0z" stroke="#000000" stroke-dasharray="none" fill="#FFFFFF"/>
<rect x="2.7" y="4.7" width="56.6" height="93.6" fill="none"/>
<circle fill="none" cx="31" cy="0" r="0.1"/>
<circle fill="none" cx="46.4" cy="0" r="0.1"/>
<circle fill="none" cx="62" cy="26" r="0.1"/>
<circle fill="none" cx="62" cy="51.5" r="0.1"/>
<circle fill="none" cx="62" cy="77" r="0.1"/>
<circle fill="none" cx="46.4" cy="103" r="0.1"/>
<circle fill="none" cx="31" cy="103" r="0.1"/>
<circle fill="none" cx="15.6" cy="103" r="0.1"/>
<circle fill="none" cx="0" cy="77" r="0.1"/>
<circle fill="none" cx="0" cy="51.5" r="0.1"/>
<circle fill="none" cx="0" cy="26" r="0.1"/>
<circle fill="none" cx="15.6" cy="0" r="0.1"/>
</g></g><rect stroke="none" stroke-width="0" fill="#FFFFFF" x="0" y="0" width="0" height="0" transform="translate(61.9,51.4)"/><path stroke="#000000" fill="none" d=""/><text font-family="OpenSansCondensedLight" font-size="14pt" fill="black" transform="translate(61.9,51.4)"/><rect stroke-width="0" fill="none" width="56.6" height="93.6" transform="translate(2.7,4.7)"/><text font-family="OpenSansCondensedLight" font-size="14pt" fill="black" transform="translate(2.7,4.7)" text-anchor="middle"><tspan x="28.3" y="32.1">MEMORY</tspan><tspan x="28.3" y="53.1">DEVICES</tspan><tspan x="28.3" y="74.1">222</tspan></text><path stroke="#000000" fill="none" transform="translate(2.7,4.7)" d="M 14.3 76 42.3 76"/></g><g transform="translate(475,451)"><g><g>
<path d="M62,0H0v103h62V0L62,0z" stroke="#000000" stroke-dasharray="none" fill="#FFFFFF"/>
<rect x="2.7" y="4.7" width="56.6" height="93.6" fill="none"/>
<circle fill="none" cx="31" cy="0" r="0.1"/>
<circle fill="none" cx="46.4" cy="0" r="0.1"/>
<circle fill="none" cx="62" cy="26" r="0.1"/>
<circle fill="none" cx="62" cy="51.5" r="0.1"/>
<circle fill="none" cx="62" cy="77" r="0.1"/>
<circle fill="none" cx="46.4" cy="103" r="0.1"/>
<circle fill="none" cx="31" cy="103" r="0.1"/>
<circle fill="none" cx="15.6" cy="103" r="0.1"/>
<circle fill="none" cx="0" cy="77" r="0.1"/>
<circle fill="none" cx="0" cy="51.5" r="0.1"/>
<circle fill="none" cx="0" cy="26" r="0.1"/>
<circle fill="none" cx="15.6" cy="0" r="0.1"/>
</g></g><rect stroke="none" stroke-width="0" fill="#FFFFFF" x="0" y="0" width="0" height="0" transform="translate(61.9,51.4)"/><path stroke="#000000" fill="none" d=""/><text font-family="OpenSansCondensedLight" font-size="14pt" fill="black" transform="translate(61.9,51.4)"/><rect stroke-width="0" fill="none" width="56.6" height="93.6" transform="translate(2.7,4.7)"/><text font-family="OpenSansCondensedLight" font-size="14pt" fill="black" transform="translate(2.7,4.7)" text-anchor="middle"><tspan x="28.3" y="32.1">MEMORY</tspan><tspan x="28.3" y="53.1">DEVICES</tspan><tspan x="28.3" y="74.1">222</tspan></text><path stroke="#000000" fill="none" transform="translate(2.7,4.7)" d="M 14.3 76 42.3 76"/></g><g transform="translate(127,635)"><g><g>
<path d="M62,0H0v103h62V0L62,0z" stroke="#000000" stroke-dasharray="none" fill="#FFFFFF"/>
<rect x="2.7" y="4.7" width="56.6" height="93.6" fill="none"/>
<circle fill="none" cx="31" cy="0" r="0.1"/>
<circle fill="none" cx="46.4" cy="0" r="0.1"/>
<circle fill="none" cx="62" cy="26" r="0.1"/>
<circle fill="none" cx="62" cy="51.5" r="0.1"/>
<circle fill="none" cx="62" cy="77" r="0.1"/>
<circle fill="none" cx="46.4" cy="103" r="0.1"/>
<circle fill="none" cx="31" cy="103" r="0.1"/>
<circle fill="none" cx="15.6" cy="103" r="0.1"/>
<circle fill="none" cx="0" cy="77" r="0.1"/>
<circle fill="none" cx="0" cy="51.5" r="0.1"/>
<circle fill="none" cx="0" cy="26" r="0.1"/>
<circle fill="none" cx="15.6" cy="0" r="0.1"/>
</g></g><rect stroke="none" stroke-width="0" fill="#FFFFFF" x="0" y="0" width="0" height="0" transform="translate(61.9,51.4)"/><path stroke="#000000" fill="none" d=""/><text font-family="OpenSansCondensedLight" font-size="14pt" fill="black" transform="translate(61.9,51.4)"/><rect stroke-width="0" fill="none" width="56.6" height="93.6" transform="translate(2.7,4.7)"/><text font-family="OpenSansCondensedLight" font-size="14pt" fill="black" transform="translate(2.7,4.7)" text-anchor="middle"><tspan x="28.3" y="32.1">MEMORY</tspan><tspan x="28.3" y="53.1">DEVICES</tspan><tspan x="28.3" y="74.1">222</tspan></text><path stroke="#000000" fill="none" transform="translate(2.7,4.7)" d="M 14.3 76 42.3 76"/></g><g transform="translate(472,636)"><g><g>
<path d="M68,0H0v103h68V0L68,0z" stroke="#000000" stroke-dasharray="none" fill="#FFFFFF"/>
<rect x="3" y="4.7" width="62.1" height="93.6" fill="none"/>
<circle fill="none" cx="34" cy="0" r="0.1"/>
<circle fill="none" cx="50.9" cy="0" r="0.1"/>
<circle fill="none" cx="68" cy="26" r="0.1"/>
<circle fill="none" cx="68" cy="51.5" r="0.1"/>
<circle fill="none" cx="68" cy="77" r="0.1"/>
<circle fill="none" cx="50.9" cy="103" r="0.1"/>
<circle fill="none" cx="34" cy="103" r="0.1"/>
<circle fill="none" cx="17.2" cy="103" r="0.1"/>
<circle fill="none" cx="0" cy="77" r="0.1"/>
<circle fill="none" cx="0" cy="51.5" r="0.1"/>
<circle fill="none" cx="0" cy="26" r="0.1"/>
<circle fill="none" cx="17.2" cy="0" r="0.1"/>
</g></g><rect stroke="none" stroke-width="0" fill="#FFFFFF" x="0" y="0" width="0" height="0" transform="translate(67.9,51.4)"/><path stroke="#000000" fill="none" d=""/><text font-family="OpenSansCondensedLight" font-size="14pt" fill="black" transform="translate(67.9,51.4)"/><rect stroke-width="0" fill="none" width="62.1" height="93.6" transform="translate(3,4.7)"/><text font-family="OpenSansCondensedLight" font-size="14pt" fill="black" transform="translate(3,4.7)" text-anchor="middle"><tspan x="31" y="32.1">MEMORY</tspan><tspan x="31" y="53.1">DEVICES</tspan><tspan x="31" y="74.1">222</tspan></text><path stroke="#000000" fill="none" transform="translate(3,4.7)" d="M 17 76 45 76"/></g><g transform="translate(279,531)"><g><g>
<path d="M98,0H0v26h98V0L98,0z" stroke="none" stroke-dasharray="none" fill="#FFFFFF"/>
<rect x="4.3" y="1.2" width="89.4" height="23.6" fill="none"/>
<circle fill="none" cx="49" cy="0" r="0.1"/>
<circle fill="none" cx="73.3" cy="0" r="0.1"/>
<circle fill="none" cx="98" cy="6.6" r="0.1"/>
<circle fill="none" cx="98" cy="13" r="0.1"/>
<circle fill="none" cx="98" cy="19.4" r="0.1"/>
<circle fill="none" cx="73.3" cy="26" r="0.1"/>
<circle fill="none" cx="49" cy="26" r="0.1"/>
<circle fill="none" cx="24.7" cy="26" r="0.1"/>
<circle fill="none" cx="0" cy="19.4" r="0.1"/>
<circle fill="none" cx="0" cy="13" r="0.1"/>
<circle fill="none" cx="0" cy="6.6" r="0.1"/>
<circle fill="none" cx="24.7" cy="0" r="0.1"/>
</g></g><rect stroke="none" stroke-width="0" fill="#FFFFFF" x="0" y="0" width="0" height="0" transform="translate(97.9,12.9)"/><path stroke="#000000" fill="none" d=""/><text font-family="OpenSansCondensedLight" font-size="14pt" fill="black" transform="translate(97.9,12.9)"/><rect stroke-width="0" fill="none" width="89.4" height="23.6" transform="translate(4.3,1.2)"/><text font-family="OpenSansCondensedLight" font-size="14pt" fill="black" transform="translate(4.3,1.2)" text-anchor="middle"><tspan x="44.7" y="18.1"> </tspan></text><path stroke="#000000" fill="none" transform="translate(4.3,1.2)" d="M 0 0"/></g><g transform="translate(280,633)"><g><g>
<path d="M98,0H0v26h98V0L98,0z" stroke="none" stroke-dasharray="none" fill="#FFFFFF"/>
<rect x="4.3" y="1.2" width="89.4" height="23.6" fill="none"/>
<circle fill="none" cx="49" cy="0" r="0.1"/>
<circle fill="none" cx="73.3" cy="0" r="0.1"/>
<circle fill="none" cx="98" cy="6.6" r="0.1"/>
<circle fill="none" cx="98" cy="13" r="0.1"/>
<circle fill="none" cx="98" cy="19.4" r="0.1"/>
<circle fill="none" cx="73.3" cy="26" r="0.1"/>
<circle fill="none" cx="49" cy="26" r="0.1"/>
<circle fill="none" cx="24.7" cy="26" r="0.1"/>
<circle fill="none" cx="0" cy="19.4" r="0.1"/>
<circle fill="none" cx="0" cy="13" r="0.1"/>
<circle fill="none" cx="0" cy="6.6" r="0.1"/>
<circle fill="none" cx="24.7" cy="0" r="0.1"/>
</g></g><rect stroke="none" stroke-width="0" fill="#FFFFFF" x="0" y="0" width="0" height="0" transform="translate(97.9,12.9)"/><path stroke="#000000" fill="none" d=""/><text font-family="OpenSansCondensedLight" font-size="14pt" fill="black" transform="translate(97.9,12.9)"/><rect stroke-width="0" fill="none" width="89.4" height="23.6" transform="translate(4.3,1.2)"/><text font-family="OpenSansCondensedLight" font-size="14pt" fill="black" transform="translate(4.3,1.2)" text-anchor="middle"><tspan x="44.7" y="18.1"> </tspan></text><path stroke="#000000" fill="none" transform="translate(4.3,1.2)" d="M 0 0"/></g><g transform="translate(609,526)"><g><g>
<path d="M55,0H0v123.4h55V0L55,0z" stroke="#000000" stroke-dasharray="none" fill="#FFFFFF"/>
<rect x="2.4" y="5.6" width="50.2" height="112.2" fill="none"/>
<circle fill="none" cx="27.5" cy="0" r="0.1"/>
<circle fill="none" cx="41.1" cy="0" r="0.1"/>
<circle fill="none" cx="55" cy="31.1" r="0.1"/>
<circle fill="none" cx="55" cy="61.7" r="0.1"/>
<circle fill="none" cx="55" cy="92.3" r="0.1"/>
<circle fill="none" cx="41.1" cy="123.4" r="0.1"/>
<circle fill="none" cx="27.5" cy="123.4" r="0.1"/>
<circle fill="none" cx="13.9" cy="123.4" r="0.1"/>
<circle fill="none" cx="0" cy="92.3" r="0.1"/>
<circle fill="none" cx="0" cy="61.7" r="0.1"/>
<circle fill="none" cx="0" cy="31.1" r="0.1"/>
<circle fill="none" cx="13.9" cy="0" r="0.1"/>
</g></g><rect stroke="none" stroke-width="0" fill="#FFFFFF" x="0" y="0" width="0" height="0" transform="translate(54.9,61.6)"/><path stroke="#000000" fill="none" d=""/><text font-family="OpenSansCondensedLight" font-size="14pt" fill="black" transform="translate(54.9,61.6)"/><rect stroke-width="0" fill="none" width="50.2" height="112.2" transform="translate(2.4,5.6)"/><text font-family="OpenSansCondensedLight" font-size="14pt" fill="black" transform="translate(2.4,5.6)" text-anchor="middle"><tspan x="25.1" y="51.9">NVLINKS</tspan><tspan x="25.1" y="72.9">206</tspan></text><path stroke="#000000" fill="none" transform="translate(2.4,5.6)" d="M 11.1 75 39.1 75"/></g><g transform="translate(84.5,194)"><g><g>
<g fill="#FFFFFF">
    <rect y="0" width="380" height="23"/>
</g>
<g stroke="#000000" stroke-dasharray="none">
    <line fill="none" stroke-linejoin="round" x1="0" y1="23" x2="375.6" y2="23"/>
</g>
<rect x="14.9" y="0.9" fill="none" width="350.2" height="21.2"/>
<circle fill="none" cx="201.9" cy="23" r="0.1"/>
<circle fill="none" cx="265.9" cy="23" r="0.1"/>
<circle fill="none" cx="329.8" cy="23" r="0.1"/>
<circle fill="none" cx="361.8" cy="23" r="0.1"/>
<circle fill="none" cx="297.8" cy="23" r="0.1"/>
<circle fill="none" cx="233.9" cy="23" r="0.1"/>
<circle fill="none" cx="169.9" cy="23" r="0.1"/>
<circle fill="none" cx="105.9" cy="23" r="0.1"/>
<circle fill="none" cx="42" cy="23" r="0.1"/>
<circle fill="none" cx="10" cy="23" r="0.1"/>
<circle fill="none" cx="74" cy="23" r="0.1"/>
<circle fill="none" cx="137.9" cy="23" r="0.1"/>
</g></g><rect stroke="none" stroke-width="1" fill="#FFFFFF" x="0" y="0" width="40" height="20" transform="translate(-30,42.9)"/><path stroke="#000000" fill="none" d="M42,23 C18.9,16.7 30.5,49.2 7.4 42.9"/><text font-family="OpenSansCondensedLight" font-size="14pt" fill="black" transform="translate(-30,42.9)" text-anchor="middle"><tspan x="20" y="16.3">710</tspan></text><rect stroke-width="0" fill="none" width="1140" transform="translate(-380,33.1)"/><text font-family="OpenSansCondensedLight" font-size="14pt" fill="black" transform="translate(-380,33.1)" text-anchor="middle"><tspan x="570" y="16.8">COMMUNICATION BUS</tspan></text><path stroke="#000000" fill="none" transform="translate(-380,33.1)" d="M 0 0"/></g><g><path stroke="black" stroke-dasharray="none" d="M 284 628 372 560" fill="none"/><path fill="black" stroke="black" d="M 8 0 L 0 4 L 8 8 z" transform="translate(275.5,629.8) scale(1,1) rotate(-38)"/><path fill="black" stroke="black" d="M 8 0 L 0 4 L 8 8 z" transform="translate(380.5,558.2) scale(1,1) rotate(-218)"/><g><g label-idx="0" cursor="move" transform="translate(328, 594)"><rect fill="white" rx="3" ry="3" x="0" y="0" width="0" height="0"/><text text-anchor="middle" font-size="14pt" font-family="OpenSansCondensedLight" y="0.8em" display="none" xml:space="preserve" transform="translate(0,0)"/></g></g></g><g><path stroke="black" stroke-dasharray="none" d="M 285 561 368 630" fill="none"/><path fill="black" stroke="black" d="M 8 0 L 0 4 L 8 8 z" transform="translate(281.6,552.9) scale(1,1) rotate(39.7)"/><path fill="black" stroke="black" d="M 8 0 L 0 4 L 8 8 z" transform="translate(371.4,638.1) scale(1,1) rotate(-140.3)"/><g><g label-idx="0" cursor="move" transform="translate(326.5, 595.5)"><rect fill="white" rx="3" ry="3" x="0" y="0" width="0" height="0"/><text text-anchor="middle" font-size="14pt" font-family="OpenSansCondensedLight" y="0.8em" display="none" xml:space="preserve" transform="translate(0,0)"/></g></g></g><g><path stroke="black" stroke-dasharray="none" d="M 283 474 369 474" fill="none"/><path fill="black" stroke="black" d="M 8 0 L 0 4 L 8 8 z" transform="translate(275,470) scale(1,1) rotate(0)"/><path fill="black" stroke="black" d="M 8 0 L 0 4 L 8 8 z" transform="translate(377,478) scale(1,1) rotate(-180)"/><g><g label-idx="0" cursor="move" transform="translate(326, 474)"><rect fill="white" rx="3" ry="3" x="0" y="0" width="0" height="0"/><text text-anchor="middle" font-size="14pt" font-family="OpenSansCondensedLight" y="0.8em" display="none" xml:space="preserve" transform="translate(0,0)"/></g></g></g><g><path stroke="black" stroke-dasharray="none" d="M 373 525 284 525" fill="none"/><path fill="black" stroke="black" d="M 8 0 L 0 4 L 8 8 z" transform="translate(381,529) scale(1,1) rotate(-180)"/><path fill="black" stroke="black" d="M 8 0 L 0 4 L 8 8 z" transform="translate(276,521) scale(1,1) rotate(0)"/><g><g label-idx="0" cursor="move" transform="translate(328.5, 525)"><rect fill="white" rx="3" ry="3" x="0" y="0" width="0" height="0"/><text text-anchor="middle" font-size="14pt" font-family="OpenSansCondensedLight" y="0.8em" display="none" xml:space="preserve" transform="translate(0,0)"/></g></g></g><g><path stroke="black" stroke-dasharray="none" d="M 286 660 369 660" fill="none"/><path fill="black" stroke="black" d="M 8 0 L 0 4 L 8 8 z" transform="translate(278,656) scale(1,1) rotate(0)"/><path fill="black" stroke="black" d="M 8 0 L 0 4 L 8 8 z" transform="translate(377,664) scale(1,1) rotate(-180)"/><g><g label-idx="0" cursor="move" transform="translate(327.5, 660)"><rect fill="white" rx="3" ry="3" x="0" y="0" width="0" height="0"/><text text-anchor="middle" font-size="14pt" font-family="OpenSansCondensedLight" y="0.8em" display="none" xml:space="preserve" transform="translate(0,0)"/></g></g></g><g><path stroke="black" stroke-dasharray="none" d="M 286 713 370 713" fill="none"/><path fill="black" stroke="black" d="M 8 0 L 0 4 L 8 8 z" transform="translate(278,709) scale(1,1) rotate(0)"/><path fill="black" stroke="black" d="M 8 0 L 0 4 L 8 8 z" transform="translate(378,717) scale(1,1) rotate(-180)"/><g><g label-idx="0" cursor="move" transform="translate(328, 713)"><rect fill="white" rx="3" ry="3" x="0" y="0" width="0" height="0"/><text text-anchor="middle" font-size="14pt" font-family="OpenSansCondensedLight" y="0.8em" display="none" xml:space="preserve" transform="translate(0,0)"/></g></g></g><g><path stroke="black" stroke-dasharray="none" d="M 426 562 426 628" fill="none"/><path fill="black" stroke="black" d="M 8 0 L 0 4 L 8 8 z" transform="translate(430,554) scale(1,1) rotate(-270)"/><path fill="black" stroke="black" d="M 8 0 L 0 4 L 8 8 z" transform="translate(422,636) scale(1,1) rotate(-90)"/><g><g label-idx="0" cursor="move" transform="translate(426, 595)"><rect fill="white" rx="3" ry="3" x="0" y="0" width="0" height="0"/><text text-anchor="middle" font-size="14pt" font-family="OpenSansCondensedLight" y="0.8em" display="none" xml:space="preserve" transform="translate(0,0)"/></g></g></g><g><path stroke="black" stroke-dasharray="none" d="M 231 563 231 627" fill="none"/><path fill="black" stroke="black" d="M 8 0 L 0 4 L 8 8 z" transform="translate(235,555) scale(1,1) rotate(-270)"/><path fill="black" stroke="black" d="M 8 0 L 0 4 L 8 8 z" transform="translate(227,635) scale(1,1) rotate(-90)"/><g><g label-idx="0" cursor="move" transform="translate(231, 595)"><rect fill="white" rx="3" ry="3" x="0" y="0" width="0" height="0"/><text text-anchor="middle" font-size="14pt" font-family="OpenSansCondensedLight" y="0.8em" display="none" xml:space="preserve" transform="translate(0,0)"/></g></g></g><g><path stroke="black" stroke-dasharray="none" d="M 609 614 425 614" fill="none"/><path fill="black" stroke="black" d="" transform="translate(609,614) scale(1,1) rotate(-180)"/><path fill="black" stroke="black" d="" transform="translate(425,614) scale(1,1) rotate(0)"/><g><g label-idx="0" cursor="move" transform="translate(517, 614)"><rect fill="white" rx="3" ry="3" x="0" y="0" width="0" height="0"/><text text-anchor="middle" font-size="14pt" font-family="OpenSansCondensedLight" y="0.8em" display="none" xml:space="preserve" transform="translate(0,0)"/></g></g></g><g><path stroke="black" stroke-dasharray="none" d="M 184 289 80 289 80 805 233 805 233 746" fill="none"/><path fill="black" stroke="black" d="M 8 0 L 0 4 L 8 8 z" transform="translate(192,293) scale(1,1) rotate(-180)"/><path fill="black" stroke="black" d="M 8 0 L 0 4 L 8 8 z" transform="translate(237,738) scale(1,1) rotate(-270)"/><g><g label-idx="0" cursor="move" transform="translate(80, 601)"><rect fill="white" rx="3" ry="3" x="0" y="0" width="0" height="0"/><text text-anchor="middle" font-size="14pt" font-family="OpenSansCondensedLight" y="0.8em" display="none" xml:space="preserve" transform="translate(0,0)"/></g></g></g><g><path stroke="black" stroke-dasharray="none" d="M 471 290 571 290 569 793 429 794 429 747" fill="none"/><path fill="black" stroke="black" d="M 8 0 L 0 4 L 8 8 z" transform="translate(463,286) scale(1,1) rotate(0)"/><path fill="black" stroke="black" d="M 8 0 L 0 4 L 8 8 z" transform="translate(433,739) scale(1,1) rotate(-270)"/><g><g label-idx="0" cursor="move" transform="translate(569.8, 585)"><rect fill="white" rx="3" ry="3" x="0" y="0" width="0" height="0"/><text text-anchor="middle" font-size="14pt" font-family="OpenSansCondensedLight" y="0.8em" display="none" xml:space="preserve" transform="translate(0,0)"/></g></g></g><g><path stroke="black" stroke-dasharray="none" d="M 617 352 572 352" fill="none"/><path fill="black" stroke="black" d="" transform="translate(617,352) scale(1,1) rotate(-180)"/><path fill="black" stroke="black" d="" transform="translate(572,352) scale(1,1) rotate(0)"/><g><g label-idx="0" cursor="move" transform="translate(594.5, 352)"><rect fill="white" rx="3" ry="3" x="0" y="0" width="0" height="0"/><text text-anchor="middle" font-size="14pt" font-family="OpenSansCondensedLight" y="0.8em" display="none" xml:space="preserve" transform="translate(0,0)"/></g></g></g><g><path stroke="black" stroke-dasharray="none" d="M 426 443 426 331" fill="none"/><path fill="black" stroke="black" d="M 8 0 L 0 4 L 8 8 z" transform="translate(422,451) scale(1,1) rotate(-90)"/><path fill="black" stroke="black" d="M 8 0 L 0 4 L 8 8 z" transform="translate(430,323) scale(1,1) rotate(-270)"/><g><g label-idx="0" cursor="move" transform="translate(426, 387)"><rect fill="white" rx="3" ry="3" x="0" y="0" width="0" height="0"/><text text-anchor="middle" font-size="14pt" font-family="OpenSansCondensedLight" y="0.8em" display="none" xml:space="preserve" transform="translate(0,0)"/></g></g></g><g><path stroke="black" stroke-dasharray="none" d="M 230 444 230 332" fill="none"/><path fill="black" stroke="black" d="M 8 0 L 0 4 L 8 8 z" transform="translate(226,452) scale(1,1) rotate(-90)"/><path fill="black" stroke="black" d="M 8 0 L 0 4 L 8 8 z" transform="translate(234,324) scale(1,1) rotate(-270)"/><g><g label-idx="0" cursor="move" transform="translate(230, 388)"><rect fill="white" rx="3" ry="3" x="0" y="0" width="0" height="0"/><text text-anchor="middle" font-size="14pt" font-family="OpenSansCondensedLight" y="0.8em" display="none" xml:space="preserve" transform="translate(0,0)"/></g></g></g><g><path stroke="black" stroke-dasharray="none" d="M 462 219 462 180" fill="none"/><path fill="black" stroke="black" d="" transform="translate(462,219) scale(1,1) rotate(-90)"/><path fill="black" stroke="black" d="M 8 0 L 0 4 L 8 8 z" transform="translate(466,172) scale(1,1) rotate(-270)"/><g><g label-idx="0" cursor="move" transform="translate(462, 199.5)"><rect fill="white" rx="3" ry="3" x="0" y="0" width="0" height="0"/><text text-anchor="middle" font-size="14pt" font-family="OpenSansCondensedLight" y="0.8em" display="none" xml:space="preserve" transform="translate(0,0)"/></g></g></g><g><path stroke="black" stroke-dasharray="none" d="M 336 217 336 181" fill="none"/><path fill="black" stroke="black" d="" transform="translate(336,217) scale(1,1) rotate(-90)"/><path fill="black" stroke="black" d="M 8 0 L 0 4 L 8 8 z" transform="translate(340,173) scale(1,1) rotate(-270)"/><g><g label-idx="0" cursor="move" transform="translate(336, 199)"><rect fill="white" rx="3" ry="3" x="0" y="0" width="0" height="0"/><text text-anchor="middle" font-size="14pt" font-family="OpenSansCondensedLight" y="0.8em" display="none" xml:space="preserve" transform="translate(0,0)"/></g></g></g><g><path stroke="black" stroke-dasharray="none" d="M 211 218 211 183" fill="none"/><path fill="black" stroke="black" d="" transform="translate(211,218) scale(1,1) rotate(-90)"/><path fill="black" stroke="black" d="M 8 0 L 0 4 L 8 8 z" transform="translate(215,175) scale(1,1) rotate(-270)"/><g><g label-idx="0" cursor="move" transform="translate(211, 200.5)"><rect fill="white" rx="3" ry="3" x="0" y="0" width="0" height="0"/><text text-anchor="middle" font-size="14pt" font-family="OpenSansCondensedLight" y="0.8em" display="none" xml:space="preserve" transform="translate(0,0)"/></g></g></g><g><path stroke="black" stroke-dasharray="none" d="M 84 218 84 181" fill="none"/><path fill="black" stroke="black" d="" transform="translate(84,218) scale(1,1) rotate(-90)"/><path fill="black" stroke="black" d="M 8 0 L 0 4 L 8 8 z" transform="translate(88,173) scale(1,1) rotate(-270)"/><g><g label-idx="0" cursor="move" transform="translate(84, 199.5)"><rect fill="white" rx="3" ry="3" x="0" y="0" width="0" height="0"/><text text-anchor="middle" font-size="14pt" font-family="OpenSansCondensedLight" y="0.8em" display="none" xml:space="preserve" transform="translate(0,0)"/></g></g></g><g><path stroke="black" stroke-dasharray="none" d="M 211 75 211 98" fill="none"/><path fill="black" stroke="black" d="M 8 0 L 0 4 L 8 8 z" transform="translate(215,67) scale(1,1) rotate(-270)"/><path fill="black" stroke="black" d="M 8 0 L 0 4 L 8 8 z" transform="translate(207,106) scale(1,1) rotate(-90)"/><g><g label-idx="0" cursor="move" transform="translate(211, 86.5)"><rect fill="white" rx="3" ry="3" x="0" y="0" width="0" height="0"/><text text-anchor="middle" font-size="14pt" font-family="OpenSansCondensedLight" y="0.8em" display="none" xml:space="preserve" transform="translate(0,0)"/></g></g></g><g><path stroke="black" stroke-dasharray="none" d="M 395 216 395 245" fill="none"/><path fill="black" stroke="black" d="" transform="translate(395,216) scale(1,1) rotate(-270)"/><path fill="black" stroke="black" d="M 8 0 L 0 4 L 8 8 z" transform="translate(391,253) scale(1,1) rotate(-90)"/><g><g label-idx="0" cursor="move" transform="translate(395, 230.5)"><rect fill="white" rx="3" ry="3" x="0" y="0" width="0" height="0"/><text text-anchor="middle" font-size="14pt" font-family="OpenSansCondensedLight" y="0.8em" display="none" xml:space="preserve" transform="translate(0,0)"/></g></g></g></g><defs/></svg>