<svg xmlns="http://www.w3.org/2000/svg" xmlns:xlink="http://www.w3.org/1999/xlink" version="1.1" width="632.1" height="824.1" viewBox="17.9 31.2 632.1 824.1"><g><g transform="translate(18,94)"><g><g>
<path d="M614,0H0v597h614V0L614,0z" stroke="#000000" stroke-dasharray="none" fill="#FFFFFF"/>
<rect x="26.9" y="27.2" width="560.3" height="542.6" fill="none"/>
<circle fill="none" cx="307" cy="0" r="0.1"/>
<circle fill="none" cx="459.2" cy="0" r="0.1"/>
<circle fill="none" cx="614" cy="150.5" r="0.1"/>
<circle fill="none" cx="614" cy="298.5" r="0.1"/>
<circle fill="none" cx="614" cy="446.4" r="0.1"/>
<circle fill="none" cx="459.2" cy="597" r="0.1"/>
<circle fill="none" cx="307" cy="597" r="0.1"/>
<circle fill="none" cx="154.9" cy="597" r="0.1"/>
<circle fill="none" cx="0" cy="446.4" r="0.1"/>
<circle fill="none" cx="0" cy="298.5" r="0.1"/>
<circle fill="none" cx="0" cy="150.5" r="0.1"/>
<circle fill="none" cx="154.9" cy="0" r="0.1"/>
</g></g><rect stroke="none" stroke-width="1" fill="#FFFFFF" x="0" y="0" width="40" height="20" transform="translate(469.1,-62.1)"/><path stroke="#000000" fill="none" d="M459.2,0 C487.3,-7.6 455.2,-34.5 483.3 -42.1"/><text font-family="OpenSansCondensedLight" font-size="14pt" fill="black" transform="translate(469.1,-62.1)" text-anchor="middle"><tspan x="20" y="16.3">904</tspan></text><rect stroke-width="0" fill="none" width="560.3" height="542.6" transform="translate(26.9,27.2)"/><text font-family="OpenSansCondensedLight" font-size="14pt" fill="black" transform="translate(26.9,27.2)" text-anchor="middle"><tspan x="280.2" y="16.8">ROS</tspan></text><path stroke="#000000" fill="none" transform="translate(26.9,27.2)" d="M 0 0"/></g><g transform="translate(144,184)"><g><g>
<path d="M94,0H0v75h94V0L94,0z" stroke="#000000" stroke-dasharray="none" fill="#FFFFFF"/>
<rect x="4.1" y="3.4" width="85.8" height="68.2" fill="none"/>
<circle fill="none" cx="47" cy="0" r="0.1"/>
<circle fill="none" cx="70.3" cy="0" r="0.1"/>
<circle fill="none" cx="94" cy="18.9" r="0.1"/>
<circle fill="none" cx="94" cy="37.5" r="0.1"/>
<circle fill="none" cx="94" cy="56.1" r="0.1"/>
<circle fill="none" cx="70.3" cy="75" r="0.1"/>
<circle fill="none" cx="47" cy="75" r="0.1"/>
<circle fill="none" cx="23.7" cy="75" r="0.1"/>
<circle fill="none" cx="0" cy="56.1" r="0.1"/>
<circle fill="none" cx="0" cy="37.5" r="0.1"/>
<circle fill="none" cx="0" cy="18.9" r="0.1"/>
<circle fill="none" cx="23.7" cy="0" r="0.1"/>
</g></g><rect stroke="none" stroke-width="0" fill="#FFFFFF" x="0" y="0" width="0" height="0" transform="translate(93.9,18.8)"/><path stroke="#000000" fill="none" d=""/><text font-family="OpenSansCondensedLight" font-size="14pt" fill="black" transform="translate(93.9,18.8)"/><rect stroke-width="0" fill="none" width="85.8" height="68.2" transform="translate(4.1,3.4)"/><text font-family="OpenSansCondensedLight" font-size="14pt" fill="black" transform="translate(4.1,3.4)" text-anchor="middle"><tspan x="42.9" y="16.8">CAMERA</tspan><tspan x="42.9" y="37.8">DRIVER</tspan><tspan x="42.9" y="58.8">NODE</tspan><tspan x="42.9" y="79.8">906</tspan></text><path stroke="#000000" fill="none" transform="translate(4.1,3.4)" d="M 28.9 82 56.9 82"/></g><g transform="translate(136,316.5)"><g><g>
<path d="M94.5,0H0v94.5h94.5V0L94.5,0z" stroke="#000000" stroke-dasharray="none" fill="#FFFFFF"/>
<rect x="4.1" y="4.3" width="86.2" height="85.9" fill="none"/>
<circle fill="none" cx="47.2" cy="0" r="0.1"/>
<circle fill="none" cx="70.7" cy="0" r="0.1"/>
<circle fill="none" cx="94.5" cy="23.8" r="0.1"/>
<circle fill="none" cx="94.5" cy="47.2" r="0.1"/>
<circle fill="none" cx="94.5" cy="70.7" r="0.1"/>
<circle fill="none" cx="70.7" cy="94.5" r="0.1"/>
<circle fill="none" cx="47.2" cy="94.5" r="0.1"/>
<circle fill="none" cx="23.8" cy="94.5" r="0.1"/>
<circle fill="none" cx="0" cy="70.7" r="0.1"/>
<circle fill="none" cx="0" cy="47.2" r="0.1"/>
<circle fill="none" cx="0" cy="23.8" r="0.1"/>
<circle fill="none" cx="23.8" cy="0" r="0.1"/>
</g></g><rect stroke="none" stroke-width="0" fill="#FFFFFF" x="0" y="0" width="0" height="0" transform="translate(94.4,47.1)"/><path stroke="#000000" fill="none" d=""/><text font-family="OpenSansCondensedLight" font-size="14pt" fill="black" transform="translate(94.4,47.1)"/><rect stroke-width="0" fill="none" width="86.2" height="85.9" transform="translate(4.1,4.3)"/><text font-family="OpenSansCondensedLight" font-size="14pt" fill="black" transform="translate(4.1,4.3)" text-anchor="middle"><tspan x="43.1" y="16.8">TRAILNET</tspan><tspan x="43.1" y="37.8">DNN</tspan><tspan x="43.1" y="58.8">NODE</tspan><tspan x="43.1" y="79.8">912</tspan></text><path stroke="#000000" fill="none" transform="translate(4.1,4.3)" d="M 29.1 82 57.1 82"/></g><g transform="translate(274,317)"><g><g>
<path d="M100,0H0v94h100V0L100,0z" stroke="#000000" stroke-dasharray="none" fill="#FFFFFF"/>
<rect x="4.4" y="4.3" width="91.3" height="85.4" fill="none"/>
<circle fill="none" cx="50" cy="0" r="0.1"/>
<circle fill="none" cx="74.8" cy="0" r="0.1"/>
<circle fill="none" cx="100" cy="23.7" r="0.1"/>
<circle fill="none" cx="100" cy="47" r="0.1"/>
<circle fill="none" cx="100" cy="70.3" r="0.1"/>
<circle fill="none" cx="74.8" cy="94" r="0.1"/>
<circle fill="none" cx="50" cy="94" r="0.1"/>
<circle fill="none" cx="25.2" cy="94" r="0.1"/>
<circle fill="none" cx="0" cy="70.3" r="0.1"/>
<circle fill="none" cx="0" cy="47" r="0.1"/>
<circle fill="none" cx="0" cy="23.7" r="0.1"/>
<circle fill="none" cx="25.2" cy="0" r="0.1"/>
</g></g><rect stroke="none" stroke-width="0" fill="#FFFFFF" x="0" y="0" width="0" height="0" transform="translate(99.9,46.9)"/><path stroke="#000000" fill="none" d=""/><text font-family="OpenSansCondensedLight" font-size="14pt" fill="black" transform="translate(99.9,46.9)"/><rect stroke-width="0" fill="none" width="91.3" height="85.4" transform="translate(4.4,4.3)"/><text font-family="OpenSansCondensedLight" font-size="14pt" fill="black" transform="translate(4.4,4.3)" text-anchor="middle"><tspan x="45.6" y="16.8">OBJECT</tspan><tspan x="45.6" y="37.8">DETECTION</tspan><tspan x="45.6" y="58.8">NODE</tspan><tspan x="45.6" y="79.8">914</tspan></text><path stroke="#000000" fill="none" transform="translate(4.4,4.3)" d="M 31.6 82 59.6 82"/></g><g transform="translate(411,316.5)"><g><g>
<path d="M94.5,0H0v94.5h94.5V0L94.5,0z" stroke="#000000" stroke-dasharray="none" fill="#FFFFFF"/>
<rect x="4.1" y="4.3" width="86.2" height="85.9" fill="none"/>
<circle fill="none" cx="47.2" cy="0" r="0.1"/>
<circle fill="none" cx="70.7" cy="0" r="0.1"/>
<circle fill="none" cx="94.5" cy="23.8" r="0.1"/>
<circle fill="none" cx="94.5" cy="47.2" r="0.1"/>
<circle fill="none" cx="94.5" cy="70.7" r="0.1"/>
<circle fill="none" cx="70.7" cy="94.5" r="0.1"/>
<circle fill="none" cx="47.2" cy="94.5" r="0.1"/>
<circle fill="none" cx="23.8" cy="94.5" r="0.1"/>
<circle fill="none" cx="0" cy="70.7" r="0.1"/>
<circle fill="none" cx="0" cy="47.2" r="0.1"/>
<circle fill="none" cx="0" cy="23.8" r="0.1"/>
<circle fill="none" cx="23.8" cy="0" r="0.1"/>
</g></g><rect stroke="none" stroke-width="0" fill="#FFFFFF" x="0" y="0" width="0" height="0" transform="translate(94.4,47.1)"/><path stroke="#000000" fill="none" d=""/><text font-family="OpenSansCondensedLight" font-size="14pt" fill="black" transform="translate(94.4,47.1)"/><rect stroke-width="0" fill="none" width="86.2" height="85.9" transform="translate(4.1,4.3)"/><text font-family="OpenSansCondensedLight" font-size="14pt" fill="black" transform="translate(4.1,4.3)" text-anchor="middle"><tspan x="43.1" y="16.8">OBSTACLE</tspan><tspan x="43.1" y="37.8">DETECTOR</tspan><tspan x="43.1" y="58.8">NODE</tspan><tspan x="43.1" y="79.8">916</tspan></text><path stroke="#000000" fill="none" transform="translate(4.1,4.3)" d="M 29.1 82 57.1 82"/></g><g transform="translate(134,445)"><g><g>
<path d="M369,0H0v88h369V0L369,0z" stroke="#000000" stroke-dasharray="none" fill="#FFFFFF"/>
<rect x="16.1" y="4" width="336.7" height="80" fill="none"/>
<circle fill="none" cx="184.5" cy="0" r="0.1"/>
<circle fill="none" cx="275.9" cy="0" r="0.1"/>
<circle fill="none" cx="369" cy="22.2" r="0.1"/>
<circle fill="none" cx="369" cy="44" r="0.1"/>
<circle fill="none" cx="369" cy="65.8" r="0.1"/>
<circle fill="none" cx="275.9" cy="88" r="0.1"/>
<circle fill="none" cx="184.5" cy="88" r="0.1"/>
<circle fill="none" cx="93.1" cy="88" r="0.1"/>
<circle fill="none" cx="0" cy="65.8" r="0.1"/>
<circle fill="none" cx="0" cy="44" r="0.1"/>
<circle fill="none" cx="0" cy="22.2" r="0.1"/>
<circle fill="none" cx="93.1" cy="0" r="0.1"/>
</g></g><rect stroke="none" stroke-width="0" fill="#FFFFFF" x="0" y="0" width="0" height="0" transform="translate(368.9,43.9)"/><path stroke="#000000" fill="none" d=""/><text font-family="OpenSansCondensedLight" font-size="14pt" fill="black" transform="translate(368.9,43.9)"/><rect stroke-width="0" fill="none" width="336.7" height="80" transform="translate(16.1,4)"/><text font-family="OpenSansCondensedLight" font-size="14pt" fill="black" transform="translate(16.1,4)" text-anchor="middle"><tspan x="168.4" y="46.3">CONTROLLER NODE 918</tspan></text><path stroke="#000000" fill="none" transform="translate(16.1,4)" d="M 246.6 48 274.6 48"/></g><g transform="translate(133,589)"><g><g>
<path d="M370,0H0v59h370V0L370,0z" stroke="#000000" stroke-dasharray="none" fill="#FFFFFF"/>
<rect x="16.2" y="2.7" width="337.7" height="53.6" fill="none"/>
<circle fill="none" cx="185" cy="0" r="0.1"/>
<circle fill="none" cx="276.7" cy="0" r="0.1"/>
<circle fill="none" cx="370" cy="14.9" r="0.1"/>
<circle fill="none" cx="370" cy="29.5" r="0.1"/>
<circle fill="none" cx="370" cy="44.1" r="0.1"/>
<circle fill="none" cx="276.7" cy="59" r="0.1"/>
<circle fill="none" cx="185" cy="59" r="0.1"/>
<circle fill="none" cx="93.3" cy="59" r="0.1"/>
<circle fill="none" cx="0" cy="44.1" r="0.1"/>
<circle fill="none" cx="0" cy="29.5" r="0.1"/>
<circle fill="none" cx="0" cy="14.9" r="0.1"/>
<circle fill="none" cx="93.3" cy="0" r="0.1"/>
</g></g><rect stroke="none" stroke-width="0" fill="#FFFFFF" x="0" y="0" width="0" height="0" transform="translate(369.9,29.4)"/><path stroke="#000000" fill="none" d=""/><text font-family="OpenSansCondensedLight" font-size="14pt" fill="black" transform="translate(369.9,29.4)"/><rect stroke-width="0" fill="none" width="337.7" height="53.6" transform="translate(16.2,2.7)"/><text font-family="OpenSansCondensedLight" font-size="14pt" fill="black" transform="translate(16.2,2.7)" text-anchor="middle"><tspan x="168.8" y="22.6">MESSAGING BRIDGE TO EXTERNAL</tspan><tspan x="168.8" y="43.6">AUTOPILOT MODULE 910</tspan></text><path stroke="#000000" fill="none" transform="translate(16.2,2.7)" d="M 251.6 46 279.6 46"/></g><g transform="translate(20,711)"><g><g>
<path d="M612,0H0v113h612V0L612,0z" stroke="#000000" stroke-dasharray="none" fill="#FFFFFF"/>
<rect x="26.8" y="5.2" width="558.5" height="102.7" fill="none"/>
<circle fill="none" cx="306" cy="0" r="0.1"/>
<circle fill="none" cx="457.7" cy="0" r="0.1"/>
<circle fill="none" cx="612" cy="28.5" r="0.1"/>
<circle fill="none" cx="612" cy="56.5" r="0.1"/>
<circle fill="none" cx="612" cy="84.5" r="0.1"/>
<circle fill="none" cx="457.7" cy="113" r="0.1"/>
<circle fill="none" cx="306" cy="113" r="0.1"/>
<circle fill="none" cx="154.4" cy="113" r="0.1"/>
<circle fill="none" cx="0" cy="84.5" r="0.1"/>
<circle fill="none" cx="0" cy="56.5" r="0.1"/>
<circle fill="none" cx="0" cy="28.5" r="0.1"/>
<circle fill="none" cx="154.4" cy="0" r="0.1"/>
</g></g><rect stroke="none" stroke-width="0" fill="#FFFFFF" x="0" y="0" width="0" height="0" transform="translate(611.9,56.4)"/><path stroke="#000000" fill="none" d=""/><text font-family="OpenSansCondensedLight" font-size="14pt" fill="black" transform="translate(611.9,56.4)"/><rect stroke-width="0" fill="none" width="558.5" height="102.7" transform="translate(26.8,5.2)"/><text font-family="OpenSansCondensedLight" font-size="14pt" fill="black" transform="translate(26.8,5.2)" text-anchor="middle"><tspan x="279.3" y="98.5">FLIGHT CONTROLLER HARDWARE AUTOPILOT 920</tspan></text><path stroke="#000000" fill="none" transform="translate(26.8,5.2)" d="M 474.5 101 502.5 101"/></g><g transform="translate(201,734)"><g><g>
<path d="M249,0H0v54h249V0L249,0z" stroke="#000000" stroke-dasharray="none" fill="#FFFFFF"/>
<rect x="10.9" y="2.5" width="227.2" height="49.1" fill="none"/>
<circle fill="none" cx="124.5" cy="0" r="0.1"/>
<circle fill="none" cx="186.2" cy="0" r="0.1"/>
<circle fill="none" cx="249" cy="13.6" r="0.1"/>
<circle fill="none" cx="249" cy="27" r="0.1"/>
<circle fill="none" cx="249" cy="40.4" r="0.1"/>
<circle fill="none" cx="186.2" cy="54" r="0.1"/>
<circle fill="none" cx="124.5" cy="54" r="0.1"/>
<circle fill="none" cx="62.8" cy="54" r="0.1"/>
<circle fill="none" cx="0" cy="40.4" r="0.1"/>
<circle fill="none" cx="0" cy="27" r="0.1"/>
<circle fill="none" cx="0" cy="13.6" r="0.1"/>
<circle fill="none" cx="62.8" cy="0" r="0.1"/>
</g></g><rect stroke="none" stroke-width="0" fill="#FFFFFF" x="0" y="0" width="0" height="0" transform="translate(248.9,26.9)"/><path stroke="#000000" fill="none" d=""/><text font-family="OpenSansCondensedLight" font-size="14pt" fill="black" transform="translate(248.9,26.9)"/><rect stroke-width="0" fill="none" width="227.2" height="49.1" transform="translate(10.9,2.5)"/><text font-family="OpenSansCondensedLight" font-size="14pt" fill="black" transform="translate(10.9,2.5)" text-anchor="middle"><tspan x="113.6" y="30.8">FLIGHT FIRMWARE 902</tspan></text><path stroke="#000000" fill="none" transform="translate(10.9,2.5)" d="M 186.7 33 214.7 33"/></g><g transform="translate(498,194)"><g><g>
<path d="M94.5,0H0v94.5h94.5V0L94.5,0z" stroke="#000000" stroke-dasharray="none" fill="#FFFFFF"/>
<rect x="4.1" y="4.3" width="86.2" height="85.9" fill="none"/>
<circle fill="none" cx="47.2" cy="0" r="0.1"/>
<circle fill="none" cx="70.7" cy="0" r="0.1"/>
<circle fill="none" cx="94.5" cy="23.8" r="0.1"/>
<circle fill="none" cx="94.5" cy="47.2" r="0.1"/>
<circle fill="none" cx="94.5" cy="70.7" r="0.1"/>
<circle fill="none" cx="70.7" cy="94.5" r="0.1"/>
<circle fill="none" cx="47.2" cy="94.5" r="0.1"/>
<circle fill="none" cx="23.8" cy="94.5" r="0.1"/>
<circle fill="none" cx="0" cy="70.7" r="0.1"/>
<circle fill="none" cx="0" cy="47.2" r="0.1"/>
<circle fill="none" cx="0" cy="23.8" r="0.1"/>
<circle fill="none" cx="23.8" cy="0" r="0.1"/>
</g></g><rect stroke="none" stroke-width="0" fill="#FFFFFF" x="0" y="0" width="0" height="0" transform="translate(94.4,47.1)"/><path stroke="#000000" fill="none" d=""/><text font-family="OpenSansCondensedLight" font-size="14pt" fill="black" transform="translate(94.4,47.1)"/><rect stroke-width="0" fill="none" width="86.2" height="85.9" transform="translate(4.1,4.3)"/><text font-family="OpenSansCondensedLight" font-size="14pt" fill="black" transform="translate(4.1,4.3)" text-anchor="middle"><tspan x="43.1" y="16.8">JOYSTICK</tspan><tspan x="43.1" y="37.8">DRIVER</tspan><tspan x="43.1" y="58.8">NODE</tspan><tspan x="43.1" y="79.8">908</tspan></text><path stroke="#000000" fill="none" transform="translate(4.1,4.3)" d="M 29.1 82 57.1 82"/></g><g><path stroke="black" stroke-dasharray="none" d="M 318 725 318 656" fill="none"/><path fill="black" stroke="black" d="M 8 0 L 0 4 L 8 8 z" transform="translate(314,733) scale(1,1) rotate(-90)"/><path fill="black" stroke="black" d="M 8 0 L 0 4 L 8 8 z" transform="translate(322,648) scale(1,1) rotate(-270)"/><g><g label-idx="0" cursor="move" transform="translate(318, 690.5)"><rect fill="white" rx="3" ry="3" x="0" y="0" width="0" height="0"/><text text-anchor="middle" font-size="14pt" font-family="OpenSansCondensedLight" y="0.8em" display="none" xml:space="preserve" transform="translate(0,0)"/></g></g></g><g><path stroke="black" stroke-dasharray="none" d="M 318 581 318 541" fill="none"/><path fill="black" stroke="black" d="M 8 0 L 0 4 L 8 8 z" transform="translate(314,589) scale(1,1) rotate(-90)"/><path fill="black" stroke="black" d="M 8 0 L 0 4 L 8 8 z" transform="translate(322,533) scale(1,1) rotate(-270)"/><g><g label-idx="0" cursor="move" transform="translate(318, 561)"><rect fill="white" rx="3" ry="3" x="0" y="0" width="0" height="0"/><text text-anchor="middle" font-size="14pt" font-family="OpenSansCondensedLight" y="0.8em" display="none" xml:space="preserve" transform="translate(0,0)"/></g></g></g><g><path stroke="black" stroke-dasharray="none" d="M 503 622 555 622 555 364 513 364" fill="none"/><path fill="black" stroke="black" d="" transform="translate(503,622) scale(1,1) rotate(0)"/><path fill="black" stroke="black" d="M 8 0 L 0 4 L 8 8 z" transform="translate(505,360) scale(1,1) rotate(0)"/><g><g label-idx="0" cursor="move" transform="translate(555, 498)"><rect fill="white" rx="3" ry="3" x="0" y="0" width="0" height="0"/><text text-anchor="middle" font-size="14pt" font-family="OpenSansCondensedLight" y="0.8em" display="none" xml:space="preserve" transform="translate(0,0)"/></g></g></g><g><path stroke="black" stroke-dasharray="none" d="M 572 288 572 491 511 491" fill="none"/><path fill="black" stroke="black" d="" transform="translate(572,288) scale(1,1) rotate(-270)"/><path fill="black" stroke="black" d="M 8 0 L 0 4 L 8 8 z" transform="translate(503,487) scale(1,1) rotate(0)"/><g><g label-idx="0" cursor="move" transform="translate(572, 420)"><rect fill="white" rx="3" ry="3" x="0" y="0" width="0" height="0"/><text text-anchor="middle" font-size="14pt" font-family="OpenSansCondensedLight" y="0.8em" display="none" xml:space="preserve" transform="translate(0,0)"/></g></g></g><g><path stroke="black" stroke-dasharray="none" d="M 186 411 186 437" fill="none"/><path fill="black" stroke="black" d="" transform="translate(186,411) scale(1,1) rotate(-270)"/><path fill="black" stroke="black" d="M 8 0 L 0 4 L 8 8 z" transform="translate(182,445) scale(1,1) rotate(-90)"/><g><g label-idx="0" cursor="move" transform="translate(186, 424)"><rect fill="white" rx="3" ry="3" x="0" y="0" width="0" height="0"/><text text-anchor="middle" font-size="14pt" font-family="OpenSansCondensedLight" y="0.8em" display="none" xml:space="preserve" transform="translate(0,0)"/></g></g></g><g><path stroke="black" stroke-dasharray="none" d="M 326 411 326 435" fill="none"/><path fill="black" stroke="black" d="" transform="translate(326,411) scale(1,1) rotate(-270)"/><path fill="black" stroke="black" d="M 8 0 L 0 4 L 8 8 z" transform="translate(322,443) scale(1,1) rotate(-90)"/><g><g label-idx="0" cursor="move" transform="translate(326, 423)"><rect fill="white" rx="3" ry="3" x="0" y="0" width="0" height="0"/><text text-anchor="middle" font-size="14pt" font-family="OpenSansCondensedLight" y="0.8em" display="none" xml:space="preserve" transform="translate(0,0)"/></g></g></g><g><path stroke="black" stroke-dasharray="none" d="M 458 411 458 437" fill="none"/><path fill="black" stroke="black" d="" transform="translate(458,411) scale(1,1) rotate(-270)"/><path fill="black" stroke="black" d="M 8 0 L 0 4 L 8 8 z" transform="translate(454,445) scale(1,1) rotate(-90)"/><g><g label-idx="0" cursor="move" transform="translate(458, 424)"><rect fill="white" rx="3" ry="3" x="0" y="0" width="0" height="0"/><text text-anchor="middle" font-size="14pt" font-family="OpenSansCondensedLight" y="0.8em" display="none" xml:space="preserve" transform="translate(0,0)"/></g></g></g><g><path stroke="black" stroke-dasharray="none" d="M 238 221 460 221 460 309" fill="none"/><path fill="black" stroke="black" d="" transform="translate(238,221) scale(1,1) rotate(0)"/><path fill="black" stroke="black" d="M 8 0 L 0 4 L 8 8 z" transform="translate(456,317) scale(1,1) rotate(-90)"/><g><g label-idx="0" cursor="move" transform="translate(393, 221)"><rect fill="white" rx="3" ry="3" x="0" y="0" width="0" height="0"/><text text-anchor="middle" font-size="14pt" font-family="OpenSansCondensedLight" y="0.8em" display="none" xml:space="preserve" transform="translate(0,0)"/></g></g></g><g><path stroke="black" stroke-dasharray="none" d="M 238 221 326 221 326 309" fill="none"/><path fill="black" stroke="black" d="" transform="translate(238,221) scale(1,1) rotate(0)"/><path fill="black" stroke="black" d="M 8 0 L 0 4 L 8 8 z" transform="translate(322,317) scale(1,1) rotate(-90)"/><g><g label-idx="0" cursor="move" transform="translate(326, 221)"><rect fill="white" rx="3" ry="3" x="0" y="0" width="0" height="0"/><text text-anchor="middle" font-size="14pt" font-family="OpenSansCondensedLight" y="0.8em" display="none" xml:space="preserve" transform="translate(0,0)"/></g></g></g><g><path stroke="black" stroke-dasharray="none" d="M 183 260 183 309" fill="none"/><path fill="black" stroke="black" d="" transform="translate(183,260) scale(1,1) rotate(-270)"/><path fill="black" stroke="black" d="M 8 0 L 0 4 L 8 8 z" transform="translate(179,317) scale(1,1) rotate(-90)"/><g><g label-idx="0" cursor="move" transform="translate(183, 284.5)"><rect fill="white" rx="3" ry="3" x="0" y="0" width="0" height="0"/><text text-anchor="middle" font-size="14pt" font-family="OpenSansCondensedLight" y="0.8em" display="none" xml:space="preserve" transform="translate(0,0)"/></g></g></g></g><defs/></svg>